<svg xmlns="http://www.w3.org/2000/svg" width="140" height="140" viewBox="0 0 140 140">
  <path fill="#BFBFBF" d="M35.429,133.175 L35.282,132.573 L34.883,124.712 C34.883,124.712 35.135,123.193 35.954,122.08 C36.766,120.946 35.646,99.911 35.646,99.911 C35.646,99.911 36.437,97.734 37.046,97.328 C37.662,96.901 35.849,83.328 36.15,83.125 C36.458,82.936 38.446,81.83 39.58,81.228 C40.7,80.612 42.835,74.361 42.835,74.361 C42.835,74.361 43.535,73.5 44.543,72.786 C45.572,72.065 46.496,69.923 46.895,68.908 C47.315,67.872 46.496,66.752 46.496,66.752 L48.029,63.266 L47.434,62.349 L41.281,59.486 L38.726,63.266 C38.726,63.266 36.374,61.929 35.142,60.501 C33.903,59.066 34.218,55.587 32.881,53.333 C32.286,52.325 31.019,51.625 29.794,51.156 C29.36,49.903 28.681,47.992 28.485,47.194 C28.177,45.969 28.275,43.603 28.59,42.889 C28.779,42.42 28.59,41.16 28.443,40.341 C28.583,40.019 28.73,40.054 28.786,39.69 C30.76,39.473 34.659,38.5 34.505,38.458 C34.337,38.416 30.613,37.968 28.688,37.8 C28.625,37.457 28.688,37.548 28.541,37.254 L33.763,33.985 L27.533,35.651 C27.274,35.392 27.365,35.182 27.036,34.965 C27.554,34.258 29.885,29.561 29.647,29.757 C28.758,30.478 25.58,33.796 25.132,34.167 C24.719,34.034 24.299,33.95 23.851,33.894 L22.745,26.775 L21.905,33.887 C21.121,33.978 21.226,33.929 20.568,34.258 L20.568,34.258 C20.568,34.258 15.857,29.806 15.598,29.603 C15.346,29.393 18.447,35.007 18.447,35.007 L17.985,35.777 L14.142,34.769 C14.079,35.049 14.009,35.343 13.946,35.665 L17.222,37.114 L17.117,37.723 C17.117,37.723 15.507,37.632 14.359,37.737 C14.485,38.22 14.632,38.647 14.814,39.06 C15.696,39.172 17.075,39.424 17.075,39.424 C17.075,39.424 17.152,39.543 17.264,39.732 C17.439,40.012 17.705,40.446 17.887,40.761 C17.992,42.77 18.426,43.561 18.426,43.561 L18.132,46.522 C18.132,46.522 17.278,46.326 16.767,45.801 C16.256,45.297 14.919,43.771 14.814,42.35 C14.73,41.125 14.436,39.578 14.03,39.06 C13.904,38.808 13.281,36.932 13.19,36.092 C13.127,35.686 13.085,35.287 13.071,34.923 C13.071,34.769 13.064,34.615 13.064,34.468 L13.043,34.461 C13.036,34.272 13.036,34.09 13.036,33.894 C12.924,30.716 10.677,25.389 10.677,24.262 C10.677,23.135 10.572,20.685 10.677,18.837 C10.768,16.989 9.242,15.351 9.242,15.351 C9.242,15.351 9.438,14.84 9.963,14.231 C10.166,13.986 10.222,13.692 10.222,13.426 C11.552,13.146 12.448,12.649 12.448,12.068 C12.448,11.893 12.35,11.711 12.175,11.557 L12.175,10.325 C12.35,10.171 12.448,9.989 12.448,9.8 C12.448,9.086 11.069,8.505 9.193,8.302 C9.165,7.91 9.193,7.294 9.473,7.098 C9.886,6.825 10.67,6.244 10.607,5.194 C10.53,4.137 10.572,3.514 10.81,3.136 C11.041,2.765 11.622,2.226 11.622,2.226 L9.438,3.178 L11.468,0 C11.468,0 7.646,1.19 6.372,2.317 C5.455,3.136 4.874,4.116 5.553,6.174 C5.833,7.035 6.162,7.812 6.645,8.281 C4.685,8.456 3.229,9.072 3.229,9.793 C3.229,9.961 3.32,10.136 3.474,10.283 L3.474,11.592 C3.32,11.746 3.236,11.914 3.236,12.075 C3.236,12.586 3.943,13.027 5.021,13.321 C4.958,14.161 5.658,14.938 5.658,14.938 C5.658,14.945 5.658,14.945 5.658,14.945 C5.637,14.966 5.14,15.687 5.035,17.5 C4.937,19.348 6.057,20.692 6.057,20.692 C6.057,20.692 6.162,21.301 6.162,22.428 C6.162,23.555 7.184,25.606 7.184,25.606 C7.184,25.606 7.485,27.335 7.289,30.506 C7.079,33.684 8.717,39.319 8.717,39.319 C8.717,39.319 7.387,41.671 6.267,44.331 C5.14,46.991 8.521,50.68 8.521,50.68 C8.521,50.68 10.67,56.735 10.859,59.178 C11.069,61.642 11.874,80.759 11.363,84.854 C10.845,88.942 10.341,101.997 10.446,103.635 C10.537,105.266 11.685,112.154 11.174,117.572 C10.663,122.997 10.754,131.95 10.754,131.95 L10.719,133.182 L0.94,133.182 L0.94,137.725 L48.778,137.725 L48.778,133.182 L35.429,133.175 L35.429,133.175 Z M41.568,60.648 L46.734,63.105 L45.656,65.562 C45.656,65.562 44.41,65.429 43.731,65.975 C43.059,66.514 41.96,68.418 41.96,68.964 C41.96,69.517 42.233,70.742 42.233,70.742 L38.278,77.7 L37.459,77.021 L36.787,67.487 L41.568,60.648 Z M23.739,42.252 C23.704,42.518 23.571,42.651 23.263,42.651 C22.955,42.651 22.619,42.763 22.619,42.763 L23.046,43.407 L23.046,43.771 C23.046,43.771 22.955,43.82 22.647,43.82 C22.332,43.82 22.234,44.058 22.171,44.233 C22.094,44.394 22.577,44.268 22.857,44.268 C23.123,44.268 23.235,44.646 23.235,44.646 C23.235,44.646 23.235,45.388 23.235,45.703 C23.235,46.004 23.018,46.046 22.654,46.004 C22.283,45.976 21.149,45.899 20.764,45.22 C20.393,44.527 20.33,42.854 20.498,42.56 C20.68,42.259 22.003,41.671 22.241,41.608 C22.472,41.538 22.549,40.859 22.472,40.509 C22.402,40.166 21.282,39.928 21.282,39.928 C20.708,39.375 23.263,38.22 23.606,38.297 C23.942,38.353 25.44,39.76 25.44,39.76 C25.44,39.76 24.012,40.033 23.802,40.271 C23.606,40.509 23.774,41.979 23.739,42.252 Z M25.076,43.82 C24.761,43.925 23.984,41.902 24.453,41.902 C24.453,41.902 25.72,41.937 25.748,42.252 C25.783,42.56 25.391,43.715 25.076,43.82 Z M24.425,37.716 C24.145,37.674 23.116,37.303 22.549,37.632 C21.968,37.989 20.267,39.242 19.658,39.69 C19.028,40.138 18.86,38.493 18.86,38.493 C19.546,37.338 21.352,36.421 22.094,36.351 C22.857,36.274 23.942,36.421 24.32,36.624 C24.691,36.82 25.58,36.582 26.259,37.142 C26.945,37.667 27.33,38.906 27.225,39.221 C27.12,39.522 24.698,37.744 24.425,37.716 Z" transform="translate(44)"/>
</svg>
