<svg xmlns="http://www.w3.org/2000/svg" width="140" height="140" viewBox="0 0 140 140">
  <g fill="none" transform="translate(0 9)">
    <rect width="139.74" height="122.892" fill="#FFFFFF"/>
    <g transform="translate(3.465 3.127)">
      <path fill="#A90533" d="M20.7830693 84.419C10.5 73.4935424 4.48346535 58.3999831 4.49871287 40.3912542 4.48450495 24.464839 9.47529703 10.7753559 18.0551485.358576271L18.0412871.363788136.00762376238.363788136.00762376238.363788136.00762376238 84.4207373 20.7702475 84.4207373 20.7830693 84.419zM115.758515 84.4259492C120.188267 79.6689068 124.157475 74.0665 127.754158 67.6593814L107.793762 57.6526017C100.783713 69.0794407 90.5321782 79.5973305 76.3561386 79.6675169 55.724505 79.5973305 47.6183663 61.9082627 47.6630693 39.1400593L124.760099 39.1400593 124.760099 39.1400593C124.86302 36.5695678 124.86302 35.3743136 124.760099 34.1370169 125.263267 20.5913814 121.682871 9.20554237 115.169752.338771186L115.136139.364135593 132.494752.364135593 132.494752 84.4210847 115.720743 84.4210847 115.758515 84.4259492z"/>
      <path fill="#A90533" d="M48.9109406,19.626839 C49.7644554,9.3184661 57.8702475,2.38599153 67.3743069,2.36514407 C76.9431683,2.38599153 83.8568812,9.3184661 84.0911386,19.626839 L48.9109406,19.626839 L48.9109406,19.626839 Z"/>
      <polygon fill="#000000" points="10.986 98.68 10.986 95.178 .257 95.178 .257 115.942 10.986 115.942 10.986 112.44 4.25 112.44 4.25 106.936 10.736 106.936 10.736 103.434 4.25 103.434 4.25 98.68"/>
      <path fill="#000000" d="M29.2000495,107.186161 C31.874604,106.787975 33.3432178,104.130619 33.4416337,101.432263 C33.3432178,97.0178136 30.4891584,95.1912288 26.455495,95.1780254 L20.9663861,95.1780254 L20.9663861,115.942093 L24.9584653,115.942093 L24.9584653,107.6865 L29.9485644,115.942093 L34.9386634,115.942093 L29.2000495,107.186161 L29.2000495,107.186161 Z M24.9581188,98.4305763 L25.4571287,98.4305763 C27.635099,98.5125763 29.269703,99.0108305 29.199703,101.68278 C29.269703,104.130966 27.6905446,104.795305 25.4571287,104.684814 L24.9581188,104.684814 L24.9581188,98.4305763 L24.9581188,98.4305763 Z"/>
      <polygon fill="#000000" points="47.414 95.178 43.422 95.178 43.422 115.942 53.152 115.942 53.152 112.44 47.414 112.44"/>
      <path fill="#000000" d="M73.6115842,111.689212 L75.3581188,115.942093 L79.599703,115.942093 L71.8650495,94.6776864 L68.6214851,94.6776864 L60.3878218,115.942093 L64.6290594,115.942093 L66.3759406,111.689212 L73.6115842,111.689212 L73.6115842,111.689212 Z M72.6135644,108.437356 L67.6234653,108.437356 L69.8690099,100.682102 L72.6135644,108.437356 L72.6135644,108.437356 Z"/>
      <polygon fill="#000000" points="87.085 115.942 91.326 115.942 91.326 101.933 102.305 116.442 105.299 116.442 105.299 95.178 101.057 95.178 101.057 109.188 90.079 94.678 87.085 94.678"/>
      <path fill="#000000" d="M122.764406,104.934636 L122.764406,108.186839 L127.255495,108.186839 C127.161931,110.800415 125.028663,113.014763 122.514901,112.940059 C118.545,113.014763 116.577723,109.168059 116.526782,105.685144 C116.577723,102.248788 118.517277,98.2356525 122.514901,98.1800593 C124.612822,98.2353051 126.386386,99.6744746 127.255495,101.432263 L130.748564,99.6810763 C129.212376,96.4365169 126.109158,94.6373814 122.514901,94.6776864 C116.328218,94.6377288 112.366287,99.7578644 112.285198,105.685144 C112.366287,111.464754 116.217673,116.612686 122.265396,116.692602 C128.796881,116.612686 131.816931,111.381712 131.746584,105.434975 L131.746584,104.934636 L122.764406,104.934636 L122.764406,104.934636 Z"/>
    </g>
  </g>
</svg>
