<svg xmlns="http://www.w3.org/2000/svg" width="140" height="140" viewBox="0 0 140 140">
  <path fill="#222222" d="M2.6481446,92.3088871 L2.6481446,46.8194931 L59.1860317,46.8194931 L59.1860317,44.1592947 L2.6481446,44.1592947 L2.6481446,2.66019848 L62.7610269,2.66019848 L62.7610269,0 L-3.55271368e-15,0 L-3.55271368e-15,94.9690859 L63.2906559,94.9690859 L63.2906559,92.3088871 L2.6481446,92.3088871 L2.6481446,92.3088871 Z M114.267439,26.6019848 L90.83136,57.593297 L67.9249089,26.6019848 L64.4823209,26.6019848 L89.2424726,59.5884458 L62.0989907,94.9690859 L65.2767643,94.9690859 L90.83136,61.5835946 L116.518362,94.9690859 L119.828543,94.9690859 L92.5526535,59.5884458 L117.445213,26.6019848 L114.267439,26.6019848 L114.267439,26.6019848 Z" transform="translate(10 23)"/>
</svg>
