<svg xmlns="http://www.w3.org/2000/svg" width="140" height="140" viewBox="0 0 140 140" xmlns:xlink="http://www.w3.org/1999/xlink">
  <defs>
    <path id="a" d="M25.7754617,20.4536796 L97.8097956,22.7693472 L97.8097956,22.7693472 C103.183299,22.9420877 107.520941,27.2170565 107.771865,32.5874767 L111.066379,103.098693 L111.066379,103.098693 C111.331989,108.783443 106.938908,113.607163 101.254158,113.872773 C101.121061,113.878991 100.987855,113.882628 100.854616,113.88368 L25.4686138,114.479121 L25.4686138,114.479121 C19.7778398,114.52407 15.1281176,109.947225 15.0831686,104.256451 C15.0829333,104.226649 15.0828272,104.196845 15.0828504,104.167042 L15.1400045,30.7447176 L15.1400045,30.7447176 C15.1444345,25.0537677 19.7614521,20.4439325 25.452402,20.4483625 C25.5601097,20.4484464 25.6678095,20.450219 25.7754617,20.4536796 Z"/>
    <filter id="b" width="101%" height="101.1%" x="-.5%" y="-.5%" filterUnits="objectBoundingBox">
      <feGaussianBlur stdDeviation=".5" in="SourceAlpha" result="shadowBlurInner1"/>
      <feOffset in="shadowBlurInner1" result="shadowOffsetInner1"/>
      <feComposite in="shadowOffsetInner1" in2="SourceAlpha" operator="arithmetic" k2="-1" k3="1" result="shadowInnerInner1"/>
      <feColorMatrix values="0 0 0 0 1 0 0 0 0 1 0 0 0 0 1 0 0 0 0.47826087 0" in="shadowInnerInner1"/>
    </filter>
    <linearGradient id="e" x1="50%" x2="50%" y1="0%" y2="100%">
      <stop stop-color="#FFFFFF" offset="0%"/>
      <stop stop-color="#FFFFFF" offset="48.973%"/>
      <stop stop-color="#D9F3FF" offset="100%"/>
    </linearGradient>
    <path id="d" d="M35.3557323,7.04265599 L110.734403,7.01562197 L110.734403,7.01565977 C115.856245,7.01382286 120.009812,11.1643954 120.01167,16.2862368 L120.03872,90.7574441 L120.03872,90.7574441 C120.040647,96.0689985 115.736343,100.376426 110.424788,100.378353 C110.413201,100.378357 110.401614,100.37834 110.390026,100.378302 L35.062677,100.133354 L35.062677,100.133354 C30.1451722,100.117363 26.1659016,96.1288996 26.1612586,91.211371 L26.0905477,16.3199193 L26.085119,16.3199244 C26.0802831,11.1980703 30.2284459,7.04206684 35.3503001,7.0372309 C35.3521102,7.03722919 35.3539202,7.03722801 35.3557303,7.03722736 Z"/>
    <filter id="c" width="116%" height="116.1%" x="-6.9%" y="-4.8%" filterUnits="objectBoundingBox">
      <feOffset dx="1" dy="3" in="SourceAlpha" result="shadowOffsetOuter1"/>
      <feGaussianBlur stdDeviation="2" in="shadowOffsetOuter1" result="shadowBlurOuter1"/>
      <feColorMatrix values="0 0 0 0 0 0 0 0 0 0 0 0 0 0 0 0 0 0 0.440019248 0" in="shadowBlurOuter1"/>
    </filter>
    <filter id="f" width="110.6%" height="110.7%" x="-4.3%" y="-2.1%" filterUnits="objectBoundingBox">
      <feGaussianBlur stdDeviation=".5" in="SourceAlpha" result="shadowBlurInner1"/>
      <feOffset dy="1" in="shadowBlurInner1" result="shadowOffsetInner1"/>
      <feComposite in="shadowOffsetInner1" in2="SourceAlpha" operator="arithmetic" k2="-1" k3="1" result="shadowInnerInner1"/>
      <feColorMatrix values="0 0 0 0 1 0 0 0 0 1 0 0 0 0 1 0 0 0 0.260869565 0" in="shadowInnerInner1"/>
    </filter>
  </defs>
  <g fill="none" fill-rule="evenodd" transform="translate(7 5)">
    <g transform="rotate(-24 63.09 67.46)">
      <use fill="#BFBFBF" xlink:href="#a"/>
      <use fill="black" filter="url(#b)" xlink:href="#a"/>
    </g>
    <g transform="rotate(-9 73.065 53.696)">
      <use fill="black" filter="url(#c)" xlink:href="#d"/>
      <use fill="url(#e)" xlink:href="#d"/>
      <use fill="black" filter="url(#f)" xlink:href="#d"/>
    </g>
    <g transform="rotate(-9 222.288 -302.388)">
      <polygon fill="#BFBFBF" points="18.979 18.531 37.962 18.531 37.962 0 .345 0 .345 .17 18.979 18.531"/>
      <polygon fill="#999999" points="18.983 18.531 0 18.531 0 37.062 37.617 37.062 37.617 36.892 18.983 18.531"/>
      <polygon fill="#BFBFBF" points="0 37.062 18.808 37.062 18.808 55.764"/>
    </g>
  </g>
</svg>
