<svg xmlns="http://www.w3.org/2000/svg" width="140" height="140" viewBox="0 0 140 140">
  <path fill="#BFBFBF" d="M69.2913503,131.25 L47.3805223,131.25 L47.3805223,87.0813672 C56.9495287,86.1073828 65.9105096,82.1851953 72.9118408,75.4345703 C89.4306879,59.4939844 90.5432102,18.6962891 74.9317452,1.44402344 L73.6222994,0 L12.3659236,0 L11.060586,1.44402344 C-4.54649682,18.6962891 -3.42521019,59.4980859 13.0936369,75.4345703 C20.0862038,82.1851953 29.0474586,86.1071094 38.616465,87.0813672 L38.616465,131.25 L16.7056369,131.25 C14.2833949,131.25 12.3234713,133.206719 12.3234713,135.625 C12.3234713,138.043281 14.2833949,140 16.7056369,140 L38.616465,140 L47.3807962,140 L69.2916242,140 C71.7138662,140 73.6737898,138.043281 73.6737898,135.625 C73.6737898,133.206719 71.7135924,131.25 69.2913503,131.25 Z M16.3673885,8.75 L69.6252166,8.75 C80.8717707,23.4516406 79.5962866,56.8194922 66.8178917,69.1411328 C53.9880064,81.5185547 32.0215796,81.5357812 19.187586,69.1455078 C6.4089172,56.8194922 5.12083439,23.4516406 16.3673885,8.75 Z M22.2345605,66.0009766 C15.8494713,59.8401563 12.7597707,47.1808203 13.1106178,35 L72.8860955,35 C73.2454331,47.1851953 70.1557325,59.8401563 63.7709172,65.9966016 C53.1663503,76.2376563 32.8432357,76.2376563 22.2345605,66.0009766 Z" transform="translate(27)"/>
</svg>
