<svg xmlns="http://www.w3.org/2000/svg" width="140" height="140" viewBox="0 0 140 140">
  <g fill="none" fill-rule="evenodd" transform="translate(0 2)">
    <polygon fill="#BFBFBF" points="5.833 5.812 134.167 5.812 134.167 130.188 5.833 130.188"/>
    <path fill="#F2F2F2" d="M0,0 L0,136 L140,136 L140,0 L0,0 Z M5.83333333,5.81196581 L134.166667,5.81196581 L134.166667,130.188034 L5.83333333,130.188034 L5.83333333,5.81196581 Z"/>
    <path fill="#F2F2F2" d="M48.5636667,77.008547 L43.9436667,94.4345641 C43.848,94.9134701 43.6549167,95.025641 43.078,95.025641 L34.51,95.025641 C33.9336667,95.025641 33.838,94.8338462 33.9336667,94.1625641 L50.4886667,36.3637265 C50.7774167,35.3088547 50.9699167,34.4010256 51.0661667,31.5241026 C51.0661667,31.1405128 51.2586667,30.9487179 51.548,30.9487179 L63.7711667,30.9487179 C64.1561667,30.9487179 64.3486667,31.0446154 64.4455,31.5241026 L83.0211667,94.2584615 C83.1174167,94.7373675 83.0211667,95.025641 82.5399167,95.025641 L72.9149167,95.025641 C72.43425,95.025641 72.1449167,94.9134701 72.04925,94.5298803 L67.23675,77.008547 L48.56425,77.008547 L48.5636667,77.008547 Z M64.8305,67.5641026 C63.19425,61.1389744 59.3436667,47.0565812 57.9005,40.2478632 L57.80425,40.2478632 C56.5524167,47.0565812 53.4724167,58.5497436 51.06675,67.5641026 L64.8305,67.5641026 Z M91.0758333,35.262359 C91.0758333,31.522359 93.6745833,29.3167179 97.0433333,29.3167179 C100.604583,29.3167179 103.010833,31.7141538 103.010833,35.262359 C103.010833,39.0982564 100.508333,41.208 96.9470833,41.208 C93.4820833,41.208 91.0758333,39.0982564 91.0758333,35.262359 L91.0758333,35.262359 Z M91.7291667,48.4747009 C91.7291667,47.9952137 91.9216667,47.8034188 92.4029167,47.8034188 L101.555417,47.8034188 C102.036667,47.8034188 102.229167,47.9952137 102.229167,48.4747009 L102.229167,94.354359 C102.229167,94.8338462 102.132917,95.025641 101.555417,95.025641 L92.4991667,95.025641 C91.9216667,95.025641 91.7291667,94.7373675 91.7291667,94.2584615 L91.7291667,48.4747009 Z"/>
  </g>
</svg>
