<svg xmlns="http://www.w3.org/2000/svg" width="140" height="140" viewBox="0 0 140 140">
  <g fill="none" transform="translate(8 13)">
    <rect width="11" height="85" x="24" y="25" fill="#BFBFBF"/>
    <rect width="11" height="85" x="90" y="25" fill="#BFBFBF"/>
    <path fill="#898989" d="M100.683251 106C105.256492 106 109 109.599466 109 114L81 114C81 109.599466 85.0210109 106 89.5942517 106L100.683251 106zM34.6 106C39.219019 106 43 109.599466 43 114L15 114C15 109.599466 18.780981 106 23.4 106L34.6 106z"/>
    <rect width="15" height="22" x="55" y="25" fill="#898989"/>
    <path fill="#9D9C9C" d="M7,8 L8.44914808,12.2042042 C9.16958169,14.291625 11.6207122,16 13.8951846,16 L110.107576,16 C112.382048,16 114.833179,14.291625 115.550852,12.2042042 L117,8 L7,8 Z"/>
    <rect width="97" height="8" x="14" y="44" fill="#BFBFBF"/>
    <path fill="#B3B2B2" d="M14,16 L14,22.8753442 C14,25.1441802 15.8756599,27 18.1687514,27 L106.831249,27 C109.12434,27 111,25.1441802 111,22.8753442 L111,16 L14,16 Z"/>
    <path fill="#BFBFBF" d="M115.070345,10 L9.92941288,10 C5.54166578,10 1.60030444,7.1335044 0.121703663,2.86692612 C-0.2649603,1.75160601 0.300313526,0.524782491 1.38391706,0.127086962 C2.4675206,-0.271752193 3.65945671,0.310924651 4.0458429,1.42624475 C4.93417002,3.98939387 7.29832016,5.71140694 9.92913511,5.71140694 L115.070067,5.71140694 C117.70116,5.71140694 120.065587,3.98882206 120.953637,1.42481522 C121.340023,0.30949512 122.531959,-0.272609912 123.615563,0.125085618 C124.699444,0.522781148 125.264996,1.74931876 124.878332,2.86492477 C123.400842,7.13264668 119.459203,10 115.070345,10 Z"/>
  </g>
</svg>
