<svg xmlns="http://www.w3.org/2000/svg" width="140" height="140" viewBox="0 0 140 140">
  <path fill="#BFBFBF" d="M39.0005904,111.401516 C38.7535043,111.112244 38.3168156,110.936785 37.8439215,110.936785 C37.4071864,110.936785 37.0841666,110.81814 37.0841666,110.657715 C37.0841666,110.234926 39.5636964,107.906535 41.200746,106.792065 C42.7584778,105.731597 45.7861401,104.198196 46.3222659,104.198196 C47.1319712,104.198196 48.4417825,103.636988 48.4418288,103.290043 C48.4418752,103.086608 48.1899447,102.031391 47.8820142,100.945084 C46.5296467,96.1742327 44.872501,90.2879124 44.6111599,89.3268269 C43.9785639,87.0003871 44.9574281,83.9888651 47.5189646,80.3807688 C49.4009679,77.7298078 56.5027924,70.5606692 59.9152924,67.8669066 C63.5401103,65.0055622 64.2309083,64.6954709 66.9723818,64.6988634 C69.5211235,64.7021165 70.9698454,65.0329812 73.0442791,66.0859207 C76.2865308,67.7315771 77.8728421,69.7600783 77.8766897,72.2653696 C77.8799348,74.4198593 76.6125407,77.8205464 74.8272162,80.4473182 C74.4177858,81.0497248 72.5428983,83.1110593 70.6608023,85.0280717 C65.8258421,89.9526792 62.9612427,93.2838891 62.1337129,94.9440451 L61.4219149,96.3719987 L61.4219149,103.523082 C61.4219149,107.607132 61.3249579,110.929791 61.1958752,111.270206 L60.9698123,111.866246 L50.1836699,111.866246 C39.6843421,111.866246 39.3869579,111.853931 39.0005904,111.401516 L39.0005904,111.401516 Z M63.9715838,106.632268 C63.9715838,106.437406 63.7108222,106.178575 63.3921136,106.057117 C63.073405,105.935637 62.8126434,105.738475 62.8126434,105.618993 C62.8126434,105.26287 64.5404381,103.181134 65.5674679,102.299843 C66.0929778,101.848892 67.3570109,101.029921 68.3764149,100.479889 C69.3958189,99.9298576 70.2298619,99.380407 70.2298619,99.2589265 C70.2298619,99.1374227 69.9555871,98.1561447 69.6203752,97.078319 C69.2851632,96.0005165 69.0782692,95.051119 69.1606003,94.9685829 C69.2429315,94.8860468 69.5954348,95.049748 69.9439281,95.3323505 C72.3247858,97.2630958 74.9834182,98.5869729 78.5569414,99.6212302 C79.6104877,99.9261398 80.5652924,100.322601 80.6787295,100.502266 C80.7921897,100.681907 80.8866202,102.150897 80.8885672,103.766694 C80.8915805,106.23339 80.8333321,106.727096 80.5254712,106.845532 C80.3238156,106.923096 76.5166964,106.986578 72.0652063,106.986578 C64.9670209,106.986578 63.9715838,106.942986 63.9715838,106.632268 Z M101.521253,102.56518 C95.9322394,102.044868 90.3322626,101.140619 86.4693983,100.134711 C83.1365407,99.2668269 77.7215308,97.2883771 75.320299,96.06128 C72.0898917,94.4104186 68.1381599,91.4838261 68.1497493,90.7508767 C68.1529944,90.5427472 68.6649447,90.0262924 69.2873189,89.603202 C70.5352195,88.7548601 74.5324513,84.7275074 75.2143255,83.6315107 C75.4520705,83.2494095 75.8382758,82.7184086 76.0725904,82.4514908 C76.306905,82.1845729 77.105554,80.7665646 77.8473917,79.3003406 C79.0681268,76.8875771 79.2352228,76.3754908 79.6075209,73.9064949 C80.0007725,71.2985912 80.0008652,71.130475 79.6098387,70.0866908 C79.0884546,68.6952186 78.6244844,68.0365099 77.1222427,66.5550427 C74.6802394,64.1468335 70.5959944,62.4904418 67.1007924,62.4908136 C64.443203,62.491046 63.1446103,62.9340269 60.5276301,64.732719 C57.9295639,66.5184451 56.9100672,67.3333729 54.2229712,69.7723007 C51.34815,72.3815522 50.5045573,73.0612667 50.1408586,73.0612667 C49.7208123,73.0612667 49.2385076,72.2486161 48.3241268,70.0002045 C46.6658454,65.9226377 46.0892725,60.0203771 47.059746,57.0568153 L47.5320142,55.614641 L46.9476301,54.2881613 C45.7217262,51.5055422 45.4161136,49.2114476 45.9021036,46.4400285 C46.3895076,43.6606626 46.6721732,43.4239057 48.6624679,44.1278792 C50.0895639,44.632646 52.9926401,44.8196999 54.2364844,44.487046 C58.6253917,43.3132767 61.5436964,40.3677696 62.4073387,36.2400352 C62.6377129,35.1389729 62.6160639,34.6125729 62.2703056,32.9096385 C61.5895904,29.5568186 60.170607,27.7061232 57.8080838,27.0897049 C54.7391169,26.2889978 53.7940242,26.2427339 48.7894646,26.6480949 L48.0941003,26.7044202 L48.1718421,25.278953 C48.3088288,22.7669464 47.6892593,22.1645398 44.6172791,21.82287 C42.9224215,21.6343754 40.8042957,21.1583522 40.1872526,20.8273016 C39.9365275,20.6927854 39.5838619,20.3064086 39.4035772,19.9686891 C38.9896268,19.1932634 39.3077328,18.6022427 40.1959911,18.4964468 C40.989448,18.4019207 44.269597,15.3388368 44.269597,14.6924202 C44.269597,14.3702227 44.1538421,14.2772999 43.8639679,14.366807 C43.1567361,14.5851837 40.4834778,15.3611439 39.4427493,15.6501364 C38.8914414,15.8032186 38.1197725,16.2356269 37.7278884,16.611036 C37.3360275,16.9864684 36.8932659,17.2936319 36.7439712,17.2936319 C36.2918454,17.2936319 33.9901666,15.4784186 33.4335043,14.6828236 C32.7962262,13.7720219 32.7230507,11.7348999 33.2776964,10.3452866 C33.6492758,9.41424598 34.1667195,9.05322025 35.9405474,8.4872717 C36.3951765,8.34222938 37.1830937,7.83318705 37.6914977,7.35609494 C39.0850772,6.04832066 41.6715076,3.97460116 42.3671268,3.60734805 C43.6563321,2.92668083 45.3516301,2.66011154 48.4083354,2.65736963 C51.7524116,2.65434888 53.5105937,2.97512896 55.3934315,3.93161361 C56.7396798,4.61551071 56.8028652,4.69446838 58.5231732,7.84285344 C60.4556599,11.3795904 62.7801003,15.3668136 67.2261897,22.7715705 C70.8134348,28.7459572 71.6137295,30.0630261 74.5577394,34.8372003 C75.2670109,35.9874078 76.1576103,37.4513082 76.5368619,38.0903124 C76.9161136,38.7293165 77.9837295,40.4546277 78.909352,41.9243373 C79.8349745,43.3940468 81.5202825,46.0913182 82.6544679,47.9182659 C87.6868884,56.0245331 95.7068255,68.4024617 98.0249844,71.6410277 C104.439928,80.6029099 105.641263,81.743358 109.642643,82.6695655 C113.614448,83.5889646 115.523594,83.3879688 119.282686,81.6547107 C124.311839,79.335846 126.939713,73.8173597 125.752193,68.0689016 C125.319653,65.9751057 124.853597,65.2493364 121.777422,61.8788335 C120.771461,60.7766327 119.791948,59.6639987 119.600723,59.4063057 C119.172216,58.8288551 114.62822,53.8210144 113.195978,52.3477497 C112.61922,51.754475 111.920796,50.9547439 111.643902,50.5705281 C111.367008,50.1863356 110.410325,49.0441215 109.517941,48.0322642 C108.625557,47.0204302 107.530359,45.7380534 107.084167,45.1825613 C106.637975,44.627046 105.746077,43.5359987 105.10217,42.7579937 C101.95917,38.9604269 100.373021,36.4043406 99.394597,33.5602377 C98.5436798,31.0867572 97.8126434,27.3550427 97.8126434,25.4848983 C97.8126434,22.1648883 98.9281235,18.123129 100.627802,15.2846028 C101.567657,13.7149995 104.115958,10.8961547 105.017637,10.4287057 C106.194703,9.81851485 108.011319,10.1186609 108.011319,10.9233646 C108.011319,11.116948 107.424385,13.282963 106.707024,15.7367622 C104.488905,23.3240186 104.390928,24.2259671 105.445031,27.352231 C106.405653,30.2012136 107.39008,31.9288949 109.292759,34.1051107 C111.128243,36.2044833 115.892021,40.8570609 117.232683,41.8597165 C117.706458,42.2140501 118.932061,43.2362012 119.956239,44.1311555 C120.980418,45.0261099 122.232074,46.0938974 122.737696,46.5040219 C123.243319,46.9141464 124.453276,47.9075074 125.426461,48.7114908 C128.389779,51.1595738 129.428398,51.9593746 129.973239,52.212792 C130.260077,52.3461929 130.494763,52.5342227 130.494763,52.630631 C130.494763,52.7270393 131.023448,53.194953 131.66958,53.6704651 C132.826305,54.5216651 133.691454,55.530641 135.902596,58.6070626 C137.573464,60.9318294 138.359666,62.6477066 139.099464,65.5841978 C140.646835,71.7264451 139.547024,77.9951223 135.484219,86.1898974 C132.780782,91.6427871 129.701236,95.5018609 126.197203,97.8277431 C122.865064,100.039534 117.502624,101.455869 108.243107,102.569804 C106.285216,102.805353 104.08469,102.803843 101.521253,102.565157 L101.521253,102.56518 Z M44.4921599,7.66163187 C44.6472493,7.47427585 44.7025772,7.10660448 44.6165374,6.83483021 C44.3899414,6.11909909 43.2559646,6.2801049 43.1483222,7.04328498 C43.027746,7.89822606 43.9463454,8.32089826 44.4921599,7.66163187 Z M100.999729,71.7427572 C99.6849811,69.9255223 99.2036036,69.0685829 99.2042295,68.5464352 C99.2065474,66.9987671 100.858872,65.4428037 102.18966,65.7358161 C102.662531,65.8399389 102.938799,65.7481315 103.273733,65.375348 C104.037498,64.5254493 104.629878,64.4326659 105.903832,64.9634344 C106.960554,65.4036734 107.065276,65.5170211 107.129667,66.2903788 C107.188402,66.9960485 107.295928,67.1473414 107.779531,67.2048518 C108.50709,67.2913613 109.633882,67.7255356 109.63372,67.9193281 C109.63365,67.99968 109.425041,68.6154941 109.170143,69.2878194 C108.915246,69.9601447 108.706683,70.707919 108.706683,70.949509 C108.706683,71.2018344 108.374925,71.5850277 107.927203,71.8498543 C107.498488,72.1034344 106.950888,72.7149962 106.710316,73.2088883 L106.272908,74.1069099 L104.534498,74.1663024 L102.796087,74.2256717 L100.999729,71.7427572 L100.999729,71.7427572 Z M96.1401301,63.1220568 C93.5911334,61.0913248 90.5955738,56.4635871 90.5435838,54.4761912 C90.5275904,53.863607 90.7089182,53.3628833 91.1629679,52.7661232 C92.0853454,51.5538045 92.5710805,51.3461398 93.4528023,51.7870991 C93.8501566,51.9858178 94.1971897,52.1484037 94.2240076,52.1484037 C94.2508255,52.1484037 94.5662195,51.7238958 94.9248884,51.2050476 C95.8347262,49.888885 96.39315,49.622246 96.9071169,50.2585547 C97.3898851,50.8562211 97.8706136,50.8834078 98.7497858,50.3627937 C99.2882526,50.043919 99.5204116,50.0214493 100.002438,50.2416153 C100.470372,50.455368 100.5941,50.6795074 100.5941,51.3135389 C100.5941,52.4565198 101.10167,52.8810974 102.248395,52.6972734 L103.174041,52.548885 L103.019531,53.9178875 C102.883193,55.1261165 102.922249,55.3388003 103.352077,55.7287555 C103.619955,55.9717862 103.839133,56.320729 103.839133,56.5042045 C103.839133,57.1775987 101.690713,59.3679887 100.416945,59.9932368 L99.1566666,60.6118858 L99.304501,61.7290974 L99.4523354,62.8463323 L98.3814745,63.306485 C97.0354811,63.8848883 97.1048089,63.8906045 96.1401301,63.1220568 L96.1401301,63.1220568 Z M87.903054,50.8612169 C87.6228454,50.6644734 86.2697593,48.8176817 84.8961831,46.7572302 C82.4935374,43.1531539 82.4001268,42.9662858 82.4356136,41.8349464 C82.4560109,41.188158 82.6556732,40.0525431 82.8795109,39.3113447 C83.2000043,38.2502493 83.4052063,37.9338609 83.8446997,37.8232783 C84.151703,37.7460402 84.5204083,37.8007389 84.6640474,37.9446659 C85.3517162,38.6340468 86.757395,38.0999788 88.2843917,36.5691804 C89.1124546,35.7390559 89.2505076,35.7291339 90.0924083,36.4393348 C90.7500606,36.9940833 90.75465,36.9944783 91.5588851,36.5652534 C92.8828354,35.858631 93.4429977,36.0203572 93.4997858,37.1255555 C93.5249811,37.6161945 93.9786831,37.9276335 95.5766765,38.551348 L96.4698487,38.8999422 L95.9823056,39.728324 C95.3300076,40.836636 95.3651003,41.1871821 96.2165738,42.0678692 L96.9383851,42.8144352 L96.1987725,43.1978609 C95.5030374,43.5585381 95.4684083,43.6363339 95.6154546,44.5088651 C95.872693,46.0351555 95.4615937,46.6468568 93.6351268,47.4556037 C92.0412825,48.1613431 92.0411434,48.1614825 92.1720573,48.9702294 C92.3313652,49.9543655 91.846905,50.3498277 89.8400374,50.8738576 C88.2540275,51.288002 88.5132361,51.2896983 87.903054,50.8613099 L87.903054,50.8612169 Z M5.62366301,43.4214194 C4.81697096,43.0628568 4.67428222,42.7157265 4.57850738,40.8786941 C4.51154381,39.5940866 4.62567626,39.6913315 1.56264315,38.3093398 C0.829613344,37.9786144 0.229861689,37.6010443 0.229861689,37.4702924 C0.229861689,37.0120684 1.20028884,35.8723406 1.89873586,35.5102692 C2.5443352,35.1755705 2.7481001,35.1787306 4.31088487,35.54768 L6.01788818,35.9506709 L6.90920606,35.3314642 C7.39943785,34.9908866 8.09387493,34.40528 8.45242791,34.0301032 L9.10433189,33.3479489 L8.37570606,32.5160352 C7.5406895,31.5626178 7.3971895,30.3023854 8.02185838,29.4083373 C8.27156368,29.0509597 8.35396434,28.608397 8.2688054,28.0822294 C8.1020107,27.0518526 8.42776566,25.9572269 9.12310672,25.2115439 C9.42999414,24.8823987 9.75999106,24.3517232 9.85643808,24.0322211 C10.2709679,22.6588966 10.6191599,22.4056651 12.0929613,22.4056651 C12.8515805,22.4056651 13.6694447,22.2998692 13.9104579,22.170558 C14.3763056,21.9206261 14.8290805,20.6283041 14.8312129,19.5424617 L14.8335308,18.8867505 L13.5007493,19.0470128 C12.7677195,19.1351721 11.2292262,19.3518294 10.0818752,19.5284734 C4.98666301,20.3129613 2.49350407,20.5842709 2.28656368,20.3768385 C1.97267626,20.0621464 2.67925904,17.5478393 3.25393123,16.9346045 C4.14082195,15.9882045 5.95899083,15.2054593 9.41872924,14.280553 C11.3132725,13.77409 13.8534149,13.0149763 15.0635341,12.5936518 L17.2637129,11.8275671 L17.6527692,10.6684833 C17.9932891,9.65402357 18.6168454,7.44044349 19.8409414,2.9006327 C20.3594745,0.977555519 20.664948,0.48654473 21.4901368,0.249694938 C22.5502891,-0.0545872199 23.4104778,0.531530622 23.4075805,1.55623768 C23.4052626,1.96863934 22.9339447,4.13595552 22.35765,6.37247004 C21.7813553,8.60898456 21.1867725,10.9893796 21.0363421,11.6622626 L20.7628553,12.8856883 L21.660246,13.6373663 C22.1538156,14.0507904 22.7404017,14.4936319 22.9637526,14.6214327 C23.7944116,15.0966891 27.8743917,18.8502692 28.9703321,20.1474709 C29.8183288,21.1512186 30.1445705,21.7530908 30.2604182,22.5276568 C30.4468685,23.7740169 30.2176997,25.1956501 29.8313089,25.189841 C29.6777262,25.1875173 29.0305507,24.8898576 28.3931334,24.5283671 C27.7557162,24.1668767 25.5653189,22.9201912 23.5255838,21.7579472 C20.6829348,20.1382227 19.7550407,19.7094161 19.5517394,19.9214958 C19.2986964,20.1854626 18.5421401,22.5497547 18.5421401,23.0765032 C18.5421401,23.2144352 19.0646368,23.5927256 19.7032593,23.9171306 C20.3972791,24.2696983 21.1488288,24.9022427 21.5715175,25.4895223 C22.8741666,27.2994841 23.0466864,27.5064518 23.4028752,27.6867671 C23.5978553,27.7854759 27.4601864,27.9328883 31.9858487,28.0143323 C43.6219579,28.2237398 54.3922228,28.6293563 55.6975838,28.907358 C56.3094116,29.0376451 57.098256,29.1442543 57.4505738,29.1442543 C58.6265738,29.1442543 59.8691434,30.9436667 60.3107924,33.2862792 C60.6730772,35.2078692 60.6320275,35.6589364 59.9611169,37.1280418 C58.796405,39.6784584 55.0840639,42.7006924 53.1395937,42.6814759 C51.5402791,42.665675 49.6360474,42.3245165 47.6743553,41.7023588 C46.5034546,41.3309929 43.9287295,40.7008883 41.9527361,40.3021497 C36.5562692,39.2131937 29.4895606,37.6150559 23.5070639,36.1306609 C18.3588884,34.8532568 18.1232063,34.8160783 17.2487858,35.1431788 C16.692054,35.3514476 15.5802361,35.4751356 14.3780209,35.4625414 C12.8233255,35.4462759 12.2665242,35.5345514 11.6965341,35.8876999 C10.5531467,36.5961115 8.380365,39.0128949 8.22847427,39.7452402 C8.15216964,40.1130277 7.91215308,41.145914 7.69508354,42.0405198 C7.25628553,43.8489945 6.98852394,44.0275904 5.62468288,43.4214194 L5.62366301,43.4214194 Z M81.1239017,36.6620103 C79.1580142,36.0196368 79.0452493,35.9014792 75.9749844,31.2680717 C74.2391467,28.64848 73.0398752,26.6164236 73.1145341,26.4213763 C73.1852526,26.236646 73.243107,25.8515007 73.243107,25.5654825 C73.243107,25.0264651 75.2359977,22.2579041 75.8868586,21.8927655 C76.1561036,21.7417049 76.4060639,21.846548 76.8047162,22.2777945 C77.6199844,23.1596667 78.1696235,23.0272418 79.3610142,21.6619339 L80.4155109,20.4534725 L80.9584977,20.9648385 C81.6379613,21.6047489 82.035895,21.6065846 83.104044,20.9748302 C83.7683023,20.581924 84.084693,20.5203705 84.5659778,20.690392 C85.0910705,20.8758659 85.180193,21.0413563 85.180193,21.8307937 L85.180193,22.754236 L86.6105109,23.2189663 C87.3971765,23.474568 88.1129613,23.7564501 88.2011334,23.8453763 C88.2893288,23.9343024 88.193948,24.4996236 87.9894414,25.1016584 C87.5721533,26.3293597 87.6816268,26.5998559 88.7806036,27.0561746 C89.7012659,27.438485 89.6481632,27.759753 88.5131434,28.6741563 C87.5615142,29.4407987 87.5585242,29.4481879 87.7028818,30.6794443 C87.8709745,32.1131605 87.8112195,32.1716468 85.6989811,32.6407223 C83.9913752,33.0199422 83.8008917,33.2518194 84.2708189,34.3793248 C84.5465308,35.0408219 84.5790507,35.3971771 84.3997162,35.7917563 C84.0647593,36.5287024 82.2176632,37.0194344 81.1239017,36.6620335 L81.1239017,36.6620103 Z M69.4272957,20.5336385 C68.1270805,19.8834111 67.3253719,19.0405995 66.7650474,17.7348236 L66.2798222,16.6041115 L67.0988222,14.973768 C67.9737526,13.2320285 68.1012825,13.1606227 69.747395,13.4906742 C70.2391566,13.5892667 70.5966434,13.860553 70.8293818,14.3117597 C71.0570209,14.7530676 71.4203719,15.034392 71.8822791,15.1270128 C72.7616136,15.3033082 72.8992262,15.6450244 72.5356897,16.749363 C72.272703,17.5481414 72.2897626,17.6452003 72.7463387,17.9491107 C73.6626666,18.559046 73.198395,19.9651339 71.8498288,20.664251 C70.9797427,21.1152949 70.5433785,21.0917796 69.4272957,20.5336385 Z" transform="translate(0 14)"/>
</svg>
