<svg xmlns="http://www.w3.org/2000/svg" width="140" height="140" viewBox="0 0 140 140">
  <g fill="none" fill-rule="evenodd" transform="translate(11 5)">
    <path d="M77.767619,35.9190751 L70.0133333,51.6242775 C72.5606349,53.9913295 74.3587302,57.1098266 75.0704762,60.6416185 L80.9142857,60.6416185 C81.5885714,57.2976879 83.2368254,54.2919075 85.5968254,51.9624277 L77.767619,35.9190751 Z"/>
    <path d="M63.4952381 47.8294798L77.767619 18.8988439 92.0025397 48.017341C92.5644444 47.8294798 93.1263492 47.6791908 93.688254 47.5289017L107.211429 7.51445087 48.2863492 7.51445087 61.7720635 47.416185C62.3339683 47.5289017 62.9333333 47.6791908 63.4952381 47.8294798zM58.5879365 73.416185C63.7949206 73.416185 68.0279365 69.1705202 68.0279365 63.9479769 68.0279365 62.0317919 67.4660317 60.265896 66.4920635 58.7630058 66.192381 58.2745665 65.8177778 57.8236994 65.4431746 57.4104046 65.4431746 57.4104046 65.4057143 57.3728324 65.4057143 57.3728324 65.0311111 56.9595376 64.5815873 56.583815 64.1320635 56.283237 64.1320635 56.283237 64.0946032 56.2456647 64.0946032 56.2456647 63.9822222 56.1705202 63.832381 56.0578035 63.6825397 55.982659 63.6450794 55.982659 63.6450794 55.9450867 63.607619 55.9450867 63.4577778 55.8699422 63.3079365 55.7572254 63.1580952 55.6820809 63.1580952 55.6820809 63.1580952 55.6820809 63.1206349 55.6820809 62.9707937 55.6069364 62.7834921 55.4942197 62.6336508 55.4190751 62.6336508 55.4190751 62.5961905 55.4190751 62.5961905 55.4190751 62.4463492 55.3439306 62.2965079 55.2687861 62.1466667 55.2312139 62.1092063 55.2312139 62.071746 55.1936416 62.0342857 55.1936416 61.9219048 55.1560694 61.7720635 55.0809249 61.6596825 55.0433526 61.6222222 55.0433526 61.5847619 55.0057803 61.5098413 55.0057803 61.36 54.9682081 61.2101587 54.8930636 61.0603175 54.8554913 61.0228571 54.8554913 61.0228571 54.8554913 61.0228571 54.8554913 60.8355556 54.8179191 60.6857143 54.7803468 60.4984127 54.7427746 60.4609524 54.7427746 60.4234921 54.7427746 60.3485714 54.7052023 60.1987302 54.6676301 60.0863492 54.6676301 59.9365079 54.6300578 59.8615873 54.6300578 59.824127 54.6300578 59.7492063 54.5924855 59.6368254 54.5924855 59.4869841 54.5549133 59.3746032 54.5549133 59.2996825 54.5549133 59.2622222 54.5549133 59.1873016 54.5549133 59 54.5549133 58.8126984 54.5549133 58.6253968 54.5549133 58.4380952 54.5549133 58.2507937 54.5549133 58.0634921 54.5549133 58.0260317 54.5549133 57.9511111 54.5549133 57.9136508 54.5549133 57.7638095 54.5549133 57.6514286 54.5924855 57.5015873 54.5924855 57.464127 54.5924855 57.4266667 54.5924855 57.351746 54.5924855 57.2019048 54.6300578 57.0520635 54.6300578 56.9022222 54.6676301 56.8647619 54.6676301 56.8273016 54.6676301 56.7898413 54.6676301 56.6025397 54.7052023 56.4526984 54.7427746 56.2653968 54.7803468 52.1447619 55.7947977 49.0730159 59.5520231 49.0730159 63.9855491 49.1479365 69.132948 53.3809524 73.416185 58.5879365 73.416185zM98.295873 54.4797688C98.2584127 54.4797688 98.2584127 54.4797688 98.2209524 54.4797688 98.0711111 54.4797688 97.9587302 54.4421965 97.8088889 54.4421965 97.6590476 54.4421965 97.5092063 54.4421965 97.3219048 54.4421965 97.1346032 54.4421965 96.9473016 54.4421965 96.7225397 54.4797688 96.647619 54.4797688 96.6101587 54.4797688 96.5352381 54.4797688 96.3853968 54.4797688 96.2355556 54.517341 96.0857143 54.517341 96.048254 54.517341 95.9733333 54.517341 95.935873 54.5549133 95.7485714 54.5924855 95.5612698 54.6300578 95.3739683 54.6676301 95.3739683 54.6676301 95.3365079 54.6676301 95.3365079 54.6676301 95.1492063 54.7052023 94.9993651 54.7427746 94.8120635 54.7803468 94.7746032 54.7803468 94.6996825 54.8179191 94.6622222 54.8179191 94.512381 54.8554913 94.3625397 54.8930636 94.2126984 54.9682081 94.1752381 54.9682081 94.1377778 55.0057803 94.1003175 55.0057803 93.9130159 55.0809249 93.7257143 55.1560694 93.575873 55.2312139 93.575873 55.2312139 93.575873 55.2312139 93.575873 55.2312139 93.3885714 55.3063584 93.2387302 55.3815029 93.0514286 55.4566474 93.0139683 55.4566474 92.9765079 55.4942197 92.9390476 55.4942197 92.7892063 55.5693642 92.6393651 55.6445087 92.4895238 55.7572254 92.4895238 55.7572254 92.4520635 55.7572254 92.4520635 55.7947977 92.1149206 55.982659 91.7777778 56.2080925 91.4780952 56.4710983 91.4780952 56.4710983 91.4406349 56.5086705 91.4406349 56.5086705 90.9536508 56.8843931 90.5415873 57.2976879 90.1295238 57.7485549 90.1295238 57.7485549 90.1295238 57.7485549 90.1295238 57.7485549 89.7174603 58.199422 89.3803175 58.7254335 89.0806349 59.2514451 88.2939683 60.6416185 87.8444444 62.2572254 87.8444444 63.9479769 87.8444444 69.1705202 92.0774603 73.416185 97.2844444 73.416185 102.491429 73.416185 106.724444 69.1705202 106.724444 63.9479769 106.724444 59.3641618 103.427937 55.4942197 99.12 54.6300578 98.8952381 54.5549133 98.5955556 54.517341 98.295873 54.4797688zM19.4419048 73.416185C24.6488889 73.416185 28.8819048 69.1705202 28.8819048 63.9479769 28.8819048 58.7254335 24.6488889 54.4797688 19.4419048 54.4797688 14.2349206 54.4797688 10.0019048 58.7254335 10.0019048 63.9479769 10.0019048 69.1705202 14.2349206 73.416185 19.4419048 73.416185z"/>
    <path d="M97.3593651,80.7427746 C89.567619,80.7427746 83.0120635,75.3699422 81.1390476,68.1560694 L74.8457143,68.1560694 C72.9726984,75.3699422 66.4171429,80.7427746 58.6253968,80.7427746 C57.7263492,80.7427746 56.8647619,80.6676301 56.0406349,80.5549133 C53.8679365,83.8988439 51.2831746,86.9797688 48.2488889,89.8352601 C42.8920635,94.9075145 36.8234921,98.6647399 30.2679365,101.031792 L28.7320635,101.595376 L27.3085714,100.843931 C19.4419048,96.7861272 15.3961905,88.5578035 16.8196825,80.5924855 C15.9206349,80.4421965 15.0590476,80.216763 14.2349206,79.916185 C14.0850794,80.1791908 13.9726984,80.4797688 13.8228571,80.7803468 C11.4253968,85.7398844 8.91555556,90.849711 8.01650794,96.3352601 C7.04253968,102.196532 6.63047619,112.904624 14.871746,118.615607 C18.4679365,121.095376 22.2514286,122.33526 26.4844444,122.33526 C34.6133333,122.33526 43.3790476,117.976879 52.6692063,113.355491 C59.9365079,109.748555 67.4285714,105.991329 75.2203175,104.075145 C78.1796825,103.361272 81.1765079,102.910405 84.0609524,102.49711 C89.3428571,101.745665 94.3625397,100.99422 98.4457143,98.6271676 C102.791111,96.1098266 105.750476,91.9017341 106.574603,87.0924855 C107.099048,84.1618497 106.799365,81.1936416 105.825397,78.4508671 C103.353016,79.8786127 100.468571,80.7427746 97.3593651,80.7427746 Z"/>
    <path fill="#99425B" fill-rule="nonzero" d="M114.104127,63.9104046 C114.104127,56.0953757 108.747302,49.5202312 101.554921,47.6416185 L117.662857,0 L37.8349206,0 L53.9803175,47.7919075 C47.0126984,49.8208092 41.8806349,56.283237 41.8806349,63.9479769 C41.8806349,69.583815 44.6901587,74.5809249 48.9606349,77.6618497 C47.2749206,80.066474 45.3269841,82.283237 43.1168254,84.3872832 C38.9587302,88.2947977 34.3511111,91.300578 29.3688889,93.2919075 C24.8736508,90.2485549 22.9257143,84.8757225 24.6863492,80.066474 C31.5415873,77.9624277 36.5238095,71.5375723 36.5238095,63.9855491 C36.5238095,54.7052023 28.9942857,47.1907514 19.7790476,47.1907514 C10.5263492,47.1907514 2.9968254,54.7427746 2.9968254,64.0231214 C2.9968254,68.6069364 4.86984127,72.8150289 7.86666667,75.8208092 C7.60444444,76.3468208 7.34222222,76.8728324 7.08,77.4364162 C4.57015873,82.6213873 1.7231746,88.482659 0.636825397,95.0578035 C-1.53587302,108.208092 2.02285714,118.765896 10.6012698,124.739884 C15.4336508,128.083815 20.7530159,129.774566 26.4844444,129.774566 C36.3365079,129.774566 46.3384127,124.815029 56.0031746,120.00578 C62.895873,116.586705 70.0133333,113.017341 77.0184127,111.289017 C79.6031746,110.650289 82.3003175,110.274566 85.1473016,109.861272 C90.9161905,109.034682 96.872381,108.17052 102.229206,105.052023 C108.485079,101.407514 112.755556,95.3208092 113.991746,88.3323699 C114.928254,82.9595376 113.991746,77.5491329 111.594286,72.8150289 C113.205079,70.2225434 114.104127,67.1791908 114.104127,63.9104046 Z M106.799365,63.9104046 C106.799365,69.132948 102.566349,73.3786127 97.3593651,73.3786127 C92.152381,73.3786127 87.9193651,69.132948 87.9193651,63.9104046 C87.9193651,62.2196532 88.3688889,60.6040462 89.1555556,59.2138728 C89.4552381,58.6878613 89.8298413,58.1618497 90.2044444,57.7109827 C90.2044444,57.7109827 90.2044444,57.7109827 90.2044444,57.7109827 C90.5790476,57.2601156 91.0285714,56.8468208 91.5155556,56.4710983 C91.5155556,56.4710983 91.5530159,56.433526 91.5530159,56.433526 C91.8526984,56.2080925 92.1898413,55.982659 92.5269841,55.7572254 C92.5269841,55.7572254 92.5644444,55.7572254 92.5644444,55.7196532 C92.7142857,55.6445087 92.864127,55.5317919 93.0139683,55.4566474 C93.0514286,55.4566474 93.0888889,55.4190751 93.1263492,55.4190751 C93.2761905,55.3439306 93.4634921,55.2687861 93.6507937,55.1936416 C93.6507937,55.1936416 93.6507937,55.1936416 93.6507937,55.1936416 C93.8380952,55.1184971 94.0253968,55.0433526 94.1752381,54.9682081 C94.2126984,54.9682081 94.2501587,54.9306358 94.287619,54.9306358 C94.4374603,54.8930636 94.5873016,54.8179191 94.7371429,54.7803468 C94.7746032,54.7803468 94.8495238,54.7427746 94.8869841,54.7427746 C95.0742857,54.7052023 95.224127,54.6676301 95.4114286,54.6300578 C95.4114286,54.6300578 95.4488889,54.6300578 95.4488889,54.6300578 C95.6361905,54.5924855 95.8234921,54.5549133 96.0107937,54.517341 C96.048254,54.517341 96.1231746,54.517341 96.1606349,54.4797688 C96.3104762,54.4797688 96.4603175,54.4421965 96.6101587,54.4421965 C96.6850794,54.4421965 96.7225397,54.4421965 96.7974603,54.4421965 C96.9847619,54.4421965 97.1720635,54.4046243 97.3968254,54.4046243 C97.5466667,54.4046243 97.6965079,54.4046243 97.8838095,54.4046243 C98.0336508,54.4046243 98.1460317,54.4046243 98.295873,54.4421965 C98.3333333,54.4421965 98.3333333,54.4421965 98.3707937,54.4421965 C98.6704762,54.4797688 98.9701587,54.517341 99.2698413,54.5924855 C103.540317,55.4942197 106.799365,59.3265896 106.799365,63.9104046 Z M48.2863492,7.51445087 L107.211429,7.51445087 L93.688254,47.5289017 C93.1263492,47.6416185 92.5644444,47.8294798 92.0025397,48.017341 L77.767619,18.8988439 L63.4952381,47.8294798 C62.9333333,47.6416185 62.3339683,47.5289017 61.7346032,47.416185 L48.2863492,7.51445087 Z M75.0704762,60.6416185 C74.3587302,57.1098266 72.5606349,53.9537572 70.0133333,51.6242775 L77.767619,35.9190751 L85.5968254,51.9624277 C83.2742857,54.2919075 81.5885714,57.2601156 80.9142857,60.6416185 L75.0704762,60.6416185 Z M56.3028571,54.7052023 C56.4901587,54.6676301 56.64,54.6300578 56.8273016,54.5924855 C56.8647619,54.5924855 56.9022222,54.5924855 56.9396825,54.5924855 C57.0895238,54.5549133 57.2393651,54.5549133 57.3892063,54.517341 C57.4266667,54.517341 57.464127,54.517341 57.5390476,54.517341 C57.6888889,54.517341 57.8012698,54.4797688 57.9511111,54.4797688 C57.9885714,54.4797688 58.0634921,54.4797688 58.1009524,54.4797688 C58.288254,54.4797688 58.4755556,54.4797688 58.6628571,54.4797688 C58.8501587,54.4797688 59.0374603,54.4797688 59.2247619,54.4797688 C59.2996825,54.4797688 59.3371429,54.4797688 59.4120635,54.4797688 C59.5619048,54.4797688 59.6742857,54.517341 59.7866667,54.517341 C59.8615873,54.517341 59.8990476,54.517341 59.9739683,54.5549133 C60.1238095,54.5924855 60.2361905,54.5924855 60.3860317,54.6300578 C60.4234921,54.6300578 60.4609524,54.6300578 60.535873,54.6676301 C60.7231746,54.7052023 60.9104762,54.7427746 61.0603175,54.7803468 C61.0977778,54.7803468 61.0977778,54.7803468 61.0977778,54.7803468 C61.247619,54.8179191 61.3974603,54.8554913 61.5473016,54.9306358 C61.5847619,54.9306358 61.6222222,54.9682081 61.6971429,54.9682081 C61.8095238,55.0057803 61.9593651,55.0433526 62.071746,55.1184971 C62.1092063,55.1184971 62.1466667,55.1560694 62.184127,55.1560694 C62.3339683,55.2312139 62.4838095,55.2687861 62.6336508,55.3439306 C62.6336508,55.3439306 62.6711111,55.3439306 62.6711111,55.3439306 C62.8584127,55.4190751 63.008254,55.4942197 63.1580952,55.6069364 C63.1580952,55.6069364 63.1580952,55.6069364 63.1955556,55.6069364 C63.3453968,55.6820809 63.4952381,55.7947977 63.6450794,55.8699422 C63.6825397,55.8699422 63.6825397,55.9075145 63.72,55.9075145 C63.8698413,55.982659 63.9822222,56.0953757 64.1320635,56.1705202 C64.1320635,56.1705202 64.1695238,56.2080925 64.1695238,56.2080925 C64.6190476,56.5462428 65.0311111,56.9219653 65.4431746,57.2976879 C65.4431746,57.2976879 65.4806349,57.3352601 65.4806349,57.3352601 C65.8552381,57.7485549 66.2298413,58.199422 66.5295238,58.6878613 C67.5034921,60.1907514 68.0653968,61.9566474 68.0653968,63.8728324 C68.0653968,69.0953757 63.832381,73.3410405 58.6253968,73.3410405 C53.4184127,73.3410405 49.1853968,69.0953757 49.1853968,63.8728324 C49.1479365,59.4768786 52.1822222,55.7572254 56.3028571,54.7052023 Z M19.4419048,54.4421965 C24.6488889,54.4421965 28.8819048,58.6878613 28.8819048,63.9104046 C28.8819048,69.132948 24.6488889,73.3786127 19.4419048,73.3786127 C14.2349206,73.3786127 10.0019048,69.132948 10.0019048,63.9104046 C10.0019048,58.6878613 14.2349206,54.4421965 19.4419048,54.4421965 Z M106.574603,87.017341 C105.750476,91.8265896 102.791111,96.0346821 98.4457143,98.5520231 C94.3625397,100.919075 89.3428571,101.67052 84.0609524,102.421965 C81.1765079,102.83526 78.1422222,103.286127 75.2203175,104 C67.4285714,105.916185 59.9365079,109.67341 52.6692063,113.280347 C43.3790476,117.901734 34.6133333,122.260116 26.4844444,122.260116 C22.2514286,122.260116 18.4679365,121.057803 14.871746,118.540462 C6.63047619,112.82948 7.04253968,102.121387 8.01650794,96.2601156 C8.91555556,90.7745665 11.4253968,85.6271676 13.8228571,80.7052023 C13.9726984,80.4046243 14.0850794,80.1416185 14.2349206,79.8410405 C15.0590476,80.1416185 15.9206349,80.367052 16.8196825,80.517341 C15.3961905,88.482659 19.4419048,96.7109827 27.3085714,100.768786 L28.7320635,101.520231 L30.2679365,100.956647 C36.8234921,98.6271676 42.8920635,94.8323699 48.2488889,89.7601156 C51.2831746,86.9046243 53.8679365,83.8236994 56.0406349,80.4797688 C56.9022222,80.6300578 57.7638095,80.6676301 58.6253968,80.6676301 C66.4171429,80.6676301 72.9726984,75.2947977 74.8457143,68.0809249 L81.1390476,68.0809249 C83.0120635,75.3323699 89.567619,80.6676301 97.3593651,80.6676301 C100.468571,80.6676301 103.353016,79.8034682 105.825397,78.3381503 C106.799365,81.1560694 107.099048,84.0867052 106.574603,87.017341 Z"/>
  </g>
</svg>
