<svg xmlns="http://www.w3.org/2000/svg" width="140" height="140" viewBox="0 0 140 140">
  <g fill="none" transform="translate(9)">
    <path fill="#8D6748" d="M119.249941,107.653746 L65.2500586,138.894914 C62.9321739,140.246343 60.0678261,140.246343 57.7499414,138.894914 L3.75005859,107.653746 C1.42507031,106.301856 0,103.824192 0,101.195464 L0,38.7131271 C0,36.0098282 1.42507031,33.6067354 3.75005859,32.2548454 L57.7499414,1.01367698 C60.0678261,-0.337751629 62.9321739,-0.337751629 65.2500586,1.01367698 L119.249941,32.2548454 C121.57541,33.6067354 123,36.0848797 123,38.7131271 L123,101.195464 C122.925047,103.823711 121.499977,106.301856 119.249941,107.653746 Z"/>
    <path fill="#FFFFFF" d="M61.4250469,9.50027491 C60.3002695,9.50027491 59.1750117,9.8004811 58.2001406,10.4013746 L11.5499883,37.3617182 C9.5248125,38.4884536 8.32508203,40.6659107 8.32508203,42.9184192 L8.32508203,96.8395876 C8.32508203,99.1676289 9.5248125,101.270515 11.5499883,102.397251 L58.2001406,129.357595 C59.1750117,129.958488 60.2997891,130.258694 61.4250469,130.258694 C62.5493437,130.258694 63.675082,129.958488 64.6499531,129.357595 L111.300105,102.39677 C113.325281,101.270515 114.525012,99.0925773 114.525012,96.8400687 L114.525012,42.9184192 C114.525012,40.5908591 113.325281,38.4884536 111.300105,37.3617182 L64.6499531,10.4008935 C63.6746016,9.8004811 62.5498242,9.50027491 61.4250469,9.50027491 Z M61.4250469,11.7532646 C62.1745781,11.7532646 62.8501172,11.9784192 63.5246953,12.3541581 L110.174848,39.3145017 C111.450012,40.0650172 112.274496,41.4924399 112.274496,42.994433 L112.274496,96.9151203 C112.274496,98.4171134 111.450012,99.8435739 110.174848,100.59457 L63.5251758,127.554914 C62.8501172,127.930172 62.1750586,128.155808 61.4250469,128.155808 C60.6830683,128.152726 59.9563373,127.944626 59.324918,127.554433 L12.6747656,100.595052 C11.3996016,99.844055 10.5746367,98.4175945 10.5746367,96.9156014 L10.5746367,42.994433 C10.5746367,41.4924399 11.3996016,40.0654983 12.6742852,39.3140206 L59.3244375,12.3541581 C59.9994961,11.9784192 60.7495078,11.7527835 61.4240859,11.7527835 L61.4250469,11.7532646 Z M57.1123594,58.7648797 L63.4122656,58.7648797 C63.6376055,58.7648797 63.7875117,58.6893471 63.937418,58.539244 C67.6874766,54.3339519 68.0627227,45.5471478 68.0627227,42.9189003 C68.0627227,42.5436426 67.7624297,42.1679038 67.3127109,42.1679038 L53.2123945,42.1679038 C52.8376289,42.1679038 52.4623828,42.46811 52.4623828,42.9189003 C52.4623828,45.4720962 52.8376289,54.2589003 56.5876875,58.539244 C56.7375937,58.6893471 56.8875,58.7648797 57.1123594,58.7648797 L57.1123594,58.7648797 Z M55.3874766,44.495945 L65.2875352,44.495945 C65.6623008,44.495945 66.0375469,44.7961512 66.0375469,45.2469416 C66.0375469,47.3498282 65.6623008,53.282268 63.1124531,56.3613058 C62.8875938,56.51189 62.7376875,56.5869416 62.5123477,56.5869416 L58.0877109,56.5869416 C57.8623711,56.5869416 57.7124648,56.51189 57.5625586,56.3613058 C55.0122305,53.3578007 54.712418,47.3498282 54.6374648,45.2469416 C54.6374648,44.8716838 54.9372773,44.495945 55.3874766,44.495945 Z M61.6873828,40.6663918 C61.6873828,40.6663918 64.3876172,39.088866 62.737207,36.2354639 C61.7623359,34.7329897 61.3126172,33.4566323 61.6873828,32.9307904 C60.7125117,34.1325773 59.062582,35.4089347 60.862418,38.1127148 C61.4630039,38.7886598 61.7623359,40.2151203 61.6873828,40.6659107 L61.6873828,40.6663918 Z M58.6873359,40.8910653 C58.6873359,40.8910653 60.4871719,39.8398625 59.3623945,37.887079 C58.6873359,36.9109278 58.3875234,36.0098282 58.6873359,35.7091409 C58.0122773,36.535189 56.9624531,37.3612371 58.1621836,39.2389691 C58.5374297,39.6142268 58.6873359,40.5908591 58.6873359,40.8910653 Z M58.4624766,55.6858419 L62.2125352,55.6858419 C62.3624414,55.6858419 62.5123477,55.6107904 62.6622539,55.4606873 C63.937418,53.9586942 64.5375234,51.6306529 64.8373359,49.6028179 C64.8373359,49.6028179 64.7623828,50.2787629 62.9625469,50.9547079 C60.4881328,51.8558076 56.1374883,51.2549141 56.1374883,51.2549141 C56.5122539,52.8319588 57.1128398,54.3339519 58.0122773,55.4606873 C58.0872305,55.6107904 58.3125703,55.6858419 58.4624766,55.6858419 Z M30.2623242,76.7883162 L30.2623242,61.768866 L27.4876172,61.768866 L22.9125937,68.8280412 L18.3375703,61.768866 L15.5623828,61.768866 L15.5623828,76.8633677 L18.1871836,76.8633677 L18.1871836,66.1242612 L22.8371602,73.1083849 L22.9121133,73.1083849 L27.6375234,66.0492096 L27.6375234,76.7883162 L30.2623242,76.7883162 Z M47.062875,62.0690722 C46.0875234,61.6938144 45.0376992,61.4681787 43.9129219,61.4681787 C42.7876641,61.4681787 41.7378398,61.6182818 40.7624883,62.0695533 C39.7871367,62.444811 38.9626523,63.0452234 38.2875937,63.7211684 C37.5786888,64.4292807 37.0177933,65.2717288 36.6376641,66.1993127 C36.2628984,67.175945 36.0370781,68.1516151 36.0370781,69.203299 L36.0370781,69.2783505 C36.0370781,70.3295533 36.2628984,71.3812371 36.6376641,72.2823368 C37.0124297,73.2589691 37.537582,74.0845361 38.2126406,74.7604811 C38.8876992,75.4364261 39.7126641,76.0373196 40.6870547,76.4125773 C41.6624063,76.7883162 42.7127109,77.0139519 43.8374883,77.0139519 C44.9627461,77.0139519 46.0125703,76.8633677 46.9879219,76.4125773 C47.962793,76.0373196 48.7877578,75.4364261 49.4623359,74.7604811 C50.1713605,74.0525538 50.7324184,73.2102707 51.1127461,72.2828179 C51.4875117,71.3061856 51.7128516,70.3295533 51.7128516,69.2783505 L51.7128516,69.203299 C51.7128516,68.1516151 51.4870313,67.1008935 51.1122656,66.1993127 C50.7375,65.2231615 50.2128281,64.3971134 49.5377695,63.7216495 C48.8627109,63.0452234 48.0377461,62.4443299 47.062875,62.0690722 L47.062875,62.0690722 Z M48.8627109,69.3534021 C48.8627109,70.0293471 48.7128047,70.7052921 48.4874648,71.3812371 C48.1876523,71.9816495 47.8878398,72.582543 47.4376406,73.0333333 C46.9769624,73.4916047 46.4450544,73.8719682 45.8626641,74.1595876 C45.2620781,74.4602749 44.5875,74.610378 43.8374883,74.610378 C43.1629102,74.610378 42.4128984,74.4602749 41.812793,74.1595876 C41.2304365,73.8721143 40.6985305,73.4919148 40.2378164,73.0338144 C39.7876172,72.5074914 39.4128516,71.9816495 39.1875117,71.3066667 C38.9626523,70.6302405 38.8127461,69.9547766 38.8127461,69.203299 L38.8127461,69.1282474 C38.8127461,68.4523024 38.9626523,67.7763574 39.1875117,67.1004124 C39.4878047,66.4995189 39.7876172,65.8991065 40.2378164,65.4483162 C40.6984752,64.9898933 41.2303818,64.6093682 41.812793,64.3215808 C42.4128984,64.0213746 43.0874766,63.8712715 43.8374883,63.8712715 C44.5870195,63.8712715 45.2625586,64.0213746 45.8626641,64.3215808 C46.4450752,64.6093682 46.9769818,64.9898933 47.4376406,65.4483162 C47.8878398,65.9741581 48.2626055,66.4995189 48.4874648,67.1754639 C48.7128047,67.8514089 48.8622305,68.527354 48.8622305,69.2783505 L48.8622305,69.3534021 L48.8627109,69.3534021 Z M59.9625,67.1004124 C60.2623125,66.4995189 60.5626055,65.8986254 61.0123242,65.4483162 C61.473164,64.9901078 62.0050337,64.6096092 62.5873008,64.3215808 C63.1874063,64.0213746 63.7875117,63.8712715 64.5375234,63.8712715 C65.4374414,63.8712715 66.1874531,64.0213746 66.8625117,64.3966323 C67.5375703,64.7723711 68.1376758,65.2231615 68.7373008,65.7485223 L70.4626641,63.7962199 C70.087418,63.4209622 69.7126523,63.1202749 69.3374063,62.8195876 C68.9626406,62.5193814 68.5124414,62.2942268 68.0627227,62.0690722 C67.5375703,61.918488 67.0873711,61.7683849 66.4872656,61.6182818 C65.8876406,61.5432302 65.2875352,61.4681787 64.6124766,61.4681787 C63.4122656,61.4681787 62.4373945,61.6933333 61.4625234,62.0685911 C60.4876523,62.4443299 59.6626875,63.0452234 58.9876289,63.7211684 C58.3256304,64.4514582 57.7929885,65.2895429 57.4126523,66.1993127 C57.0195909,67.1520874 56.8157556,68.1724389 56.8125469,69.203299 L56.8125469,69.2783505 C56.8125469,70.3295533 57.0374063,71.3057045 57.4126523,72.2823368 C57.787418,73.2589691 58.3125703,74.0845361 58.9876289,74.7604811 C59.6626875,75.4364261 60.4876523,76.0373196 61.3875703,76.4125773 C62.3368441,76.8135885 63.35733,77.0181501 64.3876172,77.0139519 C65.0626758,77.0139519 65.7372539,77.0139519 66.4123125,76.8633677 C66.9374648,76.7883162 67.5375703,76.5626804 67.9872891,76.3375258 C68.4374883,76.1123711 68.8876875,75.8867354 69.3374063,75.5114777 C69.7876055,75.1362199 70.1623711,74.8355326 70.5376172,74.3847423 L68.8127344,72.6575945 C68.1376758,73.2589691 67.4626172,73.7092784 66.8625117,74.0845361 C66.2624063,74.4602749 65.4374414,74.610378 64.5375234,74.610378 C63.8624648,74.610378 63.1874063,74.3847423 62.5873008,74.1595876 C61.9876758,73.934433 61.4625234,73.4836426 61.0123242,73.0338144 C60.5626055,72.5074914 60.1873594,71.9816495 59.9625,71.3057045 C59.7376406,70.6302405 59.5872539,69.9542955 59.5872539,69.203299 L59.5872539,69.1282474 C59.5872539,68.4523024 59.7376406,67.7763574 59.9625,67.1004124 L59.9625,67.1004124 Z M75.7876992,61.768866 L75.7876992,76.7883162 L78.4125,76.7883162 L78.4125,70.4801375 L85.6128047,70.4801375 L85.6128047,76.7883162 L88.2376055,76.7883162 L88.2376055,61.7683849 L85.6128047,61.7683849 L85.6128047,68.0019931 L78.4125,68.0019931 L78.4125,61.7683849 L75.7876992,61.7683849 L75.7876992,61.768866 Z M104.587477,73.1839175 L106.0875,76.7887973 L108.862207,76.7887973 L102.262488,61.6938144 L99.8620664,61.6938144 L93.2623477,76.7883162 L95.962582,76.7883162 L97.5370781,73.1834364 L104.587477,73.1834364 L104.587477,73.1839175 Z M101.062277,64.8479038 L103.612125,70.8558763 L98.5124297,70.8558763 L101.062277,64.8479038 L101.062277,64.8479038 Z M13.6875937,82.3450172 L109.312406,82.3450172 L109.312406,81.5189691 L13.6875937,81.5189691 L13.6875937,82.3450172 Z M68.6628281,53.2817869 C68.6628281,53.5819931 68.5873945,53.8076289 68.5873945,54.1083162 L109.312406,54.1083162 L109.312406,53.2817869 L68.6623477,53.2817869 L68.6628281,53.2817869 Z M51.9377109,53.2817869 L13.6875938,53.2817869 L13.6875938,54.1083162 L52.0126641,54.1083162 C52.0126641,53.80811 51.9372305,53.5824742 51.9372305,53.2817869 L51.9377109,53.2817869 Z"/>
  </g>
</svg>
