<svg xmlns="http://www.w3.org/2000/svg" width="140" height="140" viewBox="0 0 140 140">
  <g fill="none" transform="translate(16)">
    <path fill="#794422" d="M76.3240992,41.9209939 C134.143064,70.7644085 107.237947,125.373372 56.9957594,128.180201 C54.8719625,128.29886 52.7328375,128.198128 50.6286266,127.884835 C2.78401328,120.760201 -14.3681586,72.4725793 30.7506031,44.0577012 C44.4978023,35.3998963 61.7892047,34.6700183 76.3240992,41.9209939"/>
    <path fill="#502D17" d="M72.700358,126.985549 C98.0161837,112.339372 109.731744,70.7779787 88.5318437,34.3271037 C89.7295664,27.951128 90.4478594,21.9942988 90.5487695,16.5774085 C90.7480352,14.8231402 89.0512969,13.4624085 87.3881953,14.0420427 C82.4303984,15.2597866 77.6578164,16.8975305 73.0998281,19.0197256 C69.6488711,16.6089939 66.0803984,15.7958841 63.1501719,15.6409451 C61.5556211,15.5564329 62.1581016,13.1542378 62.2871133,12.2719817 C63.0445781,10.6094817 63.7632969,9.21503049 65.546043,7.62082317 C66.7842148,6.48545732 65.2313906,4.92496951 63.8101328,5.81917683 C61.4951602,6.92722561 60.049207,8.04594512 58.4188906,9.67643293 C57.9560664,10.021311 57.402125,9.98929878 57.0035937,9.91460366 C56.7187461,9.86125 56.5118164,9.60088415 56.4807344,9.31192073 C56.131168,6.09362805 56.4939336,3.20698171 59.3023867,1.03570122 C59.8307812,0.62722561 59.299832,-0.157713415 58.6930937,0.0279573171 C54.005668,1.46253049 51.9725625,4.71240854 50.3473555,8.73015244 C49.0423359,7.81033537 47.5150586,7.00618902 45.7774453,6.31131098 C45.4836562,6.15594512 45.0996016,6.05606707 44.8347656,6.25667683 C44.3595937,6.61606707 43.7686094,6.98954268 44.0428125,7.63106707 C45.8868711,10.3089939 47.7398711,12.9169207 49.707832,14.6229573 C45.0489336,15.6140549 40.6429492,17.2458232 36.5499141,19.6710671 L21.0157109,13.6817988 C18.9885664,12.9002744 16.871582,14.5939329 17.1824023,16.7489939 C18.0710078,25.9996646 18.983457,34.9357622 20.3055078,38.3982012 C2.20052607,75.7648504 13.3335233,113.240715 37.4324322,126.985549 L-5.68434189e-14,126.985549 L-5.68434189e-14,139.687134 L109,139.687134 L109,126.985549 L72.700358,126.985549 Z"/>
    <path fill="#FFFFFF" d="M54.8248711,45.6447378 C61.7693633,28.4238841 77.086418,26.2099207 87.9634258,37.2174207 C96.9912656,46.3537012 97.2228906,71.5370549 75.2930273,76.1779695 C97.5882109,94.7420549 82.359293,126.252299 56.8958711,126.252299 C31.3111016,125.886079 14.9853711,94.986628 38.7431133,75.9338232 C16.5692773,76.9108354 12.7874883,53.6704085 20.8334766,40.2709573 C28.1909766,28.0175427 49.4642852,26.1036402 54.8248711,45.6447378"/>
    <path fill="#FF7F2B" d="M64.937048,68.9721524 C65.5603918,68.0711159 65.5276066,66.8815427 64.8927668,65.9890427 C62.7659895,63.000811 59.7203762,60.5448354 55.3122629,60.5448354 C50.7874855,60.5448354 48.098677,63.0084939 45.626591,66.2852622 C44.9811066,67.1402012 44.9359738,68.3216646 45.5256809,69.215872 C47.3825129,72.030811 50.5780012,74.6391646 54.1894777,77.3149573 C54.8541223,77.8075183 55.7610363,77.7921524 56.409927,77.2786768 C59.8051066,74.5909329 62.9758996,71.8080061 64.937048,68.9721524"/>
    <path fill="#B1DFEC" d="M80.6534855,52.321372 C80.6534855,60.3146037 75.4061574,66.63125 69.3839074,66.63125 C63.3616574,66.63125 58.4800754,60.1515549 58.4800754,52.1583232 C58.4800754,44.1655183 63.3616574,37.6858232 69.3839074,37.6858232 C75.4061574,37.6858232 80.6534855,44.3281402 80.6534855,52.321372 Z M51.0074441,53.7462561 C51.0074441,61.7394878 45.760116,68.0561341 39.737866,68.0561341 C33.715616,68.0561341 28.834034,61.576439 28.834034,53.5832073 C28.834034,45.5904024 33.715616,39.1107073 39.737866,39.1107073 C45.760116,39.1107073 51.0074441,45.7530244 51.0074441,53.7462561 Z"/>
    <path fill="#000000" d="M76.470568,54.0312073 C76.470568,59.2709634 73.2039742,63.4795 69.4247398,63.4795 C65.6455055,63.4795 62.4193609,59.2304146 62.4193609,53.9906585 C62.4193609,48.7509024 65.6455055,44.5048049 69.4247398,44.5048049 C73.2039742,44.5048049 76.470568,48.7914512 76.470568,54.0312073 Z M47.0682012,53.868372 C47.0682012,59.108128 43.8016074,63.3166646 40.022373,63.3166646 C36.2431387,63.3166646 33.0169941,59.0675793 33.0169941,53.8278232 C33.0169941,48.5880671 36.2431387,44.3419695 40.022373,44.3419695 C43.8016074,44.3419695 47.0682012,48.6286159 47.0682012,53.868372 Z"/>
    <path fill="#FFFFFF" d="M71.0287004,49.471561 C71.0287004,51.0679024 69.7560402,52.3620488 68.185759,52.3620488 C66.6159035,52.3620488 65.3432434,51.0679024 65.3432434,49.471561 C65.3432434,47.8752195 66.6159035,46.5810732 68.185759,46.5810732 C69.7560402,46.5810732 71.0287004,47.8752195 71.0287004,49.471561 Z M43.7787004,49.3087256 C43.7787004,50.9050671 42.5060402,52.1992134 40.935759,52.1992134 C39.3659035,52.1992134 38.0932434,50.9050671 38.0932434,49.3087256 C38.0932434,47.7123841 39.3659035,46.4182378 40.935759,46.4182378 C42.5060402,46.4182378 43.7787004,47.7123841 43.7787004,49.3087256 Z"/>
    <path fill="#FF7F2B" d="M31.067427,133.051262 C31.067427,133.051262 30.9861027,136.511567 33.3010754,136.552543 C34.0266066,138.738335 36.589384,138.726811 36.9968566,136.837238 L39.9206965,136.837238 C39.9206965,136.837238 39.6362746,138.343518 41.3828293,138.30297 C43.1289582,138.262421 42.9663098,136.715165 42.9663098,136.715165 L45.727927,136.715165 C45.727927,136.715165 45.3217316,138.30297 47.1087355,138.30297 C48.8957395,138.30297 48.8097316,136.483823 48.8097316,136.483823 C49.8137238,135.851262 50.987177,135.901201 50.987177,133.94675 C50.987177,133.521201 50.8854152,133.056811 50.6899816,132.575774 C49.6314895,129.972116 45.8237277,126.883152 40.4891145,126.863091 C37.066259,126.885713 33.8763059,128.978884 31.7576184,131.036201 C31.1078762,131.667055 31.067427,133.051262 31.067427,133.051262 Z M79.3938117,133.051262 C79.3938117,133.051262 79.3946633,136.63364 77.0796906,136.674616 C76.7147961,138.750713 73.7351789,138.726384 73.4648078,136.837238 L70.5405422,136.837238 C70.5405422,136.837238 70.7436398,138.343518 68.9975109,138.30297 C67.2509563,138.262421 67.4949289,136.715165 67.4949289,136.715165 L64.7333117,136.715165 C64.7333117,136.715165 65.0581828,138.30297 63.2711789,138.30297 C61.484175,138.30297 61.651507,136.483823 61.651507,136.483823 C60.6475148,135.851262 59.4740617,135.901201 59.4740617,133.94675 C59.4740617,133.521201 59.5758234,133.056811 59.771257,132.575774 C60.8297492,129.972116 64.6375109,126.883152 69.9721242,126.863091 C73.3949797,126.885713 76.2724094,128.957116 78.5009484,130.89364 C79.3946633,131.830104 79.3938117,133.051262 79.3938117,133.051262 Z"/>
  </g>
</svg>
