<svg xmlns="http://www.w3.org/2000/svg" width="140" height="140" viewBox="0 0 140 140">
  <path fill="#FD4F00" d="M52.906591,65.5307462 C52.2858113,65.4217415 52.0425628,65.3803951 51.7993139,65.3363633 C43.9361075,63.9096346 38.9654687,59.2669934 36.6100291,51.9685001 C35.1417314,47.4192917 37.8097622,44.0691371 42.7000516,43.8484427 C46.7042995,43.6674837 49.4449746,45.9130915 51.8686562,48.5259866 C54.9929161,51.8949351 57.8568668,55.4920959 60.9255426,58.9115195 C65.3436432,63.8339219 70.5492754,67.0036548 77.6717292,66.0252954 C84.0583835,65.1478871 89.6239355,62.6472187 94.4668959,58.5313449 C95.1949911,57.9127555 95.9935289,57.373638 96.7601476,56.7974694 C96.5988992,56.6122146 96.4382009,56.4269603 96.2769525,56.2417056 C92.2116174,57.4735145 88.065383,57.887518 83.8288933,57.6797107 C77.4185744,57.3650467 71.3103909,56.0591359 65.845,52.6252141 C60.8578515,49.4914585 57.179953,45.2923545 55.4315345,39.6837046 C54.0193713,35.1527535 56.9097381,31.9830206 61.7218797,32.6381238 C63.6243923,32.8969432 65.2258715,33.7330054 66.66335,34.9186348 C67.8339155,35.8830325 68.956602,36.9054229 70.1502817,37.8408243 C75.767015,42.2445137 83.6153624,42.4893718 90.7449709,37.7081928 C79.023906,37.6561069 71.0495314,31.3655054 64.0453997,23.3931146 C61.3041742,20.272783 58.6278882,17.0966067 55.8299778,14.0256764 C50.4163187,8.08303127 44.4104975,2.84757566 36.1868205,1.06161424 C25.6819989,-1.21997059 15.5403995,0.271194515 5.80604894,4.62118695 C3.86501243,5.48839319 2.00102335,6.49682272 0,8.12169318 C0.990605395,8.12169318 1.53103572,8.13350639 2.07036567,8.12008245 C6.97826563,7.99657918 10.6561641,10.1245906 13.3087855,14.0417853 C15.2393658,16.8925582 16.1490718,20.116525 16.8424954,23.4333872 C17.8716247,28.3557896 17.338899,33.3743096 17.9332623,38.3192646 C19.460996,51.0320249 26.1200665,59.9033028 38.519146,64.4460675 C43.0660254,66.1122848 47.7295761,66.6669747 52.906591,65.5307462 L52.906591,65.5307462 L52.906591,65.5307462 Z M21.570986,7.53961809 C19.6117885,8.02181674 18.0460812,7.25019127 16.432495,5.65700169 C19.1957338,4.98525265 21.6326236,4.72482216 24.2511243,4.62440881 C24.0370434,6.28310859 23.0343306,7.17984807 21.570986,7.53961809 L21.570986,7.53961809 Z M85.7721309,81.776231 C85.6015267,80.552477 84.5300215,80.0133591 83.6874567,79.3732913 C79.9605785,76.5429234 75.6019139,75.5409376 70.9807391,75.4577074 C68.2230034,75.4083061 65.4938853,75.2074794 62.8929952,74.2640235 C61.7009667,73.8317627 60.3675017,73.2765359 60.3977701,71.7735576 C60.4280385,70.2485631 61.78792,69.8173765 63.0256263,69.4565327 C64.0387958,69.1611995 65.0844349,68.9727229 66.2379402,68.7096079 C63.3079491,66.8774666 60.4456495,66.6234798 56.631818,68.1200148 C50.628198,70.4751643 44.7093301,70.19594 38.7244214,68.0872597 C35.345356,66.8973347 32.3465729,65.0292168 29.2245142,63.3748127 L29.1392121,63.4322685 C29.1799372,63.4048829 29.2228635,63.3758865 29.2201119,63.3774977 C29.1430645,63.1476742 29.0032791,63.1417678 28.8238693,63.2701037 C28.9058695,63.3399096 28.9873193,63.4097159 29.068769,63.4795217 C31.6581021,67.6200961 35.1560404,70.9514566 39.1074557,73.7984707 C46.7175077,79.2809324 55.0297888,82.5505414 64.7558843,81.0996489 C67.8972043,80.6308746 71.0621889,80.2673458 74.2304758,80.0181921 C78.202804,79.7051384 81.9874675,80.7957244 85.7721309,81.776231 L85.7721309,81.776231 Z M67.4354722,22.3771679 C67.2252437,22.2284271 67.0232702,21.8552332 66.5940077,22.2413146 C70.0930468,26.8592546 74.5881944,30.2636436 80.0007532,32.4066901 C88.7362428,35.8653125 97.6021625,36.4570532 106.670054,33.4049167 C113.709957,31.035806 118.772504,33.3506828 121.401462,40.0198477 C121.781741,32.2788911 117.11434,26.6385603 109.679847,25.5329392 C105.497288,24.9111284 101.635579,26.2648294 97.717733,27.3736719 C86.8150185,30.4580265 76.6833249,28.9351802 67.4354722,22.3771679 L67.4354722,22.3771679 Z M121.77404,52.5699064 C123.195006,52.6864286 124.614876,52.8120795 126.035295,52.9334348 C122.825731,50.1825383 118.913941,49.9645289 114.956471,50.1841494 C108.930288,50.5181446 104.588684,53.9091088 100.630665,57.9605461 C97.1431827,61.5313951 93.9919556,65.53719 88.7874242,66.9719735 C88.8743775,67.1244727 88.8969412,67.2007227 88.9211561,67.2007227 C89.621184,67.2109248 90.3228626,67.243143 91.0212398,67.211999 C98.5801088,66.8780035 105.700914,65.322402 111.365527,59.9698873 C113.149165,58.2843388 114.745693,56.4119253 116.467694,54.6624773 C117.904072,53.2035308 119.645888,52.3948542 121.77404,52.5699064 L121.77404,52.5699064 Z M104.214456,43.4296062 C98.5735082,43.910731 93.6733108,46.1874833 89.0708474,49.1896812 C85.528332,51.5002623 81.7398162,52.5935328 77.4824136,51.8707717 C76.7334059,51.7435097 75.9788947,51.6484662 75.2271351,51.5383873 C75.2183296,51.6409487 75.2100745,51.7429728 75.201269,51.8455342 C75.4720348,51.9813876 75.7334446,52.1403305 76.0152166,52.2493352 C76.7246004,52.52319 77.4235275,52.8528895 78.1598778,53.0236456 C86.3521856,54.9239816 94.1944794,53.9504556 101.265202,49.494143 C105.721825,46.6852539 110.335295,46.1531171 115.335654,46.8785631 C115.840863,46.9521281 116.34387,47.0418021 116.85128,47.0879815 C117.321268,47.131476 117.812167,47.5873633 118.446704,47.0938883 C114.075382,44.0127555 109.366704,42.9903647 104.214456,43.4296062 L104.214456,43.4296062 Z M84.0534304,24.7468156 C87.0125892,24.846692 89.9585401,24.4686651 93.0536319,22.6746492 C92.1472278,22.7530464 91.7625427,22.7514357 91.3938174,22.8233896 C87.1298109,23.6524709 83.3022212,22.744992 79.8928869,20.1149139 C78.6419724,19.1494423 77.370145,18.2097453 76.1032707,17.2641414 C71.0809006,13.5160921 65.3216299,12.2622676 59.0219292,12.3685873 C59.1237411,12.6709016 59.129795,12.878172 59.2393121,12.985566 C66.0937521,19.7503113 74.0268511,24.4095986 84.0534304,24.7468156 L84.0534304,24.7468156 Z M133.661857,59.45547 C129.419864,55.3503357 123.727183,54.8214206 118.459361,58.4040833 C121.946295,58.5571194 124.563692,59.6423354 126.68634,61.786993 C127.437552,62.5457311 128.216276,63.2905083 129.05664,63.9520552 C132.2662,66.4779612 137.707378,66.5993165 140.88612,64.2559802 C137.152089,62.8340841 137.152089,62.8340841 133.661857,59.45547 L133.661857,59.45547 Z M91.41418,90.8923674 C87.686201,84.1217153 81.4206211,82.5940359 74.1825964,83.0483124 C76.3223043,83.6271661 78.3205761,84.5179988 80.1542968,85.7669907 C81.8388766,86.9144951 83.2565433,88.3353174 84.6538476,89.7905055 C87.4225899,92.6734962 91.7438314,94.4428118 94.6072318,93.8446274 C93.2924781,93.0359512 92.1246641,92.1821689 91.41418,90.8923674 L91.41418,90.8923674 Z M126.102435,53.0730469 C126.103536,53.0300893 126.104636,52.9865948 126.107386,52.9414892 C126.107386,52.9409523 126.101882,52.9468591 126.096382,52.9527659 L126.108487,52.9398785 C126.084274,52.9377304 126.059508,52.9355828 126.035295,52.9334348 C126.049601,52.9463222 126.065012,52.9565247 126.079318,52.9694117 C126.087024,53.0037779 126.094729,53.0386811 126.102435,53.0730469 L126.102435,53.0730469 Z M85.9790575,81.9357112 C85.9300773,81.9083256 85.8810976,81.8814773 85.8321178,81.8546286 C85.8387217,81.8852361 85.8464264,81.9153062 85.8629366,81.9400069 C85.8728425,81.9561158 85.9388828,81.9378588 85.9790575,81.9357112 L85.9790575,81.9357112 Z M85.8321178,81.8546286 C85.827715,81.8326129 85.8238627,81.8100603 85.8178088,81.7880446 C85.8178088,81.7880446 85.8095537,81.7982467 85.8007486,81.8084492 L85.8178088,81.7885815 C85.8029497,81.7842858 85.7875403,81.7805266 85.7721309,81.776231 C85.7748825,81.7944879 85.7814868,81.8095234 85.783688,81.8283172 C85.8001982,81.8369086 85.816158,81.8460373 85.8321178,81.8546286 L85.8321178,81.8546286 Z" transform="translate(-1 23)"/>
</svg>
