<svg xmlns="http://www.w3.org/2000/svg" width="140" height="140" viewBox="0 0 140 140">
  <g fill="none" transform="translate(0 2)">
    <polygon fill="#BFBFBF" points="5.826 6.014 134.005 6.014 134.005 130.96 5.826 130.96"/>
    <path fill="#F2F2F2" d="M5.82620805,6.01411168 L134.004664,6.01411168 L134.004664,130.959995 L5.82620805,130.959995 L5.82620805,6.01411168 Z M0,136.798737 L139.830872,136.798737 L139.830872,0.175604811 L0,0.175604811 L0,136.798737 Z M94.2693289,56.2260241 C89.6664765,56.2260241 88.0935906,58.5613797 88.0935906,60.4880893 C88.0935906,62.589933 89.1421812,64.0496186 95.3181544,67.2608797 C104.465369,71.6983144 107.320336,75.9603797 107.320336,82.207768 C107.320336,91.5494261 100.212282,96.5706409 90.5987919,96.5706409 C85.5298993,96.5706409 81.1600671,95.5196014 78.6548658,94.0601512 C78.2470805,93.8850172 78.1888255,93.5931271 78.1888255,93.1258677 L78.1888255,84.5431237 C78.1888255,83.9593436 78.4801007,83.7839742 78.8881208,84.0760997 C82.5586577,86.4700687 86.7534899,87.5208729 90.5987919,87.5208729 C95.2016443,87.5208729 97.1242953,85.5941632 97.1242953,82.9666821 C97.1242953,80.8648385 95.7841946,78.9965069 89.8994966,75.9603797 C81.6261074,71.9902045 78.1888255,67.9616512 78.1888255,61.2472388 C78.1888255,53.715299 84.0735235,47.468146 94.2693289,47.468146 C99.2799664,47.468146 102.775738,48.2272955 104.698389,49.1029656 C105.16443,49.3948557 105.28094,49.8618797 105.28094,50.2705258 L105.28094,58.2692543 C105.28094,58.7362784 104.989664,59.0284038 104.406879,58.8530344 C101.843423,57.2186856 98.0563758,56.2260241 94.2693289,56.2260241 L94.2693289,56.2260241 Z M44.1631879,63.1739485 C45.5032886,63.2907045 46.5521141,63.2907045 48.8825503,63.2907045 C55.6995638,63.2907045 62.1083221,60.8969708 62.1083221,51.6136907 C62.1083221,44.1987423 57.5054698,40.4618436 49.7566107,40.4618436 C47.4261745,40.4618436 45.2120134,40.5785997 44.1631879,40.6369777 L44.1631879,63.1739485 Z M33.7926174,32.1709897 C33.7926174,31.7623436 34.6084228,31.4702182 35.0742282,31.4702182 C38.803255,31.2950842 44.3381879,31.1783282 50.1061409,31.1783282 C66.2448993,31.1783282 72.5371477,40.0529622 72.5371477,51.3799433 C72.5371477,66.2098402 61.8168121,72.5739845 48.6495302,72.5739845 C46.435604,72.5739845 45.6782886,72.4572285 44.1049329,72.4572285 L44.1049329,94.8774433 C44.1049329,95.3444674 43.9301678,95.5779794 43.4058725,95.5779794 L34.4916779,95.5779794 C34.0256376,95.5779794 33.7923826,95.4028454 33.7923826,94.8774433 L33.7923826,32.1709897 L33.7926174,32.1709897 Z"/>
  </g>
</svg>
