<svg xmlns="http://www.w3.org/2000/svg" width="140" height="140" viewBox="0 0 140 140">
  <g fill="none" fill-rule="evenodd">
    <rect width="142" height="142" fill="#6082BB"/>
    <path fill="#FFFFFF" fill-rule="nonzero" d="M33.67897 78.1309641C36.8972544 78.1309641 39.299826 77.5282593 40.820005 76.340194 42.3239147 75.1643163 43.36262 73.1270464 43.9070481 70.2852734 44.4146645 67.6290539 44.2212723 65.7743554 43.33248 64.7734623 42.4236768 63.7511718 40.4588317 63.2327136 37.4926207 63.2327136L32.349513 63.2327136 29.4982739 78.1309641 33.67897 78.1309641zM16.8572191 96.4828981C16.618485 96.4828981 16.3917509 96.3745439 16.2399752 96.1870958 16.0879237 95.9999236 16.0263125 95.7534238 16.0719223 95.5153222L23.6282787 56.034693C23.7013704 55.6530295 24.0307966 55.3772736 24.4138393 55.3772736L40.6997005 55.3772736C45.8180087 55.3772736 49.6276621 56.7885467 52.022235 59.5723512 54.4296115 62.3707858 55.173028 66.2825206 54.2316823 71.1986702 53.8486396 73.2015396 53.1897791 75.0616503 52.2735089 76.7270061 51.3561754 78.3942565 50.1438169 79.9368998 48.6695156 81.3129569 46.9047303 82.9902285 44.9073387 84.2064706 42.7381729 84.9221263 40.6034082 85.6283045 37.8618007 85.9864041 34.589644 85.9864041L27.9951677 85.9864041 26.1119447 95.8252068C26.038853 96.2071422 25.7096906 96.4828981 25.3266479 96.4828981L16.8572191 96.4828981 16.8572191 96.4828981zM74.3137034 85.9864041C74.0777613 85.9864041 73.8541966 85.8780541 73.7043649 85.6906059 73.5540056 85.5034297 73.4931776 85.2572017 73.538203 85.0188283L76.8379512 67.5502277C77.1518426 65.8889372 77.0744249 64.6965348 76.6201816 64.1927026 76.3421075 63.8847167 75.5068384 63.3681532 73.0370959 63.3681532L67.0590518 63.3681532 62.9103382 85.3287129C62.8381839 85.7106482 62.5129783 85.9864041 62.1348378 85.9864041L53.8400403 85.9864041C53.6041022 85.9864041 53.3805416 85.8780541 53.230442 85.6906059 53.0803505 85.5034297 53.0195185 85.2569298 53.064544 85.0188283L60.5240683 45.5381991C60.5962185 45.1565355 60.9214282 44.8807797 61.2995687 44.8807797L69.5943581 44.8807797C69.8303002 44.8807797 70.0538689 44.9891338 70.2039604 45.1763101 70.35406 45.3637541 70.4148839 45.6099821 70.3698585 45.8483555L68.569755 55.3772736 75.0007235 55.3772736C79.8999189 55.3772736 83.2220478 56.2657554 85.156976 58.0936322 87.129288 59.9583478 87.7446854 62.9398974 86.9863065 66.9564648L83.5156566 85.3287129C83.4435104 85.7106482 83.1185604 85.9864041 82.7401602 85.9864041L74.3137034 85.9864041zM102.255064 78.1309641C105.596826 78.1309641 108.091579 77.5282593 109.670091 76.340194 111.231703 75.1645882 112.310264 73.1273182 112.875855 70.2852734 113.402947 67.6290539 113.202141 65.7743554 112.278967 64.7734623 111.335292 63.7511718 109.295063 63.2327136 106.215044 63.2327136L100.874592 63.2327136 97.9139566 78.1309641 102.255064 78.1309641 102.255064 78.1309641zM84.7881491 96.4828981C84.5402556 96.4828981 84.3048208 96.3745439 84.1472217 96.1870958 83.9893426 95.9999236 83.9250814 95.7534238 83.9724403 95.5153222L91.8187328 56.034693C91.8949046 55.6530295 92.236696 55.3772736 92.6347175 55.3772736L109.545172 55.3772736C114.860139 55.3772736 118.815692 56.7885467 121.302422 59.5723512 123.802162 62.3705139 124.573828 66.2822529 123.59664 71.1986702 123.198343 73.2015396 122.51448 75.0616503 121.563058 76.7270061 120.61052 78.3942565 119.351647 79.9368998 117.820778 81.3129569 115.988278 82.9902285 113.914252 84.2064706 111.661849 84.9221263 109.445183 85.6283045 106.598383 85.9864041 103.200667 85.9864041L96.3528956 85.9864041 94.3982447 95.8252068C94.3220769 96.2071422 93.9802814 96.4828981 93.582264 96.4828981L84.7881491 96.4828981 84.7881491 96.4828981z"/>
  </g>
</svg>
