<svg xmlns="http://www.w3.org/2000/svg" width="140" height="140" viewBox="0 0 140 140">
  <g fill="none" fill-rule="evenodd" transform="translate(16 14)">
    <path fill="#000000" fill-rule="nonzero" stroke="#000000" stroke-width="10.284" d="M84.008447,84.3991488 C84.7882374,77.8944829 84.554548,76.9405976 89.3932121,77.9942537 L90.6216641,78.1022927 C94.3422525,78.2717927 99.2092677,77.5031171 102.068591,76.1730244 C108.223788,73.3132976 111.873636,68.5386341 105.804318,69.7932098 C91.9599419,72.6529366 91.0081187,67.9590268 91.0081187,67.9590268 C105.627056,46.2401512 111.738212,18.6700805 106.463273,11.9215 C92.0758232,-6.4862 67.1715253,2.21838293 66.7547929,2.44438293 L66.6221212,2.4689122 C63.8866616,1.90060488 60.825303,1.56105366 57.386298,1.50538049 C51.1212753,1.40230244 46.3673889,3.1499439 42.7613056,5.88867805 C42.7613056,5.88867805 -1.66665404,-12.4388195 0.400217172,28.9373707 C0.839795455,37.7392439 13.000452,95.5398463 27.5043333,78.0813463 C32.8054217,71.6973976 37.9284217,66.2995805 37.9284217,66.2995805 C40.4723056,67.9918244 43.5179747,68.8550341 46.7122803,68.5449732 L46.9591818,68.3341317 C46.8818359,69.1267854 46.9159672,69.9020756 47.0579975,70.8198561 C43.3222702,75.0000293 44.4199773,75.733978 36.949899,77.2735341 C29.3922904,78.8332098 33.8323889,81.609978 36.7305227,82.3356585 C40.244947,83.2156805 48.3750808,84.4622634 53.869947,76.7617268 L53.6511212,77.6403707 C55.1168409,78.8144683 55.01775,86.0792659 55.2255657,91.2698244 C55.4336566,96.4606585 55.78075,101.3045 56.8374444,104.160368 C57.8941389,107.015685 59.1410328,114.37171 68.9584646,112.264949 C77.1634672,110.504354 83.4367475,107.970398 84.008447,84.3988732"/>
    <path fill="#336791" fill-rule="nonzero" d="M105.805694,69.7926585 C91.9599419,72.6523854 91.0081187,67.9584756 91.0081187,67.9584756 C105.627056,46.238222 111.738212,18.6676 106.464374,11.9198463 C92.0769242,-6.48675122 67.1715253,2.21838293 66.7558939,2.44438293 L66.6221212,2.46836098 C63.8866616,1.89977805 60.825303,1.56105366 57.3846465,1.50482927 C51.1196237,1.40202683 46.3673889,3.14939268 42.7613056,5.88757561 C42.7613056,5.88757561 -1.6674798,-12.4390951 0.398840909,28.9368195 C0.838419192,37.7392439 12.9988005,95.5398463 27.5032323,78.0813463 C32.804596,71.6973976 37.9267702,66.2995805 37.9267702,66.2995805 C40.4709293,67.9918244 43.5165985,68.8550341 46.7095278,68.5449732 L46.9575303,68.3341317 C46.8804596,69.1267854 46.9156919,69.9020756 47.0568965,70.8198561 C43.3203434,75.0000293 44.4183258,75.733978 36.948798,77.2735341 C29.3906389,78.8332098 33.8307374,81.609978 36.729697,82.3356585 C40.2441212,83.2156805 48.3748056,84.4622634 53.8685707,76.7617268 L53.6494697,77.6403707 C55.1135379,78.8144683 56.1416061,85.2777927 55.969298,91.1367049 C55.7969899,96.9958927 55.6819343,101.018417 56.8355177,104.160368 C57.989101,107.30232 59.1388308,114.37171 68.9581894,112.264949 C77.1631919,110.504354 81.4150177,105.94191 82.0065354,98.3314976 C82.4262955,92.9210024 83.3761919,93.720822 83.436197,88.8835951 L84.198096,86.5935537 C85.076702,79.2593024 84.337649,76.8931927 89.3926616,77.9937024 L90.6211136,78.1017415 C94.341702,78.2712415 99.2111944,77.5025659 102.069141,76.1724732 C108.223237,73.3127463 111.873086,68.5380829 105.805144,69.7926585 L105.805694,69.7926585 Z"/>
    <path stroke="#FFFFFF" stroke-width="3.428" d="M54.4631162 73.9968098C54.0818914 87.6439024 54.558904 101.38608 55.8925025 104.72592 57.2269268 108.065759 60.0826717 114.56188 69.9028561 112.455395 78.1070328 110.694249 81.0921465 107.286059 82.3874848 99.7632902 83.3415101 94.2284951 85.1807475 78.8571878 85.4166389 75.7077951M42.6927677 5.58275122C42.6927677 5.58275122-1.76629545-12.6119024.300575758 28.7640122.74015404 37.5664366 12.9013611 95.3689683 27.4055177 77.9096415 32.7057803 71.5248659 37.499303 66.5173122 37.499303 66.5173122M66.7071742 2.26192927C65.1682374 2.74507317 91.4380631-7.35381951 106.367485 11.7475902 111.641048 18.4956195 105.529891 46.0662415 90.9112298 67.7870463" stroke-linecap="round" stroke-linejoin="round"/>
    <path stroke="#FFFFFF" stroke-width="3.428" d="M90.9109545,67.7870463 C90.9109545,67.7870463 91.8636035,72.4823341 105.709631,69.620678 C111.776197,68.3661024 108.125247,73.1413171 101.972528,76.002422 C96.9230202,78.3489634 85.6021591,78.9503439 85.4171894,75.7077951 C84.9412778,67.341661 91.3755808,69.8833341 90.9112298,67.7870463 C90.4914697,65.8991195 87.6139798,64.0461951 85.7106086,59.4255976 C84.0489091,55.3926 62.9208005,24.4647756 91.5699091,29.0580878 C92.619447,28.8406317 84.097904,1.77217073 57.2863813,1.33202195 C30.4809141,0.891873171 31.360346,34.3395976 31.360346,34.3395976" stroke-linecap="round" stroke-linejoin="bevel"/>
    <path stroke="#FFFFFF" stroke-width="3.428" d="M46.9591818,70.6481512 C43.2220783,74.8280488 44.3211616,75.5619976 36.8510833,77.1021049 C29.2929242,78.6620561 33.7335732,81.4382732 36.6317071,82.163678 C40.1461313,83.0442512 48.2768157,84.2908341 53.7705808,76.5883683 C55.4435657,74.2432049 53.7606717,70.5012512 51.4625884,69.5473659 C50.3522197,69.086822 48.8675076,68.5096951 46.9591818,70.6481512 L46.9591818,70.6481512 Z" stroke-linecap="round" stroke-linejoin="round"/>
    <path stroke="#FFFFFF" stroke-width="3.428" d="M46.7144823,70.5751146 C46.3379369,68.1175024 47.5209722,65.1930073 48.7887854,61.7715878 C50.6940833,56.6380805 55.0901414,51.5037463 51.5735152,35.2196195 C48.9522854,23.0847976 31.3710808,32.6942073 31.3600707,34.3395976 C31.3493359,35.9844366 32.1552753,42.6795488 31.0663763,50.4759976 C29.6455227,60.6495805 37.5315076,69.2538415 46.6123636,68.3735439" stroke-linecap="round" stroke-linejoin="round"/>
    <path fill="#FFFFFF" fill-rule="nonzero" stroke="#FFFFFF" stroke-width="1.143" d="M42.5311944,34.0929268 C42.4519217,34.6548951 43.5587121,36.1544878 45.0018611,36.3548561 C46.4425328,36.5560512 47.6756641,35.3841585 47.7538359,34.8227415 C47.8320076,34.2607732 46.7265934,33.6417537 45.2828939,33.4405585 C43.8413965,33.2390878 42.6077146,33.5323366 42.5314697,34.0929268 L42.5311944,34.0929268 Z"/>
    <path fill="#FFFFFF" fill-rule="nonzero" stroke="#FFFFFF" stroke-width=".571" d="M86.413053,32.9472171 C86.4912247,33.5091854 85.3858106,35.008778 83.9423864,35.2091463 C82.5006136,35.4103415 81.2674823,34.2384488 81.1884848,33.6770317 C81.1122399,33.1150634 82.2179293,32.4960439 83.6599773,32.2948488 C85.1020253,32.0936537 86.3348813,32.3866268 86.413053,32.9474927 L86.413053,32.9472171 Z"/>
    <path stroke="#FFFFFF" stroke-width="3.428" d="M91.5699091,29.0580878 C91.807452,33.4661902 90.6216641,36.4686829 90.472202,41.1612146 C90.250899,47.9820049 93.7199066,55.7889268 88.4928611,63.6054951" stroke-linecap="round" stroke-linejoin="round"/>
  </g>
</svg>
