<svg xmlns="http://www.w3.org/2000/svg" width="140" height="140" viewBox="0 0 140 140">
  <g fill="#BFBFBF" transform="translate(5 17)">
    <path d="M119.8145,49.1477857 C116.7023,46.0399881 113.0753,43.6017619 109.0362,41.8940952 C104.8463,40.1267381 100.4042,39.2300833 95.8269,39.2300833 L33.9235,39.2300833 C29.3475,39.2300833 24.9041,40.1254405 20.7168,41.8940952 C16.6764,43.6004643 13.0494,46.0399881 9.9372,49.1477857 C6.8237,52.2542857 4.381,55.8746429 2.6702,59.9076429 C0.8996,64.0872738 0,68.5238333 0,73.0888571 C0,77.6590714 0.897,82.0917381 2.6702,86.271369 C4.3797,90.304369 6.8237,93.922131 9.9372,97.0325238 C13.0494,100.139024 16.6764,102.57725 20.7168,104.283619 C24.9054,106.049679 29.3475,106.950226 33.9235,106.950226 C39.2717,106.950226 44.6017,105.674667 49.3389,103.255905 C52.52,101.633881 55.4489,99.4928095 57.9774,96.9572619 L71.7704,96.9572619 C74.3002,99.4928095 77.2304,101.633881 80.4102,103.255905 C85.1487,105.673369 90.4787,106.950226 95.8243,106.950226 C100.4016,106.950226 104.8437,106.052274 109.0323,104.283619 C113.0714,102.578548 116.6971,100.139024 119.8093,97.0325238 C122.9228,93.9234286 125.3681,90.304369 127.0763,86.271369 C128.8469,82.0917381 129.7452,77.6577738 129.7452,73.0888571 C129.7452,68.5212381 128.8495,64.0872738 127.0763,59.9076429 C125.372,55.8759405 122.928,52.2555833 119.8145,49.1477857 Z M95.8269,98.070619 C87.6421,98.070619 80.3725,94.1453214 75.8069,88.0776548 L53.9435,88.0776548 C49.3779,94.1453214 42.1096,98.070619 33.9235,98.070619 C20.1032,98.070619 8.8998,86.8890357 8.8998,73.0914524 C8.8998,59.2964643 20.1045,48.1122857 33.9235,48.1122857 L95.8269,48.1122857 C109.6498,48.1122857 120.8545,59.2964643 120.8545,73.0914524 C120.8519,86.8877381 109.6498,98.070619 95.8269,98.070619 Z"/>
    <ellipse cx="95.827" cy="83.082" rx="5.004" ry="4.995"/>
    <ellipse cx="105.838" cy="73.09" rx="5.005" ry="4.996"/>
    <ellipse cx="85.82" cy="73.09" rx="5.005" ry="4.996"/>
    <ellipse cx="95.827" cy="63.1" rx="5.004" ry="4.995"/>
    <path d="M46.436 68.0943214L38.9285 68.0943214 38.9285 60.6031667C38.9285 59.2250952 37.8079 58.10525 36.4273 58.10525L31.4223 58.10525C30.0404 58.10525 28.9198 59.2237976 28.9198 60.6031667L28.9198 68.0943214 21.4136 68.0943214C20.0317 68.0943214 18.9124 69.212869 18.9124 70.5935357L18.9124 75.589369C18.9124 76.9687381 20.033 78.0885833 21.4136 78.0885833L28.9198 78.0885833 28.9198 85.5797381C28.9198 86.9604048 30.0404 88.0776548 31.4223 88.0776548L36.4273 88.0776548C37.8092 88.0776548 38.9285 86.9617024 38.9285 85.5797381L38.9285 78.0885833 46.436 78.0885833C47.8179 78.0885833 48.9385 76.9700357 48.9385 75.589369L48.9385 70.5935357C48.9385 69.212869 47.8166 68.0943214 46.436 68.0943214zM83.2676 22.8463452L107.1603 22.8463452C119.7534 22.8463452 130 12.6198095 130 .0484761905L121.1015.0484761905C121.1015 7.72259524 114.8459 13.9654405 107.159 13.9654405L83.2676 13.9654405C70.6732 13.9654405 60.4279 24.1919762 60.4279 36.7633095L69.3251 36.7633095C69.3238 29.0904881 75.5807 22.8463452 83.2676 22.8463452z"/>
  </g>
</svg>
