<svg xmlns="http://www.w3.org/2000/svg" width="140" height="140" viewBox="0 0 140 140">
  <g fill="none" transform="translate(27 5)">
    <path fill="#C3C3C3" d="M21.5,130 C33.368,130 43,120.368 43,108.5 L43,87 L21.5,87 C9.632,87 0,96.632 0,108.5 C0,120.368 9.632,130 21.5,130 Z"/>
    <path fill="#8C8C8C" d="M0,64.5 C0,52.632 9.632,43 21.5,43 L43,43 L43,86 L21.5,86 C9.632,86 0,76.368 0,64.5 Z"/>
    <path fill="#909090" d="M0,21.5 C0,9.632 9.632,0 21.5,0 L43,0 L43,43 L21.5,43 C9.632,43 0,33.368 0,21.5 Z"/>
    <path fill="#B0B0B0" d="M43,0 L64.5,0 C76.368,0 86,9.632 86,21.5 C86,33.368 76.368,43 64.5,43 L43,43 L43,0 Z"/>
    <path fill="#C6C6C6" d="M86,64.5 C86,76.368 76.368,86 64.5,86 C52.632,86 43,76.368 43,64.5 C43,52.632 52.632,43 64.5,43 C76.368,43 86,52.632 86,64.5 Z"/>
  </g>
</svg>
