<svg xmlns="http://www.w3.org/2000/svg" width="140" height="140" viewBox="0 0 140 140">
  <g fill="none" fill-rule="evenodd" transform="translate(24 7)">
    <path fill="#FFC24A" fill-rule="nonzero" d="M0,102 L0.76456847,100.928812 L36.9236512,32.2624672 L37,31.5354864 L21.0607462,1.57068652 C19.7246421,-0.939325464 15.9648235,-0.304613933 15.5268983,2.50527312 L0,102 Z"/>
    <path fill="#FFA712" d="M0.0917745098,100.903329 L0.673980392,99.7739321 L36.7137941,31.7727964 L20.698598,1.66217143 C19.3676863,-0.823510714 15.9876275,-0.189735714 15.5508824,2.59281429 L0.0917745098,100.903329 Z"/>
    <path fill="#FEA612" fill-rule="nonzero" d="M0,100 L0.572317201,98.8795069 L36,31.4144391 L20.2568197,1.54118276 C18.9485132,-0.924904201 15.6258642,-0.296125389 15.1965372,2.46448916 L0,100 Z"/>
    <path fill="#F4BD62" fill-rule="nonzero" d="M48.9322551,54 L61,41.9886711 L48.9285932,19.5924362 C47.7827891,17.4723922 44.5833995,17.4659861 43.4496796,19.5924362 L37,31.5457548 L37,32.5636037 L48.9318889,54 L48.9322551,54 Z"/>
    <path fill="#FFA50E" d="M11.4706308,35.9905455 L22.8075077,24.0589091 L11.4706308,1.87454545 C10.3942308,-0.231272727 7.77895385,-0.452 6.71387692,1.66 L0.449030769,14.0632727 L0.261492308,14.6974545 L11.4706308,35.9905455 L11.4706308,35.9905455 Z" transform="translate(37 18)"/>
    <path fill="#FFA50E" fill-rule="nonzero" d="M48.4348447,53 L60,41.3379757 L48.4348447,19.6548988 C47.3367704,17.5966645 44.6688325,17.3809249 43.5823093,19.4452013 L37.1913147,31.5682047 L37,32.1880563 L48.4348447,53 L48.4348447,53 Z"/>
    <polygon fill="#F6820C" fill-rule="nonzero" points="0 101 .343 100.654 1.59 100.147 47.419 54.407 48 52.824 36.567 31"/>
    <path fill="#FDE068" fill-rule="nonzero" d="M50.1148491,124.905043 L92,101.668905 L80.0390922,28.3937506 C79.6648186,26.1012034 76.8374133,25.1950059 75.1875832,26.8386311 L0,101.774252 L41.6448809,124.903251 C44.2768353,126.364945 47.48227,126.365623 50.1148491,124.905043"/>
    <path fill="#FCCA3F" fill-rule="nonzero" d="M90.9996404,100.919917 L79.1503843,28.3994091 C78.7800051,26.1302621 76.4325924,25.1915143 74.7982495,26.8185105 L0,101.077149 L41.1153222,123.914416 C43.722594,125.361098 46.8980079,125.361909 49.5060281,123.91656 L91,100.919559 L90.9996404,100.919917 Z"/>
    <path fill="#EEAB37" fill-rule="nonzero" d="M50.1143249,124.217356 C47.4818288,125.680209 44.2765551,125.67953 41.6446837,124.215562 L0.335010474,101.381524 L0,101.734336 L41.6446837,124.901444 C44.2766485,126.365546 47.4820956,126.366225 50.1146851,124.903239 L92,101.628815 L91.8973355,101 L50.1146851,124.217715 L50.1143249,124.217356 Z"/>
  </g>
</svg>
