<svg xmlns="http://www.w3.org/2000/svg" width="140" height="140" viewBox="0 0 140 140">
  <path fill="#BFBFBF" fill-rule="evenodd" d="M60,0 C26.8,0 0,26.8 0,60 C0,86.4 17.2,108.8 41.2,116.8 C44.4,117.2 45.2,115.6 45.2,114 L45.2,103.6 C28.4,107.2 24.8,95.6 24.8,95.6 C22,88.8 18,86.8 18,86.8 C12.4,83.2 18.4,83.2 18.4,83.2 C24.4,83.6 27.6,89.2 27.6,89.2 C32.8,98.4 41.6,95.6 45.2,94 C45.6,90 47.2,87.6 49.2,86 C36,84.4 22,79.2 22,56.4 C22,50 24.4,44.4 28,40.4 C27.2,38.8 25.2,32.8 28.4,24.4 C28.4,24.4 33.6,22.8 44.8,30.4 C49.6,29.2 54.8,28.4 60,28.4 C65.2,28.4 70.4,29.2 75.2,30.4 C86.8,22.8 91.6,24.4 91.6,24.4 C94.8,32.8 92.8,38.8 92,40.4 C96,44.4 98,50 98,56.4 C98,79.6 84,84.4 70.8,86 C72.8,88 74.8,91.6 74.8,97.2 L74.8,113.6 C74.8,115.2 76,117.2 78.8,116.4 C102.8,108.4 119.6,86 119.6,59.6 C120,26.8 93.2,0 60,0 Z" transform="translate(10 10)"/>
</svg>
