<svg xmlns="http://www.w3.org/2000/svg" width="140" height="140" viewBox="0 0 140 140">
  <g fill="#2DBCAF" transform="translate(4 47)">
    <path d="M9.76841306,14.5739844 C9.51632498,14.5739844 9.45330296,14.4485322 9.579347,14.260354 L10.9028094,12.5667496 C11.0288535,12.3785713 11.3439636,12.2531191 11.5960516,12.2531191 L34.0949127,12.2531191 C34.3470008,12.2531191 34.4100228,12.4412974 34.2839787,12.6294756 L33.2126044,14.260354 C33.0865604,14.4485322 32.7714503,14.6367105 32.5823842,14.6367105 L9.76841306,14.5739844 L9.76841306,14.5739844 Z M0.252088079,20.3447846 C0,20.3447846 -0.0630220197,20.2193324 0.0630220197,20.0311541 L1.38648443,18.3375497 C1.51252847,18.1493715 1.82763857,18.0239193 2.07972665,18.0239193 L30.8177677,18.0239193 C31.0698557,18.0239193 31.1958998,18.2120975 31.1328778,18.4002758 L30.6287016,19.9057019 C30.5656796,20.1566063 30.3135915,20.2820585 30.0615034,20.2820585 L0.252088079,20.3447846 L0.252088079,20.3447846 Z M15.5034169,26.1155847 C15.2513288,26.1155847 15.1883068,25.9274065 15.3143508,25.7392282 L16.1966591,24.171076 C16.3227031,23.9828977 16.5747912,23.7947194 16.8268793,23.7947194 L29.4312832,23.7947194 C29.6833713,23.7947194 29.8094153,23.9828977 29.8094153,24.2338021 L29.6833713,25.7392282 C29.6833713,25.9901325 29.4312832,26.1783108 29.2422172,26.1783108 L15.5034169,26.1155847 L15.5034169,26.1155847 Z M80.9202733,13.4449148 C76.9498861,14.4485322 74.2399393,15.2012453 70.332574,16.2048627 C69.3872437,16.4557671 69.3242217,16.5184931 68.5049355,15.5776018 C67.5596052,14.5112583 66.8663629,13.8212713 65.5429005,13.1940104 C61.5725133,11.2495017 57.7281701,11.8140365 54.135915,14.1349018 C49.8504176,16.8948497 47.6446469,20.9720454 47.7076689,26.0528586 C47.770691,31.0709457 51.2369021,35.2108676 56.2156416,35.9008546 C60.501139,36.4653894 64.0933941,34.9599632 66.929385,31.7609327 C67.4965831,31.0709457 68.0007593,30.3182327 68.6309795,29.4400674 L56.4677297,29.4400674 C55.1442673,29.4400674 54.8291572,28.6246283 55.2703113,27.5582848 C56.0895976,25.613776 57.602126,22.3520194 58.4844343,20.7211411 C58.6735004,20.3447846 59.1146545,19.7175237 60.0599848,19.7175237 L83,19.7175237 C82.873956,21.4111281 82.873956,23.1047325 82.6218679,24.7983369 C81.9286257,29.3146152 80.2270311,33.4545371 77.4540623,37.0926502 C72.9164768,43.0516287 66.992407,46.7524679 59.4927866,47.7560853 C53.3166287,48.5715245 47.5816249,47.3797288 42.5398633,43.6161635 C37.8762339,40.1035025 35.229309,35.4617719 34.5360668,29.6909718 C33.7167806,22.8538281 35.7334852,16.7066714 39.8929385,11.3122278 C44.3675019,5.47870154 50.2915718,1.7778623 57.539104,0.460614439 C63.4631739,-0.605729069 69.1351557,0.0842579071 74.2399393,3.53419279 C77.5801063,5.72960589 79.9749431,8.74045815 81.5504935,12.3785713 C81.9286257,12.9431061 81.6765376,13.2567365 80.9202733,13.4449148 Z"/>
    <path d="M101.429326,48 C95.712626,47.8733649 90.498493,46.2271081 86.1010315,42.4280539 C82.3945996,39.1988579 80.0702271,35.0832159 79.3163765,30.2077631 C78.1856007,23.0528778 80.1330479,16.7211209 84.4048677,11.0858573 C88.9907919,5.00737065 94.5190293,1.8414922 101.994714,0.511823252 C108.402444,-0.62789299 114.433248,0.00528269993 119.898664,3.74101927 C124.861514,7.160168 127.939737,11.7823505 128.756408,17.8608372 C129.824363,26.408709 127.374349,33.3736416 121.532007,39.325493 C117.385829,43.5677702 112.297338,46.2271081 106.454996,47.4301419 C104.758833,47.7467297 103.062669,47.8100473 101.429326,48 L101.429326,48 Z M116.380695,22.4197021 C116.317874,21.5965737 116.317874,20.963398 116.192233,20.3302223 C115.061457,14.061783 109.344757,10.5159992 103.376773,11.9089857 C97.5344315,13.2386546 93.7651787,16.9743912 92.3831194,22.9262427 C91.2523435,27.8650131 93.6395369,32.867101 98.1626402,34.8932632 C101.617789,36.4128849 105.072937,36.2229322 108.402444,34.5133578 C113.365293,31.9173375 116.066591,27.8650131 116.380695,22.4197021 L116.380695,22.4197021 Z"/>
  </g>
</svg>
