<svg xmlns="http://www.w3.org/2000/svg" width="140" height="140" viewBox="0 0 140 140">
  <path fill="#FB503B" d="M128.482509,41.1174512 C127.562525,40.2008347 115.756061,25.3822007 113.762762,22.9378899 C111.616132,20.4935792 110.696148,20.9518874 109.316172,21.1046569 C107.936195,21.2574263 93.0631176,23.8545065 91.3764799,24.0072759 C89.6898423,24.3128147 88.6165274,24.9238924 89.6898423,26.4515866 C90.6098264,27.8265114 100.422991,41.5757595 102.569621,44.7839173 L63.4702929,54.1028521 L32.4974918,2.31401791 C31.2708463,0.480784839 30.9641849,-0.13029285 28.2042323,0.022476572 C25.4442797,0.175245994 3.82465128,2.00847906 2.2913443,2.00847906 C0.758037315,2.16124849 -0.928600365,2.77232617 0.604706617,6.43879231 C2.1380136,10.1052584 26.6709253,62.6579397 27.2842481,64.185634 C27.8975709,65.7133282 29.7375393,68.157639 33.8774681,67.2410224 C38.1707277,66.1716365 52.8904747,62.3524009 61.0170017,60.213629 C65.3102612,67.8521001 73.8967803,83.4345812 75.583418,85.7261225 C77.7300478,88.781511 79.2633548,88.1704333 82.4832994,87.2538167 C85.0899213,86.4899696 122.655942,73.0462605 124.34258,72.2824134 C126.029218,71.5185662 127.102533,71.060258 125.875887,69.3797943 C124.955903,68.157639 115.142738,54.8666992 109.929494,47.9920752 C113.4561,47.0754587 126.182548,43.7145314 127.562525,43.2562231 C129.095832,42.7979148 129.402493,42.0340677 128.482509,41.1174512 Z M57.4903956,55.6305463 C57.0304035,55.7833157 35.1041137,60.9774761 34.0307988,61.2830149 C32.8041532,61.5885538 32.8041532,61.4357844 32.8041532,60.9774761 C32.4974918,60.5191678 6.73793454,7.35540885 6.27794245,6.74433116 C5.97128105,6.13325347 5.97128105,5.52217578 6.27794245,5.52217578 C6.58460385,5.52217578 26.9775867,3.68894271 27.5909095,3.68894271 C28.357563,3.68894271 28.2042323,3.84171213 28.5108937,4.3000204 C28.5108937,4.3000204 57.1837342,53.6445438 57.6437263,54.4083909 C58.2570491,55.172238 57.9503877,55.4777769 57.4903956,55.6305463 L57.4903956,55.6305463 Z M119.129336,67.088253 C119.435998,67.6993307 119.89599,68.0048695 118.669344,68.3104084 C117.596029,68.7687166 81.716646,80.837501 80.9499925,81.1430399 C80.183339,81.4485787 79.7233469,81.6013481 78.8033627,80.2264233 C77.8833785,78.8514985 66.2302454,58.8387042 66.2302454,58.8387042 L104.409589,48.9086917 C105.329573,48.6031529 105.636235,48.4503835 106.249558,49.367 C106.86288,50.436386 118.822675,66.6299447 119.129336,67.088253 Z M121.582627,40.2008347 C120.662643,40.3536041 106.70955,43.8673008 106.70955,43.8673008 L95.2097474,28.2848197 C94.903086,27.8265114 94.5964246,27.3682032 95.3630781,27.2154338 C96.1297316,27.0626643 109.162841,24.771123 109.776164,24.6183536 C110.389487,24.4655842 110.849479,24.3128147 111.616132,25.3822007 C112.382786,26.2988172 122.19595,38.8259099 122.655942,39.2842181 C123.115934,39.7425264 122.502612,40.0480652 121.582627,40.2008347 Z" transform="translate(6 27)"/>
</svg>
