<svg xmlns="http://www.w3.org/2000/svg" width="140" height="140" viewBox="0 0 140 140">
  <path fill="#BFBFBF" d="M85.9317188,0.0271276596 C69.8535938,0.0271276596 58.3692188,14.8835106 46.8848438,25.8303191 C48.4160938,25.8303191 50.7129688,25.0484043 53.0098438,25.0484043 C56.8379688,25.0484043 60.6660938,25.8303191 64.4942188,27.3941489 C70.6192188,21.1388298 76.7442188,14.1015957 85.9317188,14.1015957 C90.5254688,14.1015957 95.8848438,16.4473404 99.7129688,19.575 C107.369219,27.3941489 107.369219,39.9047872 99.7129688,47.7239362 L79.8067188,68.0537234 C76.7442188,71.181383 70.6192188,73.5271277 66.0254688,73.5271277 C55.3067188,73.5271277 49.9473438,66.4898936 46.1192188,57.8888298 L36.1660938,68.0537234 C42.2910938,79.7824468 51.4785938,88.3835106 65.2598438,88.3835106 C74.4473438,88.3835106 82.8692188,84.4739362 88.2285938,78.218617 L108.134844,57.8888298 C115.025469,50.8515957 119.619219,42.2505319 119.619219,32.0856383 C118.087969,14.8835106 102.775469,0.0271276596 85.9317188,0.0271276596 L85.9317188,0.0271276596 Z M53.0098438,94.6388298 L46.1192188,101.676064 C43.0567188,104.803723 36.9317188,107.149468 32.3379688,107.149468 C27.7442188,107.149468 22.3848438,104.803723 18.5567188,101.676064 C10.9004688,93.8569149 10.9004688,80.5643617 18.5567188,73.5271277 L38.4629688,53.1973404 C41.5254688,50.0696809 47.6504688,47.7239362 52.2442188,47.7239362 C62.9629688,47.7239362 68.3223438,55.5430851 72.1504688,63.362234 L82.1035938,53.1973404 C75.9785938,41.468617 66.7910938,32.8675532 53.0098438,32.8675532 C43.8223438,32.8675532 35.4004688,36.7771277 30.0410938,43.0324468 L10.1348438,63.362234 C-2.88078125,76.6547872 -2.88078125,97.7664894 10.1348438,110.277128 C22.3848438,122.787766 43.8223438,123.569681 55.3067188,110.277128 L69.8535938,95.4207447 C67.5567188,96.2026596 65.2598438,96.2026596 62.9629688,96.2026596 C59.1348438,96.2026596 56.0723438,96.2026596 53.0098438,94.6388298 L53.0098438,94.6388298 Z" transform="translate(10 10)"/>
</svg>
