<svg xmlns="http://www.w3.org/2000/svg" width="140" height="140" viewBox="0 0 140 140" xmlns:xlink="http://www.w3.org/1999/xlink">
  <defs>
    <path id="a" d="M11.7097638,0.0834002938 L7.97527841,1.31447006 C7.97527841,1.31447006 8.45154652,20.1369693 1.63496697,21.4549397 C-2.85997692,26.6415468 2.32687074,243.006536 18.656348,22.1962205 C18.656348,22.1962205 13.0672713,19.4015224 12.0092855,14.6555629 C10.9516737,9.90637603 11.7097638,0.0834002938 11.7097638,0.0834002938 L11.7097638,0.0834002938 Z"/>
    <linearGradient id="c" x1="-70.443%" x2="160.736%" y1="56.045%" y2="44.147%">
      <stop stop-color="#929669" offset="0%"/>
      <stop stop-color="#929669" offset="23.077%"/>
      <stop stop-color="#FDFCF1" offset="100%"/>
    </linearGradient>
    <path id="d" d="M5.74587997,0.0130332354 C5.74587997,0.0130332354 38.1963036,21.2968031 30.5939627,65.4988347 C23.2725714,97.6124785 5.98681854,108.169647 4.12936044,112.20002 C2.08443643,115.052437 0.0248043324,120.108091 0.0248043324,120.108091 L1.4051218,30.6300892 C1.4051218,30.6300892 -1.44999396,3.30870402 5.74587997,0.0130332354 L5.74587997,0.0130332354 Z"/>
    <linearGradient id="f" x1="-16.607%" x2="78.15%" y1="99.299%" y2="2.536%">
      <stop stop-color="#45AA3A" offset="0%"/>
      <stop stop-color="#3D9439" offset="100%"/>
    </linearGradient>
    <path id="g" d="M28.8854553,0.0649179248 C28.8854553,0.0649179248 -1.55417216,20.7440698 0.197192074,57.230302 C1.94903469,93.7176512 23.4483207,111.657589 27.635641,114.912174 C30.3428033,117.785693 30.4547344,118.892897 30.6641378,121.727936 C32.5614822,117.669014 32.246006,61.1020417 32.4470582,54.4903435 C33.2270859,28.7526826 31.0156364,4.9233357 28.8854553,0.0649179248 L28.8854553,0.0649179248 Z"/>
    <linearGradient id="i" x1="-9.624%" x2="152.344%" y1="43.904%" y2="53.689%">
      <stop stop-color="#41A83B" offset="0%"/>
      <stop stop-color="#5EBC44" offset="100%"/>
    </linearGradient>
  </defs>
  <g fill="none" fill-rule="evenodd" transform="matrix(1 0 0 -1 38.125 140)">
    <g transform="translate(22.81 .497)">
      <mask id="b" fill="white">
        <use xlink:href="#a"/>
      </mask>
      <path fill="url(#c)" fill-rule="nonzero" d="M11.7097638,0.0834002938 L7.97527841,1.31447006 C7.97527841,1.31447006 8.45154652,20.1369693 1.63496697,21.4549397 C-2.85997692,26.6415468 2.32687074,243.006536 18.656348,22.1962205 C18.656348,22.1962205 13.0672713,19.4015224 12.0092855,14.6555629 C10.9516737,9.90637603 11.7097638,0.0834002938 11.7097638,0.0834002938" mask="url(#b)"/>
    </g>
    <g transform="translate(30.787 18.743)">
      <mask id="e" fill="white">
        <use xlink:href="#d"/>
      </mask>
      <path fill="url(#f)" fill-rule="nonzero" d="M5.74587997,0.0130332354 C5.74587997,0.0130332354 38.1963036,21.2968031 30.5939627,65.4988347 C23.2725714,97.6124785 5.98681854,108.169647 4.12936044,112.20002 C2.08443643,115.052437 0.0248043324,120.108091 0.0248043324,120.108091 L1.4051218,30.6300892 C1.4051218,30.6300892 -1.44999396,3.30870402 5.74587997,0.0130332354" mask="url(#e)"/>
    </g>
    <g transform="translate(0 17.502)">
      <mask id="h" fill="white">
        <use xlink:href="#g"/>
      </mask>
      <path fill="url(#i)" fill-rule="nonzero" d="M28.8854553,0.0649179248 C28.8854553,0.0649179248 -1.55417216,20.7440698 0.197192074,57.230302 C1.94903469,93.7176512 23.4483207,111.657589 27.635641,114.912174 C30.3428033,117.785693 30.4547344,118.892897 30.6641378,121.727936 C32.5614822,117.669014 32.246006,61.1020417 32.4470582,54.4903435 C33.2270859,28.7526826 31.0156364,4.9233357 28.8854553,0.0649179248" mask="url(#h)"/>
    </g>
  </g>
</svg>
