<svg xmlns="http://www.w3.org/2000/svg" width="140" height="140" viewBox="0 0 140 140">
  <path fill="#3C5AFD" d="M117.699089,9.30278634 C123.672151,15.2757784 126.773282,22.7578936 127,31.7496279 L127,95.2503721 C126.773282,104.239626 123.672647,111.724222 117.699089,117.697214 C111.726027,123.670206 104.241344,126.7713 95.25,127 L31.75,127 C22.7581603,126.771796 15.2759574,123.670702 9.30289536,117.697214 C3.32983328,111.724718 0.228206691,104.240122 0,95.2508682 L0,31.750124 C0.228206691,22.7583897 3.32933718,15.2762745 9.30289536,9.30328243 C15.2759574,3.32979426 22.7581603,0.228204016 31.75,0 L95.25,0 C104.241344,0.228204016 111.726027,3.32929816 117.699089,9.30278634 Z M108.940417,60.4006422 C106.944601,58.4152672 105.907252,55.9238747 105.8249,52.9264646 L105.8249,31.750124 C105.761399,28.7527139 104.732484,26.2573526 102.738652,24.263544 C100.744324,22.267751 98.2469492,21.240833 95.25,21.1778288 L84.6770848,21.1778288 L84.6770848,74.0745276 L42.3248996,21.1768366 L31.75,21.1768366 C28.7525547,21.2403369 26.2571642,22.267255 24.2633322,24.2630479 C22.2675159,26.2573526 21.2405858,28.7527139 21.1775809,31.7491318 L21.1775809,52.9264646 C21.0947319,55.9238747 20.0573837,58.4152672 18.0615674,60.4006422 C16.0672393,62.3835367 13.5718488,63.416904 10.5748996,63.4992559 C13.5718488,63.5835921 16.0677354,64.6169594 18.0610713,66.5998539 C20.0573837,68.5852288 21.0947319,71.0766214 21.1770848,74.0740315 L21.1770848,95.2503721 C21.2405858,98.2453017 22.2675159,100.743144 24.2633322,102.736952 C26.2576603,104.731257 28.7530508,105.759663 31.7495039,105.822667 L42.3248996,105.822667 L42.3248996,52.9269607 L84.6770848,105.824156 L95.25,105.824156 C98.2469492,105.760655 100.74482,104.731753 102.738652,102.737944 C104.73298,100.74364 105.761399,98.2462939 105.824404,95.2518604 L105.824404,74.0745276 C105.907252,71.0771175 106.944601,68.5857249 108.940417,66.60035 C110.934745,64.6174555 113.430136,63.5840882 116.427085,63.499752 C113.430136,63.416904 110.934249,62.3840328 108.940913,60.4011383 L108.940417,60.4006422 Z" transform="translate(7 7)"/>
</svg>
