<svg xmlns="http://www.w3.org/2000/svg" width="140" height="140" viewBox="0 0 140 140">
  <g fill="none" transform="translate(0 7)" opacity=".6">
    <path fill="#FFFFFF" d="M0.415289063,63.3619565 C0.415289063,73.9719783 10.7495977,83.8763217 27.041707,89.4593522 C23.7882422,105.879348 26.4589805,119.114404 35.378332,124.271157 C44.5460859,129.572026 58.2043594,125.90283 71.1680977,114.541852 C83.8046719,125.443974 96.5756367,129.734365 105.487277,124.562704 C114.64677,119.246926 117.43207,105.114587 114.088828,88.1816217 C131.058398,82.5571783 140.550563,74.1116783 140.550563,63.3619565 C140.550563,52.9982043 130.197527,44.0325565 114.124629,38.4854174 C117.723984,20.8528478 114.674309,7.93915652 105.385383,2.56926522 C96.4302305,-2.60791739 83.5105547,1.90444783 70.6883672,13.0914913 C57.3484453,1.21754348 44.5565508,-2.40747826 35.2775391,2.97732174 C26.3306484,8.16941304 23.7777773,21.6452174 27.041707,38.3689087 C11.2992773,43.8713217 0.415289063,53.0401696 0.415289063,63.3619565 Z"/>
    <path fill="#53C1DE" d="M110.720801,43.9939043 C109.396155,43.5383761 108.06027,43.1163813 106.714418,42.7283217 C106.937609,41.8191153 107.144003,40.9058475 107.333496,39.988987 C110.366098,25.2304826 108.383285,13.3410739 101.61198,9.42726522 C95.1199219,5.67358696 84.5019609,9.58739565 73.77825,18.9428783 C72.7215669,19.8668547 71.6883387,20.8174493 70.6795547,21.7937522 C70.0039995,21.1445686 69.3165065,20.5079869 68.6174297,19.8843348 C57.3787383,9.88004783 46.1136094,5.66475217 39.3494648,9.59015652 C32.8634648,13.3543261 30.9423398,24.5319826 33.6725625,38.5185478 C33.9442006,39.9036258 34.2509011,41.2815604 34.5923672,42.6510174 C32.9984063,43.1049043 31.4589727,43.5886087 29.9861836,44.1032348 C16.8103945,48.7083652 8.39555859,55.9263826 8.39555859,63.4127565 C8.39555859,71.1454 17.4283711,78.9012348 31.1527383,83.6035478 C32.2655818,83.9830738 33.387688,84.3347337 34.5180117,84.6582 C34.1508069,86.1335757 33.8248007,87.6189511 33.540375,89.112587 C30.9373828,102.856196 32.9703164,113.768809 39.4392422,117.509787 C46.1207695,121.372243 57.3346758,117.402113 68.2544648,107.832939 C69.1175391,107.076461 69.983918,106.274152 70.8513984,105.433191 C71.9440503,106.490085 73.0658766,107.516239 74.2155703,108.510457 C84.7927734,117.63513 95.2388906,121.319787 101.702309,117.56887 C108.377777,113.694817 110.546754,101.971613 107.730059,87.7084087 C107.515254,86.6189696 107.264648,85.5063391 106.98375,84.3732783 C107.771367,84.1402609 108.544113,83.899513 109.298133,83.6488261 C123.56557,78.9100696 132.847887,71.2486565 132.847887,63.4127565 C132.847887,55.8993261 124.162066,48.6327174 110.720801,43.9939043 Z"/>
    <path fill="#FFFFFF" d="M107.625961,78.5898087 C106.945746,78.8156478 106.247355,79.0337565 105.535746,79.2452391 C103.960512,74.2464087 101.834496,68.9306304 99.233707,63.4392609 C101.716078,58.0776522 103.759477,52.8303435 105.290648,47.8635391 C106.563504,48.2334957 107.799457,48.6227783 108.990246,49.0341478 C120.507082,53.0081435 127.531746,58.8849304 127.531746,63.4127565 C127.531746,68.2359957 119.944734,74.4976478 107.626512,78.5898087 L107.625961,78.5898087 Z M102.514711,88.7437348 C103.760027,95.0506652 103.93793,100.752965 103.112859,105.210665 C102.371508,109.216135 100.881094,111.886448 99.0381797,112.956009 C95.1160664,115.23207 86.7282188,112.273522 77.6832891,104.4702 C76.646168,103.575678 75.6013359,102.620417 74.55375,101.609939 C78.0605742,97.7646 81.5651953,93.2942 84.9855469,88.3301565 C91.0022813,87.7951 96.6863438,86.9199043 101.841105,85.7255522 C102.094465,86.7525957 102.320285,87.7592087 102.514711,88.7437348 L102.514711,88.7437348 Z M50.8238906,112.562861 C46.9921055,113.919552 43.9402266,113.958204 42.0956602,112.891957 C38.1696914,110.622522 36.5382773,101.859522 38.7639844,90.1065 C39.0286568,88.7175398 39.331703,87.3362059 39.6727734,85.9640913 C44.7702539,87.0943913 50.4130078,87.9077435 56.4440625,88.3980739 C59.8869961,93.2555478 63.4929609,97.7204261 67.1270156,101.63037 C66.3546822,102.379373 65.5640716,103.1092 64.7559023,103.819187 C59.9272031,108.051048 55.0885898,111.052665 50.8244414,112.562861 L50.8238906,112.562861 Z M32.8722773,78.5599913 C26.8037695,76.4805043 21.7922109,73.7781652 18.3569883,70.8295565 C15.2704102,68.1791217 13.7116992,65.548013 13.7116992,63.4127565 C13.7116992,58.8700217 20.4681328,53.0749565 31.7365664,49.1363 C33.1509171,48.6441017 34.5793376,48.1935189 36.0199922,47.7851304 C37.5776016,52.8634739 39.6204492,58.1731783 42.0857461,63.5425174 C39.5885039,68.9919217 37.5164648,74.3861087 35.9445352,79.524087 C34.9127244,79.228007 33.888329,78.9065447 32.8722773,78.5599913 L32.8722773,78.5599913 Z M38.8901133,37.4948174 C36.5509453,25.510987 38.1041484,16.4713478 42.013043,14.2030174 C46.1769492,11.7867043 55.3832578,15.2322696 65.0869219,23.8699261 C65.7071016,24.4221 66.3300352,25.0002261 66.9540703,25.5982304 C63.3387422,29.4905043 59.7658242,33.9217 56.3526328,38.751013 C50.4994805,39.2949043 44.8963828,40.1684435 39.7454766,41.3385 C39.4281844,40.0644965 39.1429727,38.7826779 38.8901133,37.4942652 L38.8901133,37.4948174 Z M92.5731094,50.783987 C91.3564761,48.6771288 90.0947107,46.5967911 88.7886914,44.5444217 C92.7598242,45.0469 96.5640703,45.7150304 100.136437,46.5328 C99.0640664,49.9789174 97.7273203,53.5824043 96.1531875,57.2764478 C95.0030555,55.0886187 93.8094582,52.9240336 92.5731094,50.783987 L92.5731094,50.783987 Z M70.681207,29.4071261 C73.1332852,32.0702609 75.5892188,35.0442696 78.0049453,38.2706217 C73.1046505,38.0384769 68.1961797,38.0373713 63.2957812,38.2673087 C65.7137109,35.0707739 68.1905742,32.1011826 70.681207,29.4071261 L70.681207,29.4071261 Z M48.6488555,50.8204304 C47.4279861,52.9434574 46.2567062,55.0947605 45.1359727,57.2725826 C43.5877266,53.5912391 42.2630977,49.9717391 41.1813633,46.4764783 C44.73225,45.6796913 48.5188711,45.0286783 52.4641172,44.5344826 C51.1434612,46.5995713 49.8713567,48.695465 48.6488555,50.8204304 L48.6488555,50.8204304 Z M52.5775781,82.6714783 C48.5017969,82.2153826 44.6578945,81.5975 41.1081094,80.8228 C42.206918,77.2656957 43.5607383,73.5683391 45.1420313,69.8080348 C46.2674895,71.9874711 47.4439163,74.140072 48.6703359,76.2640522 C49.9217723,78.4306875 51.2245565,80.5671032 52.5775781,82.6714783 L52.5775781,82.6714783 Z M70.8282656,97.7949696 C68.3084414,95.068887 65.7952266,92.0540174 63.3403945,88.8111 C65.7230742,88.9049696 68.1525703,88.9524565 70.6217227,88.9524565 C73.1586211,88.9524565 75.6663281,88.8955826 78.1343789,88.7851478 C75.7109414,92.0871478 73.2638203,95.1064348 70.8282656,97.7949696 Z M96.2038594,69.6164304 C97.8672187,73.4175957 99.2695078,77.0950739 100.383187,80.5919913 C96.7744687,81.4174913 92.878793,82.0823087 88.7738203,82.5759522 C90.0892795,80.4852638 91.3631213,78.3685465 92.5945898,76.2270565 C93.8464526,74.050633 95.0498404,71.8465452 96.2038594,69.6164304 L96.2038594,69.6164304 Z M87.988957,73.5644739 C86.1037429,76.8476757 84.1125345,80.0685516 82.0184883,83.2219957 C78.3260508,83.486487 74.5102383,83.6228739 70.6217227,83.6228739 C66.7491797,83.6228739 62.9818359,83.5019478 59.3538398,83.2661696 C57.2054825,80.1200679 55.1766061,76.8936176 53.2715625,73.5937391 C51.3754233,70.3113686 49.6043034,66.9579929 47.9620312,63.5408609 C49.6001263,60.1227051 51.3658942,56.7675331 53.2555898,53.4824609 L53.2555898,53.4835652 C55.1446927,50.1977934 57.1575966,46.9851387 59.2899492,43.8525478 C62.9911992,43.5720435 66.786082,43.4251652 70.6222734,43.4251652 C74.4755391,43.4251652 78.2753789,43.5731478 81.9755273,43.8558609 C84.0863116,46.9836312 86.0863413,50.1851031 87.9718828,53.4543 C89.8680766,56.7320636 91.6574096,60.0708003 93.337043,63.465213 C91.6746872,66.8942095 89.8910451,70.2627648 87.9895078,73.5644739 L87.988957,73.5644739 Z M98.9566641,14.0445435 C103.123875,16.4542304 104.744824,26.1708348 102.12641,38.9133522 C101.954787,39.7434502 101.768225,40.5703734 101.566816,41.3937174 C96.403793,40.1993652 90.7968398,39.3103652 84.9266133,38.7581913 C81.5068125,33.8764217 77.9636367,29.4374957 74.4066914,25.5954696 C75.3387582,24.6946243 76.2930058,23.8171333 77.2685508,22.9638087 C86.4566836,14.9473478 95.0439141,11.782287 98.9566641,14.0445435 L98.9566641,14.0445435 Z"/>
    <path fill="#53C1DE" d="M70.6217227,52.2715435 C76.7596289,52.2715435 81.7348359,57.2598826 81.7348359,63.4127565 C81.7348359,69.5661826 76.7596289,74.5545217 70.6217227,74.5545217 C64.4843672,74.5545217 59.5086094,69.5661826 59.5086094,63.4127565 C59.5086094,57.2598826 64.4843672,52.2715435 70.6217227,52.2715435"/>
  </g>
</svg>
