<svg xmlns="http://www.w3.org/2000/svg" width="140" height="140" viewBox="0 0 140 140">
  <g fill="#BFBFBF" transform="translate(5 5)">
    <path d="M104.929976 126.89078C108.892122 130.853244 115.316659 130.852927 119.279122 126.89078L123.034537 123.135366 126.789951 119.379634C130.752415 115.417488 130.752415 108.992951 126.789951 105.030488L113.020098 91.2606341C107.435171 91.2546098 99.7077805 87.3647561 92.9909024 80.6481951 86.3640732 74.0207317 82.4897561 66.4109756 82.3822683 60.844122 78.424561 58.0697317 72.9293659 58.4473659 69.3933659 61.9830488L65.6379512 65.7384634 61.8825366 69.493878C58.3468537 73.029878 57.9689024 78.5247561 60.7436098 82.4827805 66.3101463 82.5905854 73.9202195 86.4645854 80.5473659 93.0917317 87.2639268 99.8082927 91.1540976 107.535683 91.160122 113.120927L104.929976 126.89078zM105.293976 122.490756L122.38961 105.395122C122.967317 104.817415 123.903951 104.817415 124.482293 105.395439 125.059683 105.972829 125.06 106.90978 124.482293 107.487805L107.386659 124.583439C106.808634 125.161146 105.872 125.161146 105.293976 124.583439 104.715951 124.005415 104.715951 123.06878 105.293976 122.490756zM62.7043902 63.5896585L63.4891463 62.8049024 69.6549512 56.6394146 61.5835366 48.5683171C61.5835366 48.5683171 60.350122 48.2319024 59.2292683 48.680561 58.2203415 49.4653171 56.9872439 50.9222683 56.9872439 50.9222683L25.935 19.8700244C25.935 19.8700244 21.0067317 10.0093659 19.0427805 7.8212439 16.2940732 5.74536585 6.20512195.140463415 6.20512195.140463415 6.20512195.140463415 4.07502439.0282195122 2.95417073 1.14939024 2.58192683 1.52131707 2.3352439 1.768 2.16909756 1.93414634 1.83458537 2.26897561 1.83268293 2.27056098 1.83268293 2.27056098 1.66685366 2.43639024 1.41985366 2.68339024 1.04792683 3.05563415-.0732439024 4.1764878.039 6.30658537.039 6.30658537.039 6.30658537 5.64390244 16.3955366 7.72009756 19.1442439 9.90821951 21.1081951 19.768878 26.0361463 19.768878 26.0361463L50.821439 57.0883902C50.821439 57.0883902 49.3641707 58.322122 48.5794146 59.3307317 48.1310732 60.4515854 48.4671707 61.6846829 48.4671707 61.6846829L56.5389024 69.7560976 62.7043902 63.5896585z"/>
  </g>
</svg>
