<svg xmlns="http://www.w3.org/2000/svg" width="140" height="140" viewBox="0 0 140 140">
  <g fill="none" transform="translate(8 13)">
    <polygon fill="#FFAE00" points="62.5 0 125 72.511 97.925 109.145 62.5 112.935 27.075 109.145 0 72.511" transform="rotate(-180 62.5 56.467)"/>
    <polygon fill="#EC6C00" points="62.5 0 125 72.511 0 72.511" transform="rotate(-180 62.5 56.467)"/>
    <polygon fill="#FFAE00" points="37.196 0 74.393 72.511 0 72.511" transform="rotate(-180 49.848 56.467)"/>
    <polygon fill="#FFEFB4" points="37.196 40.424 74.393 0 0 0" transform="rotate(-180 49.848 20.212)"/>
    <polygon fill="#FFAE00" points="0 36.634 13.917 18.191 27.075 0 1.518 0" transform="rotate(-180 13.537 20.212)"/>
    <polygon fill="#FFAE00" points="0 36.634 13.917 18.191 27.075 0 1.518 0" transform="matrix(1 0 0 -1 97.925 40.424)"/>
    <polygon fill="#FED305" points="35.425 36.634 37.196 0 0 40.424" transform="rotate(-180 31.25 20.212)"/>
    <polygon fill="#FED305" points="35.425 36.634 37.196 0 0 40.424" transform="matrix(1 0 0 -1 62.5 40.424)"/>
  </g>
</svg>
