<svg xmlns="http://www.w3.org/2000/svg" width="140" height="140" viewBox="0 0 140 140">
  <g fill="none" transform="translate(21 10)">
    <g transform="translate(7.28)">
      <path fill="#000000" d="M82.2216838,40.9592195 C82.2216838,63.4357073 63.9438088,81.6564939 41.3958309,81.6564939 C18.8493088,81.6564939 0.572161765,63.4357073 0.572161765,40.9592195 C0.572161765,18.4863598 18.8485809,0.26775 41.3958309,0.26775 C63.9438088,0.26775 82.2216838,18.4863598 82.2216838,40.9592195 Z"/>
      <path fill="#FFFFFF" d="M59.2464044,15.3241524 C55.0993235,15.4656463 51.4792721,17.747689 48.7837059,20.8968354 C45.7991471,24.3543659 43.8162353,28.4511585 42.384375,32.6372012 C39.8263897,30.5459939 37.8543971,27.8401951 33.7480809,26.6632561 C30.5749853,25.7540671 27.2431985,26.1284817 24.1785662,28.4039939 C22.7285074,29.4844268 21.7275882,31.1163232 21.2522426,32.6553415 C20.0205662,36.6447439 22.5465221,40.1987805 23.6937574,41.4722256 L26.2029706,44.1504512 C26.7190809,44.6765183 27.9660441,46.0464695 27.3560294,48.0099695 C26.7008824,50.1483415 24.1159632,51.5291768 21.4655294,50.7172195 C20.2811691,50.3551402 18.5806985,49.4764268 18.9621397,48.2407134 C19.1186471,47.7335122 19.4826176,47.3518415 19.6784338,46.919378 C19.8560515,46.5413354 19.9426765,46.26125 19.9972721,46.0921829 C20.4813529,44.5183354 19.8189265,42.4684878 18.1264632,41.9467744 C16.5461029,41.4635183 14.9300735,41.8466402 14.3033162,43.8732683 C13.5921176,46.1763537 14.6985882,50.3565915 20.6225735,52.1749695 C27.5634926,54.3046341 33.4321544,50.5358171 34.2656471,45.6256159 C34.7904926,42.5497561 33.3957574,40.2619085 30.8435956,37.3239146 L28.7624118,35.028811 C27.5030735,33.7742317 27.0706765,31.6351341 28.3744191,29.991628 C29.4750662,28.6042622 31.0415956,28.0136159 33.6090441,28.70875 C37.3579412,29.7217012 39.0271103,32.3143049 41.8136691,34.4055122 C40.6649779,38.16925 39.9115588,41.9460488 39.2316618,45.3324695 L38.8138235,47.8583171 C36.8221765,58.2722683 35.3007794,63.99225 31.3480588,67.2756341 C30.5516912,67.8408841 29.4131912,68.6854939 27.6981618,68.7464451 C26.7969706,68.7732927 26.5065221,68.1557988 26.4941471,67.885872 C26.4744926,67.2582195 27.0058897,66.9687012 27.3589412,66.6871646 C27.8881544,66.3998232 28.6867059,65.9230976 28.6313824,64.3971402 C28.5746029,62.5947256 27.0757721,61.0310366 24.910875,61.1021463 C23.2882941,61.1565671 20.8162059,62.6774451 20.9093824,65.4637866 C21.0047426,68.3422805 23.6952132,70.4980671 27.7527574,70.3616524 C29.9212941,70.2876402 34.7650147,69.4096524 39.5366691,63.7549756 C45.0915882,57.2716524 46.6457426,49.8414085 47.8148162,44.4022378 L49.1200147,37.220878 C49.8421324,37.3072256 50.6188456,37.366 51.4618015,37.3863171 C58.3801544,37.5321646 61.8393309,33.961439 61.8917426,31.3623049 C61.9274118,29.7899085 60.8580662,28.2407317 59.3592353,28.2777378 C58.2884338,28.3074878 56.9424706,29.019311 56.6207206,30.4959268 C56.3033382,31.9435183 58.8212868,33.2517927 56.8536618,34.5252378 C55.4560147,35.4264451 52.9511691,36.060628 49.4221103,35.5461707 L50.0634265,32.011 C51.3729926,25.3078171 52.9882941,17.063439 59.1161029,16.8617195 C59.5637868,16.8406768 61.1958309,16.8805854 61.2344118,17.9588415 C61.2446029,18.3165671 61.1550662,18.4108963 60.7328603,19.2337378 C60.3019191,19.8751768 60.1403162,20.4237378 60.1614265,21.0506646 C60.2196618,22.7602012 61.5248603,23.8863476 63.4160515,23.8210427 C65.9441912,23.736872 66.6692206,21.284311 66.6277279,20.0239268 C66.5214485,17.059811 63.3891176,15.1877378 59.2464044,15.3241524 Z"/>
    </g>
    <g fill="#000000" transform="translate(0 92.152)">
      <path d="M63.8324338 6.44704268C67.9554926 6.44704268 70.7223971 9.41768902 70.7223971 13.5260915 70.7223971 17.3993963 67.9030809 20.6065915 63.8324338 20.6065915 59.7363088 20.6065915 56.9155368 17.3993963 56.9155368 13.5260915 56.9162647 9.41768902 59.6824412 6.44704268 63.8324338 6.44704268zM63.8324338 18.5922988C66.7573015 18.5922988 68.0610441 15.9409207 68.0610441 13.5260915 68.0610441 10.9552561 66.4930588 8.46206098 63.8324338 8.46206098 61.1470588 8.46206098 59.5768897 10.9552561 59.5768897 13.5260915 59.5776176 15.9409207 60.8799044 18.5922988 63.8324338 18.5922988zM56.5734044 7.70525L56.5734044 6.76413415 52.9817426 6.76413415 52.9817426 5.47907927C52.9817426 3.64981707 53.2474412 2.26898171 55.4014191 2.26898171 55.4429118 2.26898171 55.4836765 2.27188415 55.5251691 2.27333537 55.5295368 2.27333537 55.5295368 2.26753049 55.5353603 2.26753049 56.1308162 2.31179268 56.6287279 1.82563415 56.6629412 1.22990854L56.7073456.413597561C56.2014265.333054878 55.6678456.253237805 55.0308971.253237805 51.3344118.253237805 50.4827206 2.40176829 50.4827206 5.69095732L50.4827206 6.76413415 47.2892426 6.76413415 47.2892426 7.81409146C47.3700441 8.35829878 47.8381103 8.77770122 48.4080882 8.77770122 48.411 8.77770122 48.4139118 8.78060366 48.4168235 8.78060366L50.4827206 8.78060366 50.4827206 20.2880488 51.8607132 20.2880488C51.863625 20.2880488 51.8621691 20.2865976 51.8650809 20.2865976 52.4365147 20.2865976 52.9060368 19.859939 52.9824706 19.3099268L52.9824706 8.77987805 55.4836765 8.77987805C56.0740368 8.7610122 56.5464706 8.29226829 56.5734044 7.70525zM23.2657279 6.76413415C23.2606324 6.76413415 23.2584485 6.76703659 23.252625 6.76703659 22.7248676 6.76703659 22.2145809 7.12839024 21.9925588 7.616L18.5508529 17.955939 18.4977132 17.955939 15.1324412 7.62180488C14.9126029 7.13129268 14.3994044 6.76703659 13.8694632 6.76703659 13.8643676 6.76703659 13.8621838 6.76413415 13.8563603 6.76413415L12.1129412 6.76413415 16.7149853 19.3868415C16.8758603 19.8374451 17.1946985 20.5275 17.1946985 20.8184695 17.1946985 21.0833171 16.4492868 24.1599024 14.2137794 24.1599024 14.1584559 24.1599024 14.1031324 24.1540976 14.0478088 24.1497439 13.4778309 24.1185427 13.0468897 24.5154512 12.9508015 25.1264146L12.8831029 25.9891646C13.3351544 26.0682561 13.7886618 26.1749207 14.5872132 26.1749207 17.8847868 26.1749207 18.8696912 23.1774268 19.8007279 20.5797439L24.8024118 6.76340854 23.2657279 6.76340854 23.2657279 6.76413415zM7.36894853 9.51201829C5.30305147 8.45915854 3.04425 7.74298171 3.00421324 5.62492683 3.01076471 3.37263415 5.08539706 2.7819878 6.68468382 2.78489024 6.69123529 2.78343902 6.69851471 2.78343902 6.70142647 2.78343902 7.39588235 2.78343902 7.95130147 2.85164634 8.49288971 2.97064634 8.50089706 2.97064634 8.49944118 2.96193902 8.50817647 2.96193902 9.08106618 3.00329878 9.56150735 2.55632317 9.62993382 1.99397561L9.67506618 1.17621341C8.62755882.917170732 7.53127941.785109756 6.57840441.785109756 3.10102941.806152439.520477941 2.5512439.511742647 5.87743902.516110294 8.78713415 2.48373529 9.91328049 4.59840441 10.9356646 6.67376471 11.9290244 8.94566912 12.7511402 8.96532353 15.1507317 8.95222059 17.6562622 6.52817647 18.580689 4.85682353 18.5828659 3.87919853 18.5799634 2.81786029 18.3361585 1.92467647 18.0553476 1.36416176 17.9631951.904830882 18.4566098.832764706 19.1082073L.757058824 19.8367195C1.98582353 20.233628 3.24588971 20.5775671 4.51250735 20.5775671 4.51250735 20.5775671 4.51396324 20.5775671 4.51614706 20.5775671 4.51978676 20.5775671 4.52269853 20.5775671 4.52852206 20.5775671 8.42300735 20.5492683 11.4490588 19.0015427 11.4607059 14.9823902 11.4548824 11.8804085 9.47488235 10.5793902 7.36894853 9.51201829zM45.1905882 20.2887744C45.1920441 20.2887744 45.1920441 20.2873232 45.1935 20.2873232 45.7336324 20.2873232 46.1827721 19.9114573 46.2985147 19.4057073L46.2985147 11.6184634C46.2985147 8.67466463 45.0486397 6.44704268 41.5880074 6.44704268 40.3650662 6.44704268 38.3180956 7.13709756 37.3870588 9.07302439 36.6678529 7.24231098 35.0991397 6.44704268 33.5296985 6.44704268 31.5336838 6.44704268 30.1775294 7.1624939 29.2210147 8.72763415L29.1671471 8.72763415 29.1671471 7.88737805C29.1584118 7.26770732 28.6568603 6.7677622 28.0337426 6.7677622 28.029375 6.7677622 28.0264632 6.76485976 28.0220956 6.76485976L26.8253603 6.76485976 26.8253603 20.2895 28.1793309 20.2895C28.1807868 20.2895 28.1807868 20.2880488 28.1822426 20.2880488 28.809 20.2880488 29.3171029 19.7822988 29.3171029 19.1582744 29.3171029 19.1415854 29.3229265 19.1343293 29.3265662 19.1227195L29.3265662 13.4752988C29.3265662 10.9552561 30.3362206 8.46278659 32.8898382 8.46278659 34.9113309 8.46278659 35.3124265 10.557622 35.3124265 12.2279756L35.3124265 20.2887744 36.6845956 20.2887744C36.6860515 20.2887744 36.6860515 20.2873232 36.6889632 20.2873232 37.2800515 20.2873232 37.7597647 19.8352683 37.8121765 19.2598598L37.8121765 13.4745732C37.8121765 10.9545305 38.8232868 8.46206098 41.3761765 8.46206098 43.3976691 8.46206098 43.7973088 10.5568963 43.7973088 12.22725L43.7973088 20.2880488 45.1905882 20.2880488 45.1905882 20.2887744zM83.8326176 20.2887744C83.8355294 20.2887744 83.8355294 20.2873232 83.8369853 20.2873232 84.4455441 20.2873232 84.9376324 19.8084207 84.9660221 19.2090671L84.9660221 12.2548232C84.9660221 8.62242073 83.395125 6.44704268 79.8835368 6.44704268 77.9952574 6.44704268 76.1885074 7.37509756 75.4416397 8.91411585L75.3892279 8.91411585 75.3892279 7.90334146C75.3892279 7.90189024 75.3863162 7.90189024 75.3863162 7.8989878 75.3863162 7.2742378 74.8789412 6.76631098 74.2529118 6.76631098 74.2470882 6.76631098 74.2441765 6.76340854 74.2398088 6.76340854L72.9659118 6.76340854 72.9659118 20.2880488 74.3409926 20.2880488C74.3409926 20.2880488 74.3409926 20.2865976 74.3439044 20.2865976 74.9379044 20.2865976 75.4212574 19.8272866 75.4685735 19.2460732L75.4685735 14.0296646C75.4685735 10.743378 76.7468382 8.46133537 79.5916324 8.46133537 81.774 8.59484756 82.4633603 10.1324146 82.4633603 13.2866402L82.4633603 20.2873232 83.8326176 20.2873232 83.8326176 20.2887744zM97.2937059 6.76413415C97.2893382 6.76413415 97.2878824 6.76703659 97.2806029 6.76703659 96.7543015 6.76703659 96.2425588 7.12839024 96.0212647 7.616L92.5817426 17.955939 92.5264191 17.955939 89.1611471 7.62180488C88.9405809 7.13129268 88.4273824 6.76703659 87.8974412 6.76703659 87.8930735 6.76703659 87.8901618 6.76413415 87.8857941 6.76413415L86.142375 6.76413415 90.7444191 19.3868415C90.9038382 19.8374451 91.2248603 20.5275 91.2248603 20.8184695 91.2248603 21.0833171 90.4787206 24.1599024 88.2432132 24.1599024 88.1878897 24.1599024 88.1325662 24.1540976 88.0765147 24.1497439 87.5079926 24.1185427 87.0770515 24.5154512 86.9802353 25.1264146L86.9132647 25.9891646C87.3653162 26.0682561 87.8188235 26.1749207 88.6151912 26.1749207 91.9149485 26.1749207 92.899125 23.1774268 93.8301618 20.5797439L98.8318456 6.76340854 97.2937059 6.76340854 97.2937059 6.76413415z"/>
    </g>
  </g>
</svg>
