<svg xmlns="http://www.w3.org/2000/svg" width="140" height="140" viewBox="0 0 140 140">
  <g fill="#BFBFBF" transform="translate(5 5)">
    <path d="M40.415,56.11 L32.095,75 C31.89,75.47 31.375,75.77 30.81,75.77 L26.55,75.77 C25.985,75.77 25.47,75.465 25.27,75 L21.32,65.985 C20.935,65.095 20.585,64.245 20.255,63.4 C19.89,64.33 19.515,65.195 19.14,66.025 L14.975,75.025 C14.765,75.48 14.255,75.77 13.7,75.77 L9.44,75.77 C8.855,75.77 8.345,75.455 8.145,74.98 L0.36,56.085 C0.21,55.715 0.27,55.305 0.53,54.98 C0.79,54.655 1.205,54.465 1.655,54.465 L6.45,54.465 C7.055,54.465 7.585,54.81 7.765,55.31 L11.185,64.91 C11.47,65.72 11.735,66.485 11.98,67.215 C12.28,66.485 12.605,65.715 12.95,64.9 L17.16,55.24 C17.365,54.775 17.875,54.465 18.44,54.465 L22.4,54.465 C22.975,54.465 23.485,54.78 23.69,55.25 L27.68,64.7 C28.04,65.55 28.36,66.345 28.655,67.095 C28.9,66.385 29.185,65.615 29.51,64.77 L33.195,55.28 C33.385,54.79 33.91,54.46 34.495,54.46 L39.125,54.46 C39.58,54.46 40,54.655 40.26,54.98 C40.525,55.32 40.575,55.735 40.415,56.11 Z M85.025,56.11 L76.705,75 C76.5,75.47 75.985,75.77 75.425,75.77 L71.155,75.77 C70.59,75.77 70.08,75.465 69.875,75 L65.93,65.985 C65.54,65.095 65.19,64.245 64.86,63.4 C64.495,64.33 64.12,65.195 63.745,66.025 L59.58,75.025 C59.37,75.48 58.865,75.77 58.305,75.77 L54.04,75.77 C53.46,75.77 52.945,75.455 52.745,74.98 L44.96,56.085 C44.81,55.715 44.87,55.305 45.13,54.98 C45.39,54.66 45.81,54.465 46.255,54.465 L51.05,54.465 C51.655,54.465 52.185,54.81 52.365,55.31 L55.78,64.91 C56.065,65.72 56.33,66.485 56.585,67.215 C56.88,66.485 57.2,65.715 57.545,64.9 L61.76,55.24 C61.96,54.775 62.47,54.465 63.04,54.465 L67,54.465 C67.575,54.465 68.09,54.78 68.29,55.25 L72.285,64.7 C72.64,65.55 72.96,66.345 73.25,67.095 C73.505,66.385 73.78,65.615 74.11,64.77 L77.795,55.28 C77.985,54.79 78.515,54.46 79.1,54.46 L83.73,54.46 C84.19,54.46 84.615,54.655 84.865,54.98 C85.13,55.32 85.19,55.735 85.025,56.11 Z M129.63,56.11 L121.315,75 C121.105,75.47 120.595,75.77 120.03,75.77 L115.765,75.77 C115.2,75.77 114.685,75.465 114.485,75 L110.54,65.985 C110.15,65.095 109.8,64.245 109.47,63.4 C109.105,64.33 108.725,65.195 108.35,66.025 L104.185,75.025 C103.975,75.48 103.465,75.77 102.91,75.77 L98.65,75.77 C98.065,75.77 97.55,75.455 97.35,74.98 L89.565,56.085 C89.42,55.715 89.47,55.305 89.73,54.98 C89.99,54.655 90.41,54.465 90.86,54.465 L95.66,54.465 C96.265,54.465 96.795,54.81 96.97,55.31 L100.39,64.91 C100.675,65.72 100.94,66.485 101.19,67.215 C101.485,66.485 101.805,65.715 102.15,64.9 L106.365,55.24 C106.57,54.775 107.08,54.465 107.65,54.465 L111.605,54.465 C112.18,54.465 112.695,54.78 112.895,55.25 L116.885,64.7 C117.245,65.55 117.57,66.345 117.865,67.095 C118.11,66.385 118.395,65.615 118.72,64.77 L122.41,55.28 C122.595,54.79 123.12,54.46 123.71,54.46 L128.34,54.46 C128.8,54.46 129.22,54.655 129.475,54.98 C129.73,55.32 129.79,55.735 129.63,56.11 Z"/>
    <path d="M11.55 45C12.965 41.41 14.735 37.995 16.835 34.815 17.145 34.875 17.435 35 17.76 35L27.16 35C26.165 38.17 25.385 41.545 24.71 45L34.985 45C35.76 41.505 36.66 38.12 37.795 35L87.725 35C88.86 38.12 89.76 41.505 90.535 45L100.81 45C100.135 41.545 99.355 38.17 98.36 35L107.76 35C108.085 35 108.375 34.875 108.69 34.815 110.78 37.995 112.555 41.41 113.97 45L124.575 45C116.12 18.92 91.62 0 62.76 0 33.9 0 9.4 18.92.94 45L11.55 45zM100.39 25L94.45 25C93.16 22.285 91.74 19.75 90.195 17.405 93.895 19.545 97.305 22.095 100.39 25zM62.76 10C70.515 10 77.675 15.77 83.07 25L42.45 25C47.845 15.77 55.005 10 62.76 10zM35.315 17.405C33.775 19.75 32.355 22.285 31.065 25L25.13 25C28.215 22.095 31.625 19.545 35.315 17.405zM113.97 85C112.555 88.595 110.78 92 108.685 95.185 108.375 95.125 108.085 95 107.76 95L98.355 95C99.35 91.83 100.13 88.455 100.805 85L90.53 85C89.76 88.495 88.855 91.885 87.72 95L37.795 95C36.66 91.885 35.76 88.495 34.985 85L24.715 85C25.39 88.455 26.17 91.83 27.165 95L17.76 95C17.435 95 17.145 95.125 16.835 95.185 14.74 92 12.965 88.595 11.55 85L.94 85C9.4 111.08 33.9 130 62.76 130 91.62 130 116.12 111.08 124.575 85L113.97 85zM25.13 105L31.07 105C32.36 107.715 33.78 110.255 35.32 112.595 31.625 110.455 28.215 107.905 25.13 105zM62.76 120C55.005 120 47.845 114.23 42.45 105L83.065 105C77.675 114.23 70.515 120 62.76 120zM90.2 112.595C91.745 110.255 93.165 107.715 94.455 105L100.395 105C97.305 107.905 93.895 110.455 90.2 112.595z" transform="translate(2)"/>
  </g>
</svg>
