<svg xmlns="http://www.w3.org/2000/svg" width="646" height="100" viewBox="0 0 646 100">
  <defs>
    <linearGradient id="a" x1="24.519%" x2="24.581%" y1="-20.246%" y2="134.399%">
      <stop stop-color="#C15454" offset="0%"/>
      <stop stop-color="#A24343" offset="43.578%"/>
      <stop stop-color="#7F3030" offset="71.827%"/>
      <stop stop-color="#622121" offset="100%"/>
    </linearGradient>
  </defs>
  <path fill="url(#a)" fill-rule="evenodd" d="M0.542675654,49.182 C0.542675654,43.2019701 1.66966438,37.314029 3.92367565,31.518 C6.17768692,25.721971 9.46665403,20.524023 13.7906757,15.924 C18.1146973,11.323977 23.3586448,7.59801426 29.5226757,4.746 C35.6867065,1.89398574 42.7246361,0.468 50.6366757,0.468 C60.112723,0.468 68.3236409,2.42298045 75.2696757,6.333 C82.2157104,10.2430195 87.3906586,15.4179678 90.7946757,21.858 L70.2326757,36.486 C69.3126711,34.093988 68.0936832,32.1160078 66.5756757,30.552 C65.0576681,28.9879922 63.3786849,27.7460046 61.5386757,26.826 C59.6986665,25.9059954 57.7896855,25.2620018 55.8116757,24.894 C53.8336658,24.5259982 51.9246849,24.342 50.0846757,24.342 C46.2206563,24.342 42.8856897,25.1009924 40.0796757,26.619 C37.2736616,28.1370076 34.9736846,30.1149878 33.1796757,32.553 C31.3856667,34.9910122 30.05168,37.7509846 29.1776757,40.833 C28.3036713,43.9150154 27.8666757,46.9739848 27.8666757,50.01 C27.8666757,53.414017 28.3726706,56.6799844 29.3846757,59.808 C30.3966807,62.9360156 31.868666,65.695988 33.8006757,68.088 C35.7326853,70.480012 38.1016616,72.3889929 40.9076757,73.815 C43.7136897,75.2410071 46.8646582,75.954 50.3606757,75.954 C52.2006849,75.954 54.086666,75.7470021 56.0186757,75.333 C57.9506853,74.9189979 59.8136667,74.2290048 61.6076757,73.263 C63.4016846,72.2969952 65.0116685,71.0550076 66.4376757,69.537 C67.8636828,68.0189924 68.9906715,66.156011 69.8186757,63.948 L91.7606757,77.058 C90.2886683,80.6460179 88.0576906,83.8659857 85.0676757,86.718 C82.0776607,89.5700143 78.6736947,91.9619903 74.8556757,93.894 C71.0376566,95.8260097 66.9436975,97.2979949 62.5736757,98.31 C58.2036538,99.3220051 53.9486964,99.828 49.8086757,99.828 C42.5406393,99.828 35.8937058,98.3790145 29.8676757,95.481 C23.8416455,92.5829855 18.6436975,88.7420239 14.2736757,83.958 C9.9036538,79.1739761 6.52268761,73.7460304 4.13067565,67.674 C1.73866369,61.6019696 0.542675654,55.4380313 0.542675654,49.182 Z M143.763054,99.828 C136.311017,99.828 129.549084,98.4020143 123.477054,95.55 C117.405024,92.6979857 112.207076,88.9490232 107.883054,84.303 C103.559032,79.6569768 100.201066,74.3440299 97.809054,68.364 C95.4170421,62.3839701 94.221054,56.2200317 94.221054,49.872 C94.221054,43.4319678 95.4630416,37.2220299 97.947054,31.242 C100.431066,25.2619701 103.904032,19.9950228 108.366054,15.441 C112.828076,10.8869772 118.118023,7.25301357 124.236054,4.539 C130.354085,1.82498643 137.047018,0.468 144.315054,0.468 C151.767091,0.468 158.529024,1.89398574 164.601054,4.746 C170.673084,7.59801426 175.871032,11.3699765 180.195054,16.062 C184.519076,20.7540235 187.854042,26.0899701 190.200054,32.07 C192.546066,38.0500299 193.719054,44.1679687 193.719054,50.424 C193.719054,56.8640322 192.477066,63.0509703 189.993054,68.985 C187.509042,74.9190297 184.059076,80.1629772 179.643054,84.717 C175.227032,89.2710228 169.960085,92.9279862 163.842054,95.688 C157.724023,98.4480138 151.03109,99.828 143.763054,99.828 Z M121.545054,50.148 C121.545054,53.4600166 122.005049,56.6569846 122.925054,59.739 C123.845059,62.8210154 125.225045,65.557988 127.065054,67.95 C128.905063,70.342012 131.22804,72.2739926 134.034054,73.746 C136.840068,75.2180074 140.175035,75.954 144.039054,75.954 C147.903073,75.954 151.26104,75.1950076 154.113054,73.677 C156.965068,72.1589924 159.288045,70.1810122 161.082054,67.743 C162.876063,65.3049878 164.21005,62.5220156 165.084054,59.394 C165.958058,56.2659844 166.395054,53.0920161 166.395054,49.872 C166.395054,46.5599834 165.935059,43.3630154 165.015054,40.281 C164.095049,37.1989846 162.692063,34.4850117 160.806054,32.139 C158.920045,29.7929883 156.574068,27.9070071 153.768054,26.481 C150.96204,25.0549929 147.673073,24.342 143.901054,24.342 C140.037035,24.342 136.702068,25.0779926 133.896054,26.55 C131.09004,28.0220074 128.767063,29.9769878 126.927054,32.415 C125.087045,34.8530122 123.730058,37.6129846 122.856054,40.695 C121.98205,43.7770154 121.545054,46.9279839 121.545054,50.148 Z M231.921432,50.838 L231.921432,99 L205.011432,99 L205.011432,1.02 L225.987432,1.02 L265.317432,50.838 L265.317432,1.02 L292.227432,1.02 L292.227432,99 L270.837432,99 L231.921432,50.838 Z M385.215811,24.48 L357.063811,24.48 L357.063811,99 L330.153811,99 L330.153811,24.48 L301.863811,24.48 L301.863811,1.02 L385.215811,1.02 L385.215811,24.48 Z M411.274189,1.02 L435.838189,1.02 L469.786189,99 L442.462189,99 L436.528189,79.818 L410.446189,79.818 L404.650189,99 L377.188189,99 L411.274189,1.02 Z M432.250189,61.878 L423.556189,31.518 L414.448189,61.878 L432.250189,61.878 Z M468.382568,49.182 C468.382568,43.2019701 469.509556,37.314029 471.763568,31.518 C474.017579,25.721971 477.306546,20.524023 481.630568,15.924 C485.954589,11.323977 491.198537,7.59801426 497.362568,4.746 C503.526598,1.89398574 510.564528,0.468 518.476568,0.468 C527.952615,0.468 536.163533,2.42298045 543.109568,6.333 C550.055602,10.2430195 555.230551,15.4179678 558.634568,21.858 L538.072568,36.486 C537.152563,34.093988 535.933575,32.1160078 534.415568,30.552 C532.89756,28.9879922 531.218577,27.7460046 529.378568,26.826 C527.538558,25.9059954 525.629577,25.2620018 523.651568,24.894 C521.673558,24.5259982 519.764577,24.342 517.924568,24.342 C514.060548,24.342 510.725582,25.1009924 507.919568,26.619 C505.113554,28.1370076 502.813577,30.1149878 501.019568,32.553 C499.225559,34.9910122 497.891572,37.7509846 497.017568,40.833 C496.143563,43.9150154 495.706568,46.9739848 495.706568,50.01 C495.706568,53.414017 496.212563,56.6799844 497.224568,59.808 C498.236573,62.9360156 499.708558,65.695988 501.640568,68.088 C503.572577,70.480012 505.941554,72.3889929 508.747568,73.815 C511.553582,75.2410071 514.70455,75.954 518.200568,75.954 C520.040577,75.954 521.926558,75.7470021 523.858568,75.333 C525.790577,74.9189979 527.653559,74.2290048 529.447568,73.263 C531.241577,72.2969952 532.85156,71.0550076 534.277568,69.537 C535.703575,68.0189924 536.830563,66.156011 537.658568,63.948 L559.600568,77.058 C558.12856,80.6460179 555.897583,83.8659857 552.907568,86.718 C549.917553,89.5700143 546.513587,91.9619903 542.695568,93.894 C538.877548,95.8260097 534.783589,97.2979949 530.413568,98.31 C526.043546,99.3220051 521.788588,99.828 517.648568,99.828 C510.380531,99.828 503.733598,98.3790145 497.707568,95.481 C491.681537,92.5829855 486.483589,88.7420239 482.113568,83.958 C477.743546,79.1739761 474.36258,73.7460304 471.970568,67.674 C469.578556,61.6019696 468.382568,55.4380313 468.382568,49.182 Z M645.274946,24.48 L617.122946,24.48 L617.122946,99 L590.212946,99 L590.212946,24.48 L561.922946,24.48 L561.922946,1.02 L645.274946,1.02 L645.274946,24.48 Z"/>
</svg>
