<svg xmlns="http://www.w3.org/2000/svg" width="117" height="140" viewBox="0 0 117 140">
  <g fill="none" fill-rule="evenodd">
    <path fill="#000000" d="M58.6625,0.591401869 L48.0649,0.591401869 L48.0649,35.6476636 C48.0649,35.6476636 36.3389,31.1349533 29.549,21.5011215 C21.5462,10.1441121 23.1101,0.253831776 23.1101,0.253831776 L1.0049,0.253831776 C1.0049,0.253831776 -0.6656,45.2566355 46.2215,59.0760748 L0.5031,59.0760748 L0.5031,69.8613084 L58.6118,69.8613084 L58.6118,2.78429907 L58.6625,0.591401869 Z"/>
    <path stroke="#000000" stroke-width=".8" d="M58.6625,0.591401869 L48.0649,0.591401869 L48.0649,35.6476636 C48.0649,35.6476636 36.3389,31.1349533 29.549,21.5011215 C21.5462,10.1441121 23.1101,0.253831776 23.1101,0.253831776 L1.0049,0.253831776 C1.0049,0.253831776 -0.6656,45.2566355 46.2215,59.0760748 L0.5031,59.0760748 L0.5031,69.86 L58.6118,69.86 L58.6118,2.78429907 L58.6625,0.591401869 Z"/>
    <path fill="#000000" d="M58.6625,0.591401869 L48.0649,0.591401869 L48.0649,35.6476636 C48.0649,35.6476636 36.3389,31.1349533 29.549,21.5011215 C21.5462,10.1441121 23.1101,0.253831776 23.1101,0.253831776 L1.0049,0.253831776 C1.0049,0.253831776 -0.6656,45.2566355 46.2215,59.0760748 L0.5031,59.0760748 L0.5031,69.8613084 L58.6118,69.8613084 L58.6118,2.78429907 L58.6625,0.591401869 Z"/>
    <path stroke="#000000" stroke-width=".8" d="M58.6625,0.591401869 L48.0649,0.591401869 L48.0649,35.6476636 C48.0649,35.6476636 36.3389,31.1349533 29.549,21.5011215 C21.5462,10.1441121 23.1101,0.253831776 23.1101,0.253831776 L1.0049,0.253831776 C1.0049,0.253831776 -0.6656,45.2566355 46.2215,59.0760748 L0.5031,59.0760748 L0.5031,69.86 L58.6118,69.86 L58.6118,2.78429907 L58.6625,0.591401869 Z"/>
    <path fill="#000000" d="M58.6625,139.129907 L48.0649,139.129907 L48.0649,104.073645 C48.0649,104.073645 36.3389,108.586355 29.549,118.221495 C21.5462,129.577196 23.1101,139.467477 23.1101,139.467477 L1.0049,139.467477 C1.0049,139.467477 -0.6656,94.4699065 46.2215,80.6504673 L0.5031,80.6504673 L0.5031,69.8613084 L58.6118,69.8613084 L58.6118,136.942243 L58.6625,139.129907 Z"/>
    <path stroke="#000000" stroke-width=".8" d="M58.6625,139.129907 L48.0649,139.129907 L48.0649,104.073645 C48.0649,104.073645 36.3389,108.586355 29.549,118.220187 C21.5462,129.577196 23.1101,139.467477 23.1101,139.467477 L1.0049,139.467477 C1.0049,139.467477 -0.6656,94.4699065 46.2215,80.6504673 L0.5031,80.6504673 L0.5031,69.86 L58.6118,69.86 L58.6118,136.942243 L58.6625,139.129907 Z"/>
    <path fill="#000000" d="M58.6625,0.591401869 L69.2601,0.591401869 L69.2601,35.6476636 C69.2601,35.6476636 80.9861,31.1349533 87.776,21.5011215 C95.7788,10.1441121 94.2149,0.253831776 94.2149,0.253831776 L116.3201,0.253831776 C116.3201,0.253831776 117.9906,45.2566355 71.1035,59.0760748 L116.8219,59.0760748 L116.8219,69.8613084 L58.7132,69.8613084 L58.7132,2.78429907 L58.6625,0.591401869 Z"/>
    <path stroke="#000000" stroke-width=".8" d="M58.6625,0.591401869 L69.2601,0.591401869 L69.2601,35.6476636 C69.2601,35.6476636 80.9861,31.1349533 87.776,21.5011215 C95.7788,10.1441121 94.2149,0.253831776 94.2149,0.253831776 L116.3201,0.253831776 C116.3201,0.253831776 117.9906,45.2566355 71.1035,59.0760748 L116.8219,59.0760748 L116.8219,69.86 L58.7132,69.86 L58.7132,2.78429907 L58.6625,0.591401869 Z"/>
    <path fill="#000000" d="M58.6625,139.129907 L69.2601,139.129907 L69.2601,104.073645 C69.2601,104.073645 80.9861,108.586355 87.776,118.221495 C95.7788,129.577196 94.2149,139.467477 94.2149,139.467477 L116.3201,139.467477 C116.3201,139.467477 117.9906,94.4699065 71.1035,80.6504673 L116.8219,80.6504673 L116.8219,69.8613084 L58.7132,69.8613084 L58.7132,136.942243 L58.6625,139.129907 Z"/>
    <path stroke="#000000" stroke-width=".8" d="M58.6625,139.129907 L69.2601,139.129907 L69.2601,104.073645 C69.2601,104.073645 80.9861,108.586355 87.776,118.220187 C95.7788,129.577196 94.2149,139.467477 94.2149,139.467477 L116.3201,139.467477 C116.3201,139.467477 117.9906,94.4699065 71.1035,80.6504673 L116.8219,80.6504673 L116.8219,69.86 L58.7132,69.86 L58.7132,136.942243 L58.6625,139.129907 Z"/>
  </g>
</svg>
