<svg xmlns="http://www.w3.org/2000/svg" width="140" height="48" viewBox="0 0 140 48">
  <path fill="#BFBFBF" d="M60.2275078,15.5844156 C60.2275078,6.2049062 45.4601861,2.5974026 33.8779731,2.5974026 C16.6494312,2.5974026 9.12099276,4.32900433 9.12099276,21.7893218 C9.12099276,31.6017316 12.450879,45.3102453 30.2585315,45.3102453 C38.221303,45.3102453 47.6318511,44.1558442 54.8707342,33.4776335 C57.6215098,29.004329 60.2275078,21.5007215 60.2275078,15.5844156 Z M105.977249,2.88600289 C91.6442606,2.88600289 80.0620476,6.2049062 80.0620476,15.5844156 C80.0620476,19.047619 81.3650465,26.2626263 84.1158221,31.7460317 C89.1830403,41.2698413 97.1458118,45.3102453 108.872802,45.3102453 C126.97001,45.3102453 130.589452,36.0750361 130.589452,17.8932179 C130.589452,6.49350649 124.364012,2.88600289 105.977249,2.88600289 Z M33.8779731,0 C48.9348501,0 61.3857291,5.33910534 69.9276112,5.33910534 C79.3381593,5.33910534 89.762151,0.144300144 108.728025,0.144300144 C115.82213,0.144300144 131.602896,2.45310245 138.552223,3.31890332 C139.565667,3.46320346 139.855222,3.60750361 139.855222,4.76190476 C140,7.07070707 140,9.37950938 140,11.8326118 C140,12.6984127 139.565667,12.987013 139.131334,12.987013 C136.959669,12.987013 135.801448,15.4401154 135.367115,17.7489177 C134.643226,22.0779221 133.77456,26.4069264 132.761117,30.5916306 C129.576008,43.2900433 121.902792,47.6190476 108.293692,47.6190476 C90.4860393,47.6190476 83.6814891,40.4040404 77.4560496,23.8095238 C75.7187177,19.4805195 75.57394,14.8629149 69.9276112,14.8629149 C65.7290589,14.8629149 63.991727,19.1919192 62.3991727,23.8095238 C57.6215098,36.0750361 51.540848,47.4747475 30.9824199,47.4747475 C23.4539814,47.4747475 12.5956567,44.4444444 8.83143744,35.4978355 C7.09410548,31.024531 4.92244054,20.0577201 4.48810755,16.7388167 C4.05377456,14.5743146 3.04033092,13.2756133 1.01344364,12.5541126 C0.144777663,12.4098124 0,11.6883117 0,10.966811 C0,8.94660895 0,5.77200577 0.144777663,4.47330447 C0.289555326,3.03030303 0.579110651,2.5974026 2.17166494,2.45310245 C5.0672182,2.45310245 22.7300931,0 33.8779731,0 Z"/>
</svg>
