<svg xmlns="http://www.w3.org/2000/svg" width="140" height="140" viewBox="0 0 140 140">
  <path fill="#BFBFBF" d="M138.201446,83.5768271 C133.750861,75.3431299 126.071886,67.0217662 117.226715,61.9106677 L109.115142,38.7625263 L82.7728281,47.8812381 L67.3910786,1.65870661 C67.0620796,0.669327081 66.1310827,0 65.0824861,0 L65.0810861,0 C64.0310896,0 63.1000926,0.670718614 62.7724937,1.66288121 L51.5935304,35.439547 L22.8670246,28.267589 L16.6216451,52.9812043 C9.24646924,59.3613804 3.62548768,68.8571974 1.27909537,78.1359354 C-3.24848978,96.054698 4.3506853,113.3918 22.3742262,117.892016 C35.5817829,121.188556 47.8975425,114.816729 55.0095192,104.517998 C49.9583357,103.728999 45.60855,100.577178 42.55376,95.388154 C37.3401771,86.538008 37.2855773,73.9891689 42.4221604,65.5509165 L44.5025536,66.8032956 C39.801369,74.5276919 39.8643688,86.0342733 44.6509531,94.1663886 C47.6315434,99.2260004 51.9715291,102.054986 56.9303129,102.263716 C62.2166955,102.060552 64.523888,96.2648194 64.8864868,92.2001533 C65.715284,82.8894101 63.89529,71.7432356 59.324305,62.6453968 L65.3316853,38.8682828 L56.3213149,36.6195665 L65.0852861,10.135922 L78.1752432,49.4703681 L67.7620773,53.074437 L76.1942497,77.1382067 C73.5538583,86.4948705 74.1026565,97.4977171 77.2680462,106.53572 C83.3804261,123.981362 99.3095739,134.326013 116.859916,128.249191 C129.717474,123.796288 136.490652,111.753967 136.748251,99.2663548 C134.693058,100.190332 132.503465,100.664845 130.228472,100.664845 C127.340282,100.664845 124.324692,99.920375 121.292302,98.4286523 C112.048132,93.8769498 105.070555,83.4181924 104.700956,73.56336 L107.131348,73.4729104 C107.468747,82.4956064 113.877926,92.0804815 122.373098,96.2634279 C127.662281,98.866985 132.853464,98.8572443 137.12905,96.3163061 C141.414436,93.2563264 140.14044,87.1669806 138.201446,83.5768271 Z" transform="translate(0 5)"/>
</svg>
