<svg xmlns="http://www.w3.org/2000/svg" width="65" height="140" viewBox="0 0 65 140" xmlns:xlink="http://www.w3.org/1999/xlink">
  <defs>
    <path id="a" d="M11.5296136,0.0828045775 L7.85258182,1.30508099 C7.85258182,1.30508099 8.32152273,19.9931338 1.60981364,21.3016901 C-2.81597727,26.45125 2.29107273,241.270775 18.3693273,22.0376761 C18.3693273,22.0376761 12.8662364,19.2629401 11.8245273,14.5508803 C10.7831864,9.8356162 11.5296136,0.0828045775 11.5296136,0.0828045775 L11.5296136,0.0828045775 Z"/>
    <linearGradient id="c" x1="-70.443%" x2="160.736%" y1="56.045%" y2="44.147%">
      <stop stop-color="#929669" offset="0%"/>
      <stop stop-color="#929669" offset="23.077%"/>
      <stop stop-color="#FDFCF1" offset="100%"/>
    </linearGradient>
    <path id="d" d="M5.65748182,0.0129401408 C5.65748182,0.0129401408 37.6086682,21.1446831 30.1232864,65.0309859 C22.9145318,96.9152465 5.89471364,107.397007 4.06583182,111.398592 C2.05236818,114.230634 0.0244227273,119.250176 0.0244227273,119.250176 L1.38350455,30.4113028 C1.38350455,30.4113028 -1.42768636,3.28507042 5.65748182,0.0129401408 L5.65748182,0.0129401408 Z"/>
    <linearGradient id="f" x1="-16.607%" x2="78.15%" y1="99.299%" y2="2.536%">
      <stop stop-color="#45AA3A" offset="0%"/>
      <stop stop-color="#3D9439" offset="100%"/>
    </linearGradient>
    <path id="g" d="M28.4410636,0.0644542254 C28.4410636,0.0644542254 -1.53026182,20.5958979 0.19415835,56.8215141 C1.91904955,93.0482394 23.0875773,110.860035 27.2104773,114.091373 C29.8759909,116.944366 29.9862,118.043662 30.1923818,120.858451 C32.0605364,116.828521 31.7499136,60.6655986 31.9478727,54.1011268 C32.7159,28.5473063 30.5384727,4.88816901 28.4410636,0.0644542254 L28.4410636,0.0644542254 Z"/>
    <linearGradient id="i" x1="-9.624%" x2="152.344%" y1="43.904%" y2="53.689%">
      <stop stop-color="#41A83B" offset="0%"/>
      <stop stop-color="#5EBC44" offset="100%"/>
    </linearGradient>
  </defs>
  <g fill="none" fill-rule="evenodd" transform="matrix(1 0 0 -1 .86 139.224)">
    <g transform="translate(22.46 .493)">
      <mask id="b" fill="white">
        <use xlink:href="#a"/>
      </mask>
      <path fill="url(#c)" fill-rule="nonzero" d="M11.5296136,0.0828045775 L7.85258182,1.30508099 C7.85258182,1.30508099 8.32152273,19.9931338 1.60981364,21.3016901 C-2.81597727,26.45125 2.29107273,241.270775 18.3693273,22.0376761 C18.3693273,22.0376761 12.8662364,19.2629401 11.8245273,14.5508803 C10.7831864,9.8356162 11.5296136,0.0828045775 11.5296136,0.0828045775" mask="url(#b)"/>
    </g>
    <g transform="translate(30.314 18.61)">
      <mask id="e" fill="white">
        <use xlink:href="#d"/>
      </mask>
      <path fill="url(#f)" fill-rule="nonzero" d="M5.65748182,0.0129401408 C5.65748182,0.0129401408 37.6086682,21.1446831 30.1232864,65.0309859 C22.9145318,96.9152465 5.89471364,107.397007 4.06583182,111.398592 C2.05236818,114.230634 0.0244227273,119.250176 0.0244227273,119.250176 L1.38350455,30.4113028 C1.38350455,30.4113028 -1.42768636,3.28507042 5.65748182,0.0129401408" mask="url(#e)"/>
    </g>
    <g transform="translate(0 17.377)">
      <mask id="h" fill="white">
        <use xlink:href="#g"/>
      </mask>
      <path fill="url(#i)" fill-rule="nonzero" d="M28.4410636,0.0644542254 C28.4410636,0.0644542254 -1.53026182,20.5958979 0.19415835,56.8215141 C1.91904955,93.0482394 23.0875773,110.860035 27.2104773,114.091373 C29.8759909,116.944366 29.9862,118.043662 30.1923818,120.858451 C32.0605364,116.828521 31.7499136,60.6655986 31.9478727,54.1011268 C32.7159,28.5473063 30.5384727,4.88816901 28.4410636,0.0644542254" mask="url(#h)"/>
    </g>
  </g>
</svg>
