<svg xmlns="http://www.w3.org/2000/svg" width="140" height="140" viewBox="0 0 140 140">
  <path fill="#BFBFBF" d="M33.0907615,137.997088 C17.7622134,132.518071 6.63216886,118.884347 2.22535928,100.188601 C0.225382015,91.7032561 -0.340142859,77.6820895 1.31780987,77.6820895 C1.86864555,77.6820895 3.33981901,81.5294006 4.58711426,86.2316714 C7.31659858,96.5212827 11.9721078,106.197159 16.4690798,110.926827 C23.9386633,118.782829 42.4397714,121.859605 53.0998955,117.01856 C61.4038374,113.247483 64.7712767,104.284544 61.16033,95.5645989 C58.3699391,88.8264028 52.0396308,86.5732873 40.2482048,88.1214612 C40.2482048,88.1214612 33.0217651,80.3409552 30.7195123,66.5239864 L38.1265413,67.1957921 C47.0477964,68.0049484 53.7835671,66.0324278 57.2795363,61.5870232 C60.5646659,57.4095938 60.4936327,55.7939501 56.8378535,51.5428323 C51.5626197,45.4084963 42.0906559,46.9624567 22.912462,57.1085858 L13.2358657,40.8836408 L17.2926724,37.7885779 C27.4590689,30.0323158 45.1113864,26.154748 55.1573614,29.4710585 C64.307941,32.4917588 71.0242118,44.4777819 69.2301339,54.5853178 C68.0171566,61.418698 62.5391916,70.9896136 58.3070024,73.6698997 L54.6571788,75.981379 L59.6986512,78.255328 C68.2657273,82.119451 73.4957521,79.1655739 79.7443771,66.9336788 C88.3918678,50.006136 94.0003848,45.6240567 107.042143,45.6053014 C113.114634,45.5965603 115.275931,46.2337071 119.705027,49.3383399 C130.759095,57.086749 136.778015,73.1319269 135.456016,91.3262912 C133.781471,114.369431 122.869355,128.346293 106.553482,128.346293 C97.5991748,128.346293 91.8275608,125.204919 87.2332112,117.830647 C83.1978057,111.353252 81.3792835,98.524655 83.6967195,92.8813501 C84.8085215,90.1740079 85.0094843,90.082179 85.082167,92.2480465 C85.2157602,96.229928 89.7447704,102.701894 93.9027543,104.852603 C104.104606,110.129509 118.750121,103.499632 124.544407,90.9814391 C128.943618,81.4773824 126.583507,63.1453779 120.544706,59.9126708 C119.28133,59.2363558 116.15942,58.6830108 113.607342,58.6830108 C108.182306,58.6830108 103.921878,62.5841841 97.9487979,73.0212 C95.883735,76.6296266 92.4084037,81.2919122 90.2258337,83.3818108 C86.679715,86.7774414 85.4134281,87.1816289 78.3211986,87.1816289 L70.3846073,87.1816289 L72.9499837,92.8813501 C76.6219638,101.039693 76.4482328,114.295143 72.5636366,122.364549 C69.1311076,129.49505 61.1945203,136.714041 54.8495296,138.477105 C48.6728219,140.193382 38.6144403,139.971484 33.0907615,137.997088 Z M62.9778332,27.7317945 C59.4669238,21.7394217 57.3062526,10.5520173 59.6597742,10.5520173 C62.4242974,16.5510614 68.091342,21.9030995 74.1592893,25.6375531 C85.0578535,30.914748 96.1090073,28.7846857 108.182437,19.0797548 C110.840377,16.9432835 113.194152,15.4329726 113.413096,15.7235063 C116.361164,20.2996958 121.460688,24.0392537 123.146291,29.3569486 C123.146291,31.6006291 113.490085,38.0579212 105.870703,40.9093762 C86.9855366,46.3509462 74.1322836,44.1983728 62.9778332,27.7317945 Z M72.4947524,13.8799205 L84.7899097,0.243413122 L98.4536632,12.8952366 C93.7800331,16.7454869 90.4062736,22.7208967 85.0669731,25.7512784 C80.8481222,22.6404482 74.5514253,18.9725049 72.4947524,13.8799205 Z" transform="translate(2)"/>
</svg>
