<svg xmlns="http://www.w3.org/2000/svg" width="118" height="139" viewBox="0 0 118 139">
  <g fill="#BFBFBF">
    <path d="M114.803014 18.6871233C114.030137 17.92 95.6134247 0 59.7484932 0L59.1309589 0C23.0416438 0 4.85506849 17.2564384 4.09753425 17.9794521-.0430136986 21.9339726-.19260274 28.4986301 3.71780822 32.6947945 7.62821918 36.8928767 14.2254795 37.1210959 18.4619178 33.2663014 19.0027397 32.7715068 31.9805479 21.0958904 59.2536986 21.0958904L59.76 21.0958904C86.3580822 21.0958904 99.4375342 33.0438356 100.143288 33.7150685 102.18 35.6846575 104.815068 36.6838356 107.444384 36.6838356 110.133151 36.6838356 112.83726 35.600274 114.879726 33.5347945 118.941644 29.4230137 118.909041 22.7509589 114.803014 18.6871233zM99.7750685 39.6257534C96.8906849 39.6257534 94.5547945 41.7947945 94.5547945 44.6868493 93.730137 49.6309589 76.7575342 83.4131507 59.3821918 116.109863 42.1027397 83.589589 25.2183562 49.9972603 24.2249315 44.7693151 24.0830137 42.0019178 21.7950685 39.8060274 18.9969863 39.8060274 16.1068493 39.8060274 13.7652055 42.1438356 13.7652055 45.039726 13.7652055 52.22 39.4523288 101.162466 54.7736986 129.695616L59.380274 138.285479 63.9868493 129.695616C79.3082192 101.162466 104.99726 52.2219178 104.99726 45.039726 104.999178 42.1438356 102.667123 39.6257534 99.7750685 39.6257534z"/>
    <circle cx="45.883" cy="46.35" r="7.903"/>
    <path d="M51.4750685 83.3767123C51.4750685 87.739726 55.0153425 91.2838356 59.3783562 91.2838356 63.7432877 91.2838356 67.2854795 87.739726 67.2854795 83.3767123 67.2854795 79.0194521 63.7432877 75.4772603 59.3783562 75.4772603 55.0153425 75.4753425 51.4750685 79.0156164 51.4750685 83.3767123zM71.809589 60.8463014C76.180274 60.8463014 79.7205479 57.3021918 79.7205479 52.9391781 79.7205479 48.58 76.180274 45.039726 71.809589 45.039726 67.4465753 45.039726 63.9063014 48.58 63.9063014 52.9391781 63.9063014 57.3021918 67.4446575 60.8463014 71.809589 60.8463014z"/>
  </g>
</svg>
