<svg xmlns="http://www.w3.org/2000/svg" width="140" height="140" viewBox="0 0 140 140">
  <g fill="#BFBFBF" transform="translate(11)">
    <path d="M115.775921 18.821563C114.996494 18.0489209 96.4237079 0 60.2548363 0L59.6320687 0C23.236912 0 4.89621314 17.3805854 4.13225911 18.1088006-.0433782215 22.091771-.194234966 28.7036563 3.74931507 32.9300089 7.6928651 37.1582931 14.3460344 37.3881541 18.6183747 33.5056273 19.1637799 33.0072731 32.2515695 21.2476594 59.7558486 21.2476594L60.2664407 21.2476594C87.0899303 21.2476594 100.280225 33.2815611 100.99196 33.9576229 103.045932 35.9413817 105.703332 36.9477481 108.354929 36.9477481 111.066482 36.9477481 113.793508 35.8563911 115.853283 33.776052 119.949624 29.6346901 119.916745 22.9146349 115.775921 18.821563zM100.62062 39.9108308C97.7117924 39.9108308 95.3561063 42.0954765 95.3561063 45.0083374 94.5244602 49.9880162 77.4080218 84.0132453 59.8854307 116.945186 42.4595426 84.190953 25.432071 50.3569528 24.4302275 45.0913965 24.287107 42.3040899 21.9797725 40.0924017 19.1579777 40.0924017 16.243348 40.0924017 13.8818598 42.4470287 13.8818598 45.3637528 13.8818598 52.5956835 39.7866705 101.890253 55.2378825 130.628678L59.8834966 139.280339 64.5291107 130.628678C79.9803227 101.890253 105.887068 52.5976151 105.887068 45.3637528 105.889002 42.4470287 103.537184 39.9108308 100.62062 39.9108308z"/>
    <ellipse cx="46.272" cy="46.683" rx="7.97" ry="7.96"/>
    <path d="M51.9112979 83.9765448C51.9112979 88.3709471 55.4815742 91.9405539 59.8815626 91.9405539 64.283485 91.9405539 67.8556954 88.3709471 67.8556954 83.9765448 67.8556954 79.5879373 64.283485 76.0202621 59.8815626 76.0202621 55.4815742 76.0183305 51.9112979 79.5840741 51.9112979 83.9765448zM72.4181449 61.2840445C76.8258695 61.2840445 80.3961458 57.7144378 80.3961458 53.3200355 80.3961458 48.9294964 76.8258695 45.3637528 72.4181449 45.3637528 68.0181565 45.3637528 64.4478802 48.9294964 64.4478802 53.3200355 64.4478802 57.7144378 68.0162224 61.2840445 72.4181449 61.2840445z"/>
  </g>
</svg>
