<svg xmlns="http://www.w3.org/2000/svg" width="130" height="130" viewBox="0 0 130 130">
  <path fill="#02B3E4" d="M43.225,0 L0,25.025 L0,82.225 C0,108.55 21.125,130 47.45,130 C56.225,130 64.35,127.725 71.5,123.825 L106.6,103.675 C120.575,96.2 130,81.9 130,65 L130,5.2 L121.55,0.325 L84.5,20.15 L84.5,82.55 C84.5,85.15 84.175,87.75 83.85,90.35 C83.2,92.95 82.55,95.225 81.575,97.5 L80.6,99.45 C79.3,99.45 71.175,96.525 66.95,93.6 C65,92.3 63.375,91 61.75,89.375 C60.125,87.75 58.825,86.125 57.525,84.175 C56.225,82.225 55.25,80.275 54.275,78.325 C53.3,76.375 52.65,74.1 52.325,71.825 C52,69.55 52,67.275 52,65 L52,5.2 L43.225,0 Z M64.35,117.65 C62.075,118.625 58.825,119.925 56.225,120.575 C53.625,121.225 51.35,121.225 48.75,121.225 C46.15,121.225 43.55,120.9 40.95,120.25 C38.35,119.6 36.075,118.95 33.8,117.975 C31.525,117 29.25,115.7 27.3,114.4 C21.45,110.825 18.525,107.575 16.25,104 C14.95,102.05 13.65,99.775 12.675,97.5 C11.7,95.225 11.05,92.625 10.4,90.025 C9.75,87.425 9.75,84.825 9.75,82.225 L9.75,29.9 L42.25,10.075 L42.25,65 C42.25,85.8 57.525,103.35 77.025,107.575 C76.375,108.55 75.725,109.525 74.75,110.175 C71.175,113.75 68.25,116.025 64.35,117.65 L64.35,117.65 Z M119.6,72.15 C119.275,74.425 118.3,76.7 117.65,78.65 C116.675,80.6 115.7,82.55 114.4,84.5 C113.1,86.45 109.2,91.325 104,94.25 C98.8,97.175 93.925,98.15 91,98.8 C92.95,93.6 94.25,88.4 94.25,82.55 L94.25,25.025 L120.25,10.075 L120.25,65 C120.25,67.6 120.25,69.875 119.6,72.15 L119.6,72.15 Z"/>
</svg>
