<svg xmlns="http://www.w3.org/2000/svg" width="141" height="140" viewBox="0 0 141 140">
  <path fill="#BCBCBC" fill-rule="evenodd" d="M34.2044492,76.3636364 L34.2044492,123.679144 C34.2044492,131.315508 34.3538136,135.807487 34.9512712,139.101604 L22.404661,139.101604 C23.0021186,134.160428 23.3008475,129.518717 23.3008475,123.529412 L23.3008475,79.2085561 C17.625,85.7967914 13.8908898,89.540107 5.82521186,96.7272727 C3.88347458,91.6363636 2.98728814,89.8395722 0,85.9465241 C10.1567797,78.459893 16.7288136,72.0213904 24.1970339,62.4385027 C30.470339,54.2032086 34.2044492,47.6149733 38.9841102,36.9839572 L16.4300847,36.9839572 C12.5466102,36.9839572 9.11122881,37.1336898 4.92902542,37.5828877 L4.92902542,26.3529412 C8.8125,26.802139 12.2478814,26.9518717 16.1313559,26.9518717 L23.1514831,26.9518717 L23.1514831,13.9251337 C23.1514831,10.1818182 22.8527542,5.83957219 22.2552966,1.94652406 L35.1006356,1.94652406 C34.503178,5.39037433 34.2044492,9.13368984 34.2044492,13.9251337 L34.2044492,26.9518717 L39.282839,26.9518717 C42.8675847,26.9518717 45.4067797,26.802139 47.7966102,26.5026738 L52.875,32.7914439 C52.128178,34.1390374 51.2319915,35.486631 49.5889831,38.7807487 C44.5105932,48.9625668 41.0752119,54.802139 34.9512712,63.7860963 C40.029661,69.6256684 46.6016949,74.8663102 54.9661017,79.8074866 C52.4269068,83.1016043 50.9332627,85.6470588 49.1408898,89.540107 C42.8675847,85.0481283 40.1790254,82.6524064 34.2044492,76.3636364 Z M69.3050847,30.8449198 L106.795551,30.8449198 C114.5625,19.9144385 119.342161,11.0802139 122.478814,1.4973262 L133.233051,5.68983957 C127.855932,16.4705882 123.524364,23.8074866 118.445975,30.8449198 L120.088983,30.8449198 C126.511653,30.8449198 129.498941,30.6951872 133.382415,30.2459893 C132.934322,34.4385027 132.784958,37.8823529 132.784958,44.0213904 L132.784958,75.4652406 C132.784958,81.4545455 132.934322,84.7486631 133.382415,88.9411765 C128.901483,88.4919786 125.316737,88.342246 119.64089,88.342246 L98.8792373,88.342246 L98.8792373,102.417112 L126.063559,102.417112 C133.083686,102.417112 136.519068,102.26738 141,101.518717 L141,113.347594 C136.369703,112.748663 130.693856,112.449198 125.466102,112.449198 L98.8792373,112.449198 L98.8792373,124.57754 C98.8792373,130.716578 99.1779661,135.657754 99.7754237,140 L87.5275424,140 C88.125,135.508021 88.4237288,130.417112 88.4237288,124.427807 L88.4237288,112.449198 L64.6747881,112.449198 C58.7002119,112.449198 52.875,112.748663 48.6927966,113.347594 L48.6927966,101.518717 C52.2775424,102.117647 57.8040254,102.417112 63.7786017,102.417112 L88.4237288,102.417112 L88.4237288,88.342246 L70.2012712,88.342246 C64.3760593,88.342246 60.6419492,88.4919786 56.1610169,88.9411765 C56.4597458,83.5508021 56.6091102,80.7058824 56.6091102,75.6149733 L56.6091102,43.7219251 C56.6091102,38.7807487 56.4597458,34.8877005 56.1610169,30.2459893 C60.0444915,30.6951872 63.0317797,30.8449198 69.3050847,30.8449198 Z M98.8792373,78.7593583 L122.478814,78.7593583 L122.478814,63.9358289 L98.8792373,63.9358289 L98.8792373,78.7593583 Z M98.8792373,54.6524064 L122.478814,54.6524064 L122.478814,40.4278075 L98.8792373,40.4278075 L98.8792373,54.6524064 Z M88.4237288,40.4278075 L66.6165254,40.4278075 L66.6165254,54.6524064 L88.4237288,54.6524064 L88.4237288,40.4278075 Z M88.4237288,63.9358289 L66.6165254,63.9358289 L66.6165254,78.7593583 L88.4237288,78.7593583 L88.4237288,63.9358289 Z M54.0699153,6.58823529 L63.7786017,2.54545455 C69.4544492,12.1283422 71.0974576,15.5721925 75.1302966,25.1550802 L65.1228814,29.7967914 C61.5381356,20.3636364 59.1483051,15.2727273 54.0699153,6.58823529 Z M81.7023305,3.44385027 L91.5603814,0 C96.4894068,9.43315508 98.5805085,14.3743316 101.567797,23.657754 L91.4110169,27.1016043 C89.0211864,19.0160428 86.4819915,12.8770053 81.7023305,3.44385027 Z"/>
</svg>
