<svg xmlns="http://www.w3.org/2000/svg" width="140" height="140" viewBox="0 0 140 140">
  <path fill="#BCBCBC" fill-rule="evenodd" d="M33.9618644,76.3636364 L33.9618644,123.679144 C33.9618644,131.315508 34.1101695,135.807487 34.7033898,139.101604 L22.2457627,139.101604 C22.8389831,134.160428 23.1355932,129.518717 23.1355932,123.529412 L23.1355932,79.2085561 C17.5,85.7967914 13.7923729,89.540107 5.78389831,96.7272727 C3.8559322,91.6363636 2.96610169,89.8395722 0,85.9465241 C10.0847458,78.459893 16.6101695,72.0213904 24.0254237,62.4385027 C30.2542373,54.2032086 33.9618644,47.6149733 38.7076271,36.9839572 L16.3135593,36.9839572 C12.4576271,36.9839572 9.04661017,37.1336898 4.8940678,37.5828877 L4.8940678,26.3529412 C8.75,26.802139 12.1610169,26.9518717 16.0169492,26.9518717 L22.9872881,26.9518717 L22.9872881,13.9251337 C22.9872881,10.1818182 22.690678,5.83957219 22.0974576,1.94652406 L34.8516949,1.94652406 C34.2584746,5.39037433 33.9618644,9.13368984 33.9618644,13.9251337 L33.9618644,26.9518717 L39.0042373,26.9518717 C42.5635593,26.9518717 45.0847458,26.802139 47.4576271,26.5026738 L52.5,32.7914439 C51.7584746,34.1390374 50.8686441,35.486631 49.2372881,38.7807487 C44.1949153,48.9625668 40.7838983,54.802139 34.7033898,63.7860963 C39.7457627,69.6256684 46.2711864,74.8663102 54.5762712,79.8074866 C52.0550847,83.1016043 50.5720339,85.6470588 48.7923729,89.540107 C42.5635593,85.0481283 39.8940678,82.6524064 33.9618644,76.3636364 Z M68.8135593,30.8449198 L106.038136,30.8449198 C113.75,19.9144385 118.495763,11.0802139 121.610169,1.4973262 L132.288136,5.68983957 C126.949153,16.4705882 122.648305,23.8074866 117.605932,30.8449198 L119.237288,30.8449198 C125.614407,30.8449198 128.580508,30.6951872 132.436441,30.2459893 C131.991525,34.4385027 131.84322,37.8823529 131.84322,44.0213904 L131.84322,75.4652406 C131.84322,81.4545455 131.991525,84.7486631 132.436441,88.9411765 C127.987288,88.4919786 124.427966,88.342246 118.792373,88.342246 L98.1779661,88.342246 L98.1779661,102.417112 L125.169492,102.417112 C132.139831,102.417112 135.550847,102.26738 140,101.518717 L140,113.347594 C135.402542,112.748663 129.766949,112.449198 124.576271,112.449198 L98.1779661,112.449198 L98.1779661,124.57754 C98.1779661,130.716578 98.4745763,135.657754 99.0677966,140 L86.9067797,140 C87.5,135.508021 87.7966102,130.417112 87.7966102,124.427807 L87.7966102,112.449198 L64.2161017,112.449198 C58.2838983,112.449198 52.5,112.748663 48.3474576,113.347594 L48.3474576,101.518717 C51.9067797,102.117647 57.3940678,102.417112 63.3262712,102.417112 L87.7966102,102.417112 L87.7966102,88.342246 L69.7033898,88.342246 C63.9194915,88.342246 60.2118644,88.4919786 55.7627119,88.9411765 C56.059322,83.5508021 56.2076271,80.7058824 56.2076271,75.6149733 L56.2076271,43.7219251 C56.2076271,38.7807487 56.059322,34.8877005 55.7627119,30.2459893 C59.6186441,30.6951872 62.5847458,30.8449198 68.8135593,30.8449198 Z M98.1779661,78.7593583 L121.610169,78.7593583 L121.610169,63.9358289 L98.1779661,63.9358289 L98.1779661,78.7593583 Z M98.1779661,54.6524064 L121.610169,54.6524064 L121.610169,40.4278075 L98.1779661,40.4278075 L98.1779661,54.6524064 Z M87.7966102,40.4278075 L66.1440678,40.4278075 L66.1440678,54.6524064 L87.7966102,54.6524064 L87.7966102,40.4278075 Z M87.7966102,63.9358289 L66.1440678,63.9358289 L66.1440678,78.7593583 L87.7966102,78.7593583 L87.7966102,63.9358289 Z M53.6864407,6.58823529 L63.3262712,2.54545455 C68.9618644,12.1283422 70.5932203,15.5721925 74.5974576,25.1550802 L64.6610169,29.7967914 C61.1016949,20.3636364 58.7288136,15.2727273 53.6864407,6.58823529 Z M81.1228814,3.44385027 L90.9110169,0 C95.8050847,9.43315508 97.8813559,14.3743316 100.847458,23.657754 L90.7627119,27.1016043 C88.3898305,19.0160428 85.8686441,12.8770053 81.1228814,3.44385027 Z"/>
</svg>
