<svg xmlns="http://www.w3.org/2000/svg" width="152" height="152" viewBox="0 0 152 152">
  <g fill="none" fill-rule="evenodd" transform="translate(5 23)">
    <path fill="#C15454" d="M25.2676056,104.002513 C21.2074914,102.670848 18.2056435,100.318275 16.2619718,96.9447236 C14.3183001,93.5711724 13.476055,88.8216387 13.7352113,82.6959799 L14.2535211,69.379397 C14.2535211,63.7864042 13.3032959,59.9024397 11.4028169,57.7273869 C9.50233792,55.5523342 6.56527808,54.4648241 2.5915493,54.4648241 L-3.55271368e-15,54.4648241 L-3.55271368e-15,47.0075377 L2.46197183,47.0075377 C6.52208603,47.0075377 9.54552997,45.8756395 11.5323944,43.611809 C13.5192588,41.3479786 14.5126761,37.7303431 14.5126761,32.758794 L14.2535211,23.1708543 C14.2535211,7.72354085 22.1144754,0 37.8366197,0 L46,0 L46,7.59045226 L35.3746479,7.59045226 C27.3408049,7.59045226 23.3239437,12.2955978 23.3239437,21.7060302 L23.5830986,31.0276382 C23.5830986,40.7931812 19.8253897,47.3626297 12.3098592,50.7361809 C19.6526189,53.2219555 23.3239437,60.1021212 23.3239437,71.3768844 L22.9352113,82.5628141 C22.9352113,88.5109175 24.1877809,92.661211 26.6929577,95.0138191 C29.1981346,97.3664272 33.3877641,98.5427136 39.2619718,98.5427136 L45.8704225,98.5427136 L45.8704225,106 L41.2056338,106 C34.6403428,106 29.3277198,105.334178 25.2676056,104.002513 Z"/>
    <path fill="#C15454" d="M121.267606,104.002513 C117.207491,102.670848 114.205644,100.318275 112.261972,96.9447236 C110.3183,93.5711724 109.476055,88.8216387 109.735211,82.6959799 L110.253521,69.379397 C110.253521,63.7864042 109.303296,59.9024397 107.402817,57.7273869 C105.502338,55.5523342 102.565278,54.4648241 98.5915493,54.4648241 L96,54.4648241 L96,47.0075377 L98.4619718,47.0075377 C102.522086,47.0075377 105.54553,45.8756395 107.532394,43.611809 C109.519259,41.3479786 110.512676,37.7303431 110.512676,32.758794 L110.253521,23.1708543 C110.253521,7.72354085 118.114475,0 133.83662,0 L142,0 L142,7.59045226 L131.374648,7.59045226 C123.340805,7.59045226 119.323944,12.2955978 119.323944,21.7060302 L119.583099,31.0276382 C119.583099,40.7931812 115.82539,47.3626297 108.309859,50.7361809 C115.652619,53.2219555 119.323944,60.1021212 119.323944,71.3768844 L118.935211,82.5628141 C118.935211,88.5109175 120.187781,92.661211 122.692958,95.0138191 C125.198135,97.3664272 129.387764,98.5427136 135.261972,98.5427136 L141.870423,98.5427136 L141.870423,106 L137.205634,106 C130.640343,106 125.32772,105.334178 121.267606,104.002513 Z" transform="matrix(-1 0 0 1 238 0)"/>
    <path fill="#3B3B3B" d="M48,91 L48,83.5977337 L60.9408983,83.5977337 L60.9408983,43.1614731 L48,43.1614731 L48,35.7592068 L60.9408983,35.7592068 L60.9408983,32.6657224 C60.9408983,25.742175 62.7170823,20.7337265 66.2695035,17.6402266 C69.8219248,14.5467267 74.8967361,13 81.4940898,13 C83.8865368,13 86.0252073,13.1473073 87.9101655,13.4419263 C89.7951237,13.7365454 91.8250482,14.3257746 94,15.2096317 L92.0425532,22.3909348 C90.157595,21.5807325 88.3451624,21.0467435 86.6052009,20.7889518 C84.8652395,20.5311602 83.2702988,20.4022663 81.820331,20.4022663 C77.0354371,20.4022663 73.7730583,21.5991382 72.0330969,23.9929178 C70.2931355,26.3866975 69.4231678,30.3087546 69.4231678,35.7592068 L91.9338061,35.7592068 L91.9338061,43.1614731 L69.4231678,43.1614731 L69.4231678,83.5977337 L91.9338061,83.5977337 L91.9338061,91 L48,91 Z"/>
  </g>
</svg>
