<svg xmlns="http://www.w3.org/2000/svg" viewBox="0 0 196.41 143"><defs><style>.a{fill:#c25455;}.b{fill:#f2f2f2;}</style></defs><title>logo</title><path class="a" d="M212.13,123.18s3,51.46-53.28,56.6l-14.5.51V95.72L128.18,121V194.5h29.55c71-4.71,69.62-71.32,69.62-71.32s2.3-54.81-50.5-68.42a10.07,10.07,0,0,0-2-.52c-2.41-.39-.06-.36-2.67-.6h0l-8.81,13.47h0c1.57.14,7.36,1.43,8.81,1.8,42.09,10.69,40,54.27,40,54.27" transform="translate(-30.95 -51.5)"/><path class="b" d="M31,51.51H159.15s.91-.05,4.67.15a14.67,14.67,0,0,1,3.89.69l-8.94,13.88H100.54V95.37h39.94l-13.6,21.14-7.48-7H99.7v84.65l-14.78-8.37V109.5H59L50.78,95.37H84.91V66.23h-46Z" transform="translate(-30.95 -51.5)"/></svg>