<svg xmlns="http://www.w3.org/2000/svg" width="25" height="25" viewBox="0 0 30 30">
  <g fill="#9b9b9b">
    <path d="M26.0502294,3.3315 C21.7593818,-1.1106 14.803091,-1.1106 10.5122434,3.3315 C6.2213958,7.7733 6.2213958,14.9751 10.5122434,19.4172 C14.803091,23.8593 21.7593818,23.8593 26.0502294,19.4172 C30.341077,14.9751 30.341077,7.7736 26.0502294,3.3315 Z M24.8235692,18.1476 C21.2102391,21.888 15.3522338,21.888 11.7389036,18.1476 C8.12586332,14.4069 8.12586332,8.3421 11.7389036,4.6017 C15.3522338,0.8613 21.2105289,0.861 24.8235692,4.6017 C28.4366095,8.3424 28.4366095,14.4066 24.8235692,18.1476 Z"/>
    <rect width="3.47" height="11.973" x="3.87" y="18.51" transform="rotate(45 5.605 24.496)"/>
  </g>
</svg>
